<svg xmlns="http://www.w3.org/2000/svg" viewBox="0 0 360 80" aria-label="Axis Bank">
  <g>
    <path fill="#97144D" d="M40 14c-12 0-22 9.5-22 21.5C18 47 26 55 36 56l4-12c-3-1-5-3.5-5-7 0-4 3.5-7.5 7.5-7.5 4 0 7.5 3.5 7.5 7.5 0 3.5-2 6-5 7l4 12c10-1 18-9 18-20.5 0-12-10-21.5-22-21.5z"/>
    <path fill="#ED1C24" d="M40 14v18.5c4 0 7.5 3.5 7.5 7.5h14C61.5 24 52 14 40 14z"/>
  </g>
  <g font-family="'Helvetica Neue',Arial,sans-serif">
    <text x="80" y="40" font-size="22" font-weight="800" fill="#97144D" letter-spacing="2">AXIS BANK</text>
    <text x="80" y="60" font-size="11" font-weight="500" fill="#97144D" letter-spacing="1.4">Payment Gateway Partner</text>
  </g>
</svg>
