<svg xmlns="http://www.w3.org/2000/svg" viewBox="0 0 200 50" role="img" aria-label="Axis Bank">
  <g transform="translate(8 6)">
    <path d="M19 0C8.5 0 0 8.5 0 19s8.5 19 19 19c2.4 0 4.7-.4 6.8-1.3l-3.6-9.7c-1 .4-2.1.6-3.2.6-5 0-9-4-9-9s4-9 9-9 9 4 9 9c0 1.2-.2 2.4-.7 3.4l9.4 5.4c1-2.6 1.6-5.4 1.6-8.4C38 8.5 29.5 0 19 0z" fill="#97144D"/>
    <path d="M19 10c-.4 0-.8 0-1.2.1L21 18l5-2c-1.1-3.5-3.5-6-7-6z" fill="#ED1C24"/>
  </g>
  <g font-family="'Helvetica Neue',Arial,sans-serif">
    <text x="56" y="22" font-size="18" font-weight="900" fill="#97144D" letter-spacing="2">AXIS BANK</text>
    <text x="56" y="38" font-size="9" font-weight="500" fill="#5B6A7E" letter-spacing="0.6">Acquiring Bank · PCI-DSS Certified</text>
  </g>
</svg>
