<svg xmlns="http://www.w3.org/2000/svg" viewBox="0 0 160 36" role="img" aria-label="Axis Bank">
  <rect width="160" height="36" rx="4" fill="#fff"/>
  <g transform="translate(8 6)">
    <path d="M12 0C5.4 0 0 5.4 0 12s5.4 12 12 12c1.4 0 2.7-.2 4-.7l-2.2-6c-.6.2-1.2.3-1.8.3-3.2 0-5.7-2.5-5.7-5.6S8.8 6.4 12 6.4s5.7 2.5 5.7 5.6c0 .8-.2 1.5-.5 2.2L23 16.5c.7-1.3 1.1-2.9 1.1-4.5C24 5.4 18.6 0 12 0z" fill="#97144D"/>
    <path d="M12 6.4c-.2 0-.4 0-.6 0L14 13c.4-.3.6-.7.6-1.2 0-.8-.7-1.5-2.6-5.4z" fill="#ED1C24"/>
  </g>
  <text x="38" y="16"
    font-family="'Helvetica Neue',Arial,sans-serif"
    font-size="11" font-weight="900"
    fill="#97144D" letter-spacing="2">AXIS BANK</text>
  <text x="38" y="26"
    font-family="'Helvetica Neue',Arial,sans-serif"
    font-size="6" font-weight="500"
    fill="#7A7A7A" letter-spacing="0.6">Payment Gateway Partner</text>
</svg>
