<svg id="mermaid-1778921817045" width="991.4517822265625" xmlns="http://www.w3.org/2000/svg" xmlns:xlink="http://www.w3.org/1999/xlink" class="flowchart" height="631" viewBox="-0.0000019073486328125 0 991.4517822265625 631" role="graphics-document document" aria-roledescription="flowchart-v2"><style>#mermaid-1778921817045{font-family:-apple-system,BlinkMacSystemFont,"Segoe UI",Arial,sans-serif;font-size:14px;fill:#0c831f;}@keyframes edge-animation-frame{from{stroke-dashoffset:0;}}@keyframes dash{to{stroke-dashoffset:0;}}#mermaid-1778921817045 .edge-animation-slow{stroke-dasharray:9,5!important;stroke-dashoffset:900;animation:dash 50s linear infinite;stroke-linecap:round;}#mermaid-1778921817045 .edge-animation-fast{stroke-dasharray:9,5!important;stroke-dashoffset:900;animation:dash 20s linear infinite;stroke-linecap:round;}#mermaid-1778921817045 .error-icon{fill:#fafbfc;}#mermaid-1778921817045 .error-text{fill:#050403;stroke:#050403;}#mermaid-1778921817045 .edge-thickness-normal{stroke-width:1px;}#mermaid-1778921817045 .edge-thickness-thick{stroke-width:3.5px;}#mermaid-1778921817045 .edge-pattern-solid{stroke-dasharray:0;}#mermaid-1778921817045 .edge-thickness-invisible{stroke-width:0;fill:none;}#mermaid-1778921817045 .edge-pattern-dashed{stroke-dasharray:3;}#mermaid-1778921817045 .edge-pattern-dotted{stroke-dasharray:2;}#mermaid-1778921817045 .marker{fill:#5a6478;stroke:#5a6478;}#mermaid-1778921817045 .marker.cross{stroke:#5a6478;}#mermaid-1778921817045 svg{font-family:-apple-system,BlinkMacSystemFont,"Segoe UI",Arial,sans-serif;font-size:14px;}#mermaid-1778921817045 p{margin:0;}#mermaid-1778921817045 .label{font-family:-apple-system,BlinkMacSystemFont,"Segoe UI",Arial,sans-serif;color:#0c831f;}#mermaid-1778921817045 .cluster-label text{fill:#050403;}#mermaid-1778921817045 .cluster-label span{color:#050403;}#mermaid-1778921817045 .cluster-label span p{background-color:transparent;}#mermaid-1778921817045 .label text,#mermaid-1778921817045 span{fill:#0c831f;color:#0c831f;}#mermaid-1778921817045 .node rect,#mermaid-1778921817045 .node circle,#mermaid-1778921817045 .node ellipse,#mermaid-1778921817045 .node polygon,#mermaid-1778921817045 .node path{fill:#ecfdf3;stroke:#11ab3a;stroke-width:1px;}#mermaid-1778921817045 .rough-node .label text,#mermaid-1778921817045 .node .label text,#mermaid-1778921817045 .image-shape .label,#mermaid-1778921817045 .icon-shape .label{text-anchor:middle;}#mermaid-1778921817045 .node .katex path{fill:#000;stroke:#000;stroke-width:1px;}#mermaid-1778921817045 .rough-node .label,#mermaid-1778921817045 .node .label,#mermaid-1778921817045 .image-shape .label,#mermaid-1778921817045 .icon-shape .label{text-align:center;}#mermaid-1778921817045 .node.clickable{cursor:pointer;}#mermaid-1778921817045 .root .anchor path{fill:#5a6478!important;stroke-width:0;stroke:#5a6478;}#mermaid-1778921817045 .arrowheadPath{fill:#0b0b0b;}#mermaid-1778921817045 .edgePath .path{stroke:#5a6478;stroke-width:1px;}#mermaid-1778921817045 .flowchart-link{stroke:#5a6478;fill:none;}#mermaid-1778921817045 .edgeLabel{background-color:hsl(24.7058823529, 80.9523809524%, 95.8823529412%);text-align:center;}#mermaid-1778921817045 .edgeLabel p{background-color:hsl(24.7058823529, 80.9523809524%, 95.8823529412%);}#mermaid-1778921817045 .edgeLabel rect{opacity:0.5;background-color:hsl(24.7058823529, 80.9523809524%, 95.8823529412%);fill:hsl(24.7058823529, 80.9523809524%, 95.8823529412%);}#mermaid-1778921817045 .labelBkg{background-color:rgba(253, 243.0000000001, 236.0000000001, 0.5);}#mermaid-1778921817045 .cluster rect{fill:#fafbfc;stroke:hsl(210, 0%, 88.431372549%);stroke-width:1px;}#mermaid-1778921817045 .cluster text{fill:#050403;}#mermaid-1778921817045 .cluster span{color:#050403;}#mermaid-1778921817045 div.mermaidTooltip{position:absolute;text-align:center;max-width:200px;padding:2px;font-family:-apple-system,BlinkMacSystemFont,"Segoe UI",Arial,sans-serif;font-size:12px;background:#fafbfc;border:1px solid hsl(210, 0%, 88.431372549%);border-radius:2px;pointer-events:none;z-index:100;}#mermaid-1778921817045 .flowchartTitleText{text-anchor:middle;font-size:18px;fill:#0c831f;}#mermaid-1778921817045 rect.text{fill:none;stroke-width:0;}#mermaid-1778921817045 .icon-shape,#mermaid-1778921817045 .image-shape{background-color:hsl(24.7058823529, 80.9523809524%, 95.8823529412%);text-align:center;}#mermaid-1778921817045 .icon-shape p,#mermaid-1778921817045 .image-shape p{background-color:hsl(24.7058823529, 80.9523809524%, 95.8823529412%);padding:2px;}#mermaid-1778921817045 .icon-shape .label rect,#mermaid-1778921817045 .image-shape .label rect{opacity:0.5;background-color:hsl(24.7058823529, 80.9523809524%, 95.8823529412%);fill:hsl(24.7058823529, 80.9523809524%, 95.8823529412%);}#mermaid-1778921817045 .label-icon{display:inline-block;height:1em;overflow:visible;vertical-align:-0.125em;}#mermaid-1778921817045 .node .label-icon path{fill:currentColor;stroke:revert;stroke-width:revert;}#mermaid-1778921817045 .node .neo-node{stroke:#11ab3a;}#mermaid-1778921817045 [data-look="neo"].node rect,#mermaid-1778921817045 [data-look="neo"].cluster rect,#mermaid-1778921817045 [data-look="neo"].node polygon{stroke:url(#mermaid-1778921817045-gradient);filter:drop-shadow( 1px 2px 2px rgba(185,185,185,1));}#mermaid-1778921817045 [data-look="neo"].node path{stroke:url(#mermaid-1778921817045-gradient);stroke-width:1px;}#mermaid-1778921817045 [data-look="neo"].node .outer-path{filter:drop-shadow( 1px 2px 2px rgba(185,185,185,1));}#mermaid-1778921817045 [data-look="neo"].node .neo-line path{stroke:#11ab3a;filter:none;}#mermaid-1778921817045 [data-look="neo"].node circle{stroke:url(#mermaid-1778921817045-gradient);filter:drop-shadow( 1px 2px 2px rgba(185,185,185,1));}#mermaid-1778921817045 [data-look="neo"].node circle .state-start{fill:#000000;}#mermaid-1778921817045 [data-look="neo"].icon-shape .icon{fill:url(#mermaid-1778921817045-gradient);filter:drop-shadow( 1px 2px 2px rgba(185,185,185,1));}#mermaid-1778921817045 [data-look="neo"].icon-shape .icon-neo path{stroke:url(#mermaid-1778921817045-gradient);filter:drop-shadow( 1px 2px 2px rgba(185,185,185,1));}#mermaid-1778921817045 :root{--mermaid-font-family:"trebuchet ms",verdana,arial,sans-serif;}#mermaid-1778921817045 .root&gt;*{fill:rgb(17, 171, 58)!important;color:rgb(255, 255, 255)!important;stroke:rgb(12, 131, 31)!important;}#mermaid-1778921817045 .root span{fill:rgb(17, 171, 58)!important;color:rgb(255, 255, 255)!important;stroke:rgb(12, 131, 31)!important;}#mermaid-1778921817045 .root tspan{fill:rgb(255, 255, 255)!important;}#mermaid-1778921817045 .tab&gt;*{fill:rgb(236, 253, 243)!important;color:rgb(12, 131, 31)!important;stroke:rgb(17, 171, 58)!important;}#mermaid-1778921817045 .tab span{fill:rgb(236, 253, 243)!important;color:rgb(12, 131, 31)!important;stroke:rgb(17, 171, 58)!important;}#mermaid-1778921817045 .tab tspan{fill:rgb(12, 131, 31)!important;}</style><g><marker id="mermaid-1778921817045_flowchart-v2-pointEnd" class="marker flowchart-v2" viewBox="0 0 10 10" refX="5" refY="5" markerUnits="userSpaceOnUse" markerWidth="8" markerHeight="8" orient="auto"><path d="M 0 0 L 10 5 L 0 10 z" class="arrowMarkerPath" style="stroke-width: 1; stroke-dasharray: 1, 0;"/></marker><marker id="mermaid-1778921817045_flowchart-v2-pointStart" class="marker flowchart-v2" viewBox="0 0 10 10" refX="4.5" refY="5" markerUnits="userSpaceOnUse" markerWidth="8" markerHeight="8" orient="auto"><path d="M 0 5 L 10 10 L 10 0 z" class="arrowMarkerPath" style="stroke-width: 1; stroke-dasharray: 1, 0;"/></marker><marker id="mermaid-1778921817045_flowchart-v2-pointEnd-margin" class="marker flowchart-v2" viewBox="0 0 11.5 14" refX="11.5" refY="7" markerUnits="userSpaceOnUse" markerWidth="10.5" markerHeight="14" orient="auto"><path d="M 0 0 L 11.5 7 L 0 14 z" class="arrowMarkerPath" style="stroke-width: 0; stroke-dasharray: 1, 0;"/></marker><marker id="mermaid-1778921817045_flowchart-v2-pointStart-margin" class="marker flowchart-v2" viewBox="0 0 11.5 14" refX="1" refY="7" markerUnits="userSpaceOnUse" markerWidth="11.5" markerHeight="14" orient="auto"><polygon points="0,7 11.5,14 11.5,0" class="arrowMarkerPath" style="stroke-width: 0; stroke-dasharray: 1, 0;"/></marker><marker id="mermaid-1778921817045_flowchart-v2-circleEnd" class="marker flowchart-v2" viewBox="0 0 10 10" refX="11" refY="5" markerUnits="userSpaceOnUse" markerWidth="11" markerHeight="11" orient="auto"><circle cx="5" cy="5" r="5" class="arrowMarkerPath" style="stroke-width: 1; stroke-dasharray: 1, 0;"/></marker><marker id="mermaid-1778921817045_flowchart-v2-circleStart" class="marker flowchart-v2" viewBox="0 0 10 10" refX="-1" refY="5" markerUnits="userSpaceOnUse" markerWidth="11" markerHeight="11" orient="auto"><circle cx="5" cy="5" r="5" class="arrowMarkerPath" style="stroke-width: 1; stroke-dasharray: 1, 0;"/></marker><marker id="mermaid-1778921817045_flowchart-v2-circleEnd-margin" class="marker flowchart-v2" viewBox="0 0 10 10" refY="5" refX="12.25" markerUnits="userSpaceOnUse" markerWidth="14" markerHeight="14" orient="auto"><circle cx="5" cy="5" r="5" class="arrowMarkerPath" style="stroke-width: 0; stroke-dasharray: 1, 0;"/></marker><marker id="mermaid-1778921817045_flowchart-v2-circleStart-margin" class="marker flowchart-v2" viewBox="0 0 10 10" refX="-2" refY="5" markerUnits="userSpaceOnUse" markerWidth="14" markerHeight="14" orient="auto"><circle cx="5" cy="5" r="5" class="arrowMarkerPath" style="stroke-width: 0; stroke-dasharray: 1, 0;"/></marker><marker id="mermaid-1778921817045_flowchart-v2-crossEnd" class="marker cross flowchart-v2" viewBox="0 0 11 11" refX="12" refY="5.2" markerUnits="userSpaceOnUse" markerWidth="11" markerHeight="11" orient="auto"><path d="M 1,1 l 9,9 M 10,1 l -9,9" class="arrowMarkerPath" style="stroke-width: 2; stroke-dasharray: 1, 0;"/></marker><marker id="mermaid-1778921817045_flowchart-v2-crossStart" class="marker cross flowchart-v2" viewBox="0 0 11 11" refX="-1" refY="5.2" markerUnits="userSpaceOnUse" markerWidth="11" markerHeight="11" orient="auto"><path d="M 1,1 l 9,9 M 10,1 l -9,9" class="arrowMarkerPath" style="stroke-width: 2; stroke-dasharray: 1, 0;"/></marker><marker id="mermaid-1778921817045_flowchart-v2-crossEnd-margin" class="marker cross flowchart-v2" viewBox="0 0 15 15" refX="17.7" refY="7.5" markerUnits="userSpaceOnUse" markerWidth="12" markerHeight="12" orient="auto"><path d="M 1,1 L 14,14 M 1,14 L 14,1" class="arrowMarkerPath" style="stroke-width: 2.5;"/></marker><marker id="mermaid-1778921817045_flowchart-v2-crossStart-margin" class="marker cross flowchart-v2" viewBox="0 0 15 15" refX="-3.5" refY="7.5" markerUnits="userSpaceOnUse" markerWidth="12" markerHeight="12" orient="auto"><path d="M 1,1 L 14,14 M 1,14 L 14,1" class="arrowMarkerPath" style="stroke-width: 2.5; stroke-dasharray: 1, 0;"/></marker><g class="root"><g class="clusters"/><g class="edgePaths"><path d="M68.78,268.5L72.863,268.417C76.947,268.333,85.113,268.167,92.697,268.083C100.28,268,107.28,268,110.78,268L114.28,268" id="mermaid-1778921817045-L_Splash_OnboardCheck_0" class="edge-thickness-normal edge-pattern-solid edge-thickness-normal edge-pattern-solid flowchart-link" style=";" data-edge="true" data-et="edge" data-id="L_Splash_OnboardCheck_0" data-points="W3sieCI6NjguNzc5OTIwMTM0NjI0MDgsInkiOjI2OC41fSx7IngiOjkzLjI3OTkxODY3MDY1NDMsInkiOjI2OH0seyJ4IjoxMTguMjc5OTE4NjcwNjU0MywieSI6MjY4fV0=" data-look="classic" marker-end="url(#mermaid-1778921817045_flowchart-v2-pointEnd)"/><path d="M195.548,232.237L207.346,211.906C219.144,191.575,242.739,150.912,260.998,130.581C279.256,110.25,292.178,110.25,298.639,110.25L305.1,110.25" id="mermaid-1778921817045-L_OnboardCheck_Onboard_0" class="edge-thickness-normal edge-pattern-solid edge-thickness-normal edge-pattern-solid flowchart-link" style=";" data-edge="true" data-et="edge" data-id="L_OnboardCheck_Onboard_0" data-points="W3sieCI6MTk1LjU0ODEwODA5MjEzNDEzLCJ5IjoyMzIuMjM2OTM5NDIxNDc5ODN9LHsieCI6MjY2LjMzNDYwNjE3MDY1NDMsInkiOjExMC4yNX0seyJ4IjozMDkuMTAwMjMxMTcwNjU0MywieSI6MTEwLjI1fV0=" data-look="classic" marker-end="url(#mermaid-1778921817045_flowchart-v2-pointEnd)"/><path d="M197.408,301.904L208.895,319.128C220.383,336.352,243.359,370.801,260.017,388.026C276.676,405.25,287.017,405.25,292.187,405.25L297.358,405.25" id="mermaid-1778921817045-L_OnboardCheck_AuthCheck_0" class="edge-thickness-normal edge-pattern-solid edge-thickness-normal edge-pattern-solid flowchart-link" style=";" data-edge="true" data-et="edge" data-id="L_OnboardCheck_AuthCheck_0" data-points="W3sieCI6MTk3LjQwNzU4MzIxNzM1MDU1LCJ5IjozMDEuOTAzNTg1NDUzMzAzN30seyJ4IjoyNjYuMzM0NjA2MTcwNjU0MywieSI6NDA1LjI1fSx7IngiOjMwMS4zNTgwNDM2NzA2NTQzLCJ5Ijo0MDUuMjV9XQ==" data-look="classic" marker-end="url(#mermaid-1778921817045_flowchart-v2-pointEnd)"/><path d="M431.803,110.25L438.605,110.25C445.408,110.25,459.012,110.25,470.672,111.248C482.333,112.246,492.051,114.242,496.909,115.24L501.768,116.237" id="mermaid-1778921817045-L_Onboard_Login_0" class="edge-thickness-normal edge-pattern-solid edge-thickness-normal edge-pattern-solid flowchart-link" style=";" data-edge="true" data-et="edge" data-id="L_Onboard_Login_0" data-points="W3sieCI6NDMxLjgwMzM1NjE3MDY1NDMsInkiOjExMC4yNX0seyJ4Ijo0NzIuNjE1ODU2MTcwNjU0MywieSI6MTEwLjI1fSx7IngiOjUwNS42ODYxNjg2NzA2NTQzLCJ5IjoxMTcuMDQyMjE5MDY1NjU2NTd9XQ==" data-look="classic" marker-end="url(#mermaid-1778921817045_flowchart-v2-pointEnd)"/><path d="M405.325,371.03L416.54,360.025C427.756,349.02,450.186,327.01,471.97,290.454C493.754,253.899,514.892,202.798,525.461,177.247L536.03,151.696" id="mermaid-1778921817045-L_AuthCheck_Login_0" class="edge-thickness-normal edge-pattern-solid edge-thickness-normal edge-pattern-solid flowchart-link" style=";" data-edge="true" data-et="edge" data-id="L_AuthCheck_Login_0" data-points="W3sieCI6NDA1LjMyNTM0OTkxNTU4ODUsInkiOjM3MS4wMjk4MDYyNDQ5MzQyfSx7IngiOjQ3Mi42MTU4NTYxNzA2NTQzLCJ5IjozMDV9LHsieCI6NTM3LjU1ODc1MzEwNjU4NzUsInkiOjE0OH1d" data-look="classic" marker-end="url(#mermaid-1778921817045_flowchart-v2-pointEnd)"/><path d="M430.571,414.224L437.579,415.27C444.586,416.316,458.601,418.408,477.983,419.454C497.366,420.5,522.116,420.5,545.521,420.5C568.926,420.5,590.986,420.5,607.497,420.038C624.008,419.576,634.971,418.652,640.453,418.19L645.934,417.728" id="mermaid-1778921817045-L_AuthCheck_Tabs_0" class="edge-thickness-normal edge-pattern-solid edge-thickness-normal edge-pattern-solid flowchart-link" style=";" data-edge="true" data-et="edge" data-id="L_AuthCheck_Tabs_0" data-points="W3sieCI6NDMwLjU3MTQ5MzUwMDk4MjM0LCJ5Ijo0MTQuMjI0MDUwMTY5NjcxOTV9LHsieCI6NDcyLjYxNTg1NjE3MDY1NDMsInkiOjQyMC41fSx7IngiOjU0Ni44NjU4NTYxNzA2NTQzLCJ5Ijo0MjAuNX0seyJ4Ijo2MTMuMDQ1NTQzNjcwNjU0MywieSI6NDIwLjV9LHsieCI6NjQ5LjkyMDA2Mzk1MDE1MzYsInkiOjQxNy4zOTE1ODQ0NDEwMDE0fV0=" data-look="classic" marker-end="url(#mermaid-1778921817045_flowchart-v2-pointEnd)"/><path d="M562.54,103L570.958,90.917C579.375,78.833,596.21,54.667,612.612,42.583C629.014,30.5,644.983,30.5,652.967,30.5L660.952,30.5" id="mermaid-1778921817045-L_Login_Register_0" class="edge-thickness-normal edge-pattern-solid edge-thickness-normal edge-pattern-solid flowchart-link" style=";" data-edge="true" data-et="edge" data-id="L_Login_Register_0" data-points="W3sieCI6NTYyLjUzOTk5MjY4MzgxMjIsInkiOjEwM30seyJ4Ijo2MTMuMDQ1NTQzNjcwNjU0MywieSI6MzAuNX0seyJ4Ijo2NjQuOTUxNzkzNjcwNjU0MywieSI6MzAuNX1d" data-look="classic" marker-end="url(#mermaid-1778921817045_flowchart-v2-pointEnd)"/><path d="M588.046,125.5L592.212,125.5C596.379,125.5,604.712,125.5,612.379,125.5C620.046,125.5,627.046,125.5,630.546,125.5L634.046,125.5" id="mermaid-1778921817045-L_Login_Forgot_0" class="edge-thickness-normal edge-pattern-solid edge-thickness-normal edge-pattern-solid flowchart-link" style=";" data-edge="true" data-et="edge" data-id="L_Login_Forgot_0" data-points="W3sieCI6NTg4LjA0NTU0MzY3MDY1NDMsInkiOjEyNS41fSx7IngiOjYxMy4wNDU1NDM2NzA2NTQzLCJ5IjoxMjUuNX0seyJ4Ijo2MzguMDQ1NTQzNjcwNjU0MywieSI6MTI1LjV9XQ==" data-look="classic" marker-end="url(#mermaid-1778921817045_flowchart-v2-pointEnd)"/><path d="M789.655,125.5L793.822,125.5C797.988,125.5,806.322,125.5,813.988,125.5C821.655,125.5,828.655,125.5,832.155,125.5L835.655,125.5" id="mermaid-1778921817045-L_Forgot_Reset_0" class="edge-thickness-normal edge-pattern-solid edge-thickness-normal edge-pattern-solid flowchart-link" style=";" data-edge="true" data-et="edge" data-id="L_Forgot_Reset_0" data-points="W3sieCI6Nzg5LjY1NDkxODY3MDY1NDMsInkiOjEyNS41fSx7IngiOjgxNC42NTQ5MTg2NzA2NTQzLCJ5IjoxMjUuNX0seyJ4Ijo4MzkuNjU0OTE4NjcwNjU0MywieSI6MTI1LjV9XQ==" data-look="classic" marker-end="url(#mermaid-1778921817045_flowchart-v2-pointEnd)"/><path d="M554.703,148L564.427,175.917C574.15,203.833,593.598,259.667,616.803,300.293C640.008,340.919,666.97,366.337,680.451,379.047L693.932,391.756" id="mermaid-1778921817045-L_Login_Tabs_0" class="edge-thickness-normal edge-pattern-solid edge-thickness-normal edge-pattern-solid flowchart-link" style=";" data-edge="true" data-et="edge" data-id="L_Login_Tabs_0" data-points="W3sieCI6NTU0LjcwMjkyNDQyNzIzMzMsInkiOjE0OH0seyJ4Ijo2MTMuMDQ1NTQzNjcwNjU0MywieSI6MzE1LjV9LHsieCI6Njk2Ljg0MjA0ODYwNDg2NDgsInkiOjM5NC41fV0=" data-look="classic" marker-end="url(#mermaid-1778921817045_flowchart-v2-pointEnd)"/><path d="M723.104,394.5L738.363,365.5C753.621,336.5,784.138,278.5,807.752,249.5C831.366,220.5,848.077,220.5,856.432,220.5L864.788,220.5" id="mermaid-1778921817045-L_Tabs_Home_0" class="edge-thickness-normal edge-pattern-solid edge-thickness-normal edge-pattern-solid flowchart-link" style=";" data-edge="true" data-et="edge" data-id="L_Tabs_Home_0" data-points="W3sieCI6NzIzLjEwNDMyMjQ1MzU0OSwieSI6Mzk0LjV9LHsieCI6ODE0LjY1NDkxODY3MDY1NDMsInkiOjIyMC41fSx7IngiOjg2OC43ODc3MzExNzA2NTQzLCJ5IjoyMjAuNX1d" data-look="classic" marker-end="url(#mermaid-1778921817045_flowchart-v2-pointEnd)"/><path d="M731.858,394.5L745.658,381.333C759.457,368.167,787.056,341.833,808.91,328.667C830.764,315.5,846.874,315.5,854.928,315.5L862.983,315.5" id="mermaid-1778921817045-L_Tabs_Search_0" class="edge-thickness-normal edge-pattern-solid edge-thickness-normal edge-pattern-solid flowchart-link" style=";" data-edge="true" data-et="edge" data-id="L_Tabs_Search_0" data-points="W3sieCI6NzMxLjg1ODQxMzczNjQ0MzgsInkiOjM5NC41fSx7IngiOjgxNC42NTQ5MTg2NzA2NTQzLCJ5IjozMTUuNX0seyJ4Ijo4NjYuOTgzMDQzNjcwNjU0MywieSI6MzE1LjV9XQ==" data-look="classic" marker-end="url(#mermaid-1778921817045_flowchart-v2-pointEnd)"/><path d="M775.585,411L782.096,410.917C788.608,410.833,801.631,410.667,817.509,410.583C833.387,410.5,852.118,410.5,861.484,410.5L870.85,410.5" id="mermaid-1778921817045-L_Tabs_Cart_0" class="edge-thickness-normal edge-pattern-solid edge-thickness-normal edge-pattern-solid flowchart-link" style=";" data-edge="true" data-et="edge" data-id="L_Tabs_Cart_0" data-points="W3sieCI6Nzc1LjU4NDYwNjE3MDY1NDMsInkiOjQxMX0seyJ4Ijo4MTQuNjU0OTE4NjcwNjU0MywieSI6NDEwLjV9LHsieCI6ODc0Ljg1MDIzMTE3MDY1NDMsInkiOjQxMC41fV0=" data-look="classic" marker-end="url(#mermaid-1778921817045_flowchart-v2-pointEnd)"/><path d="M731.858,427.5L745.658,440.5C759.457,453.5,787.056,479.5,808.356,492.5C829.655,505.5,844.655,505.5,852.155,505.5L859.655,505.5" id="mermaid-1778921817045-L_Tabs_Wishlist_0" class="edge-thickness-normal edge-pattern-solid edge-thickness-normal edge-pattern-solid flowchart-link" style=";" data-edge="true" data-et="edge" data-id="L_Tabs_Wishlist_0" data-points="W3sieCI6NzMxLjg1ODQxMzczNjQ0MzgsInkiOjQyNy41fSx7IngiOjgxNC42NTQ5MTg2NzA2NTQzLCJ5Ijo1MDUuNX0seyJ4Ijo4NjMuNjU0OTE4NjcwNjU0MywieSI6NTA1LjV9XQ==" data-look="classic" marker-end="url(#mermaid-1778921817045_flowchart-v2-pointEnd)"/><path d="M723.104,427.5L738.363,456.333C753.621,485.167,784.138,542.833,806.649,571.667C829.16,600.5,843.665,600.5,850.918,600.5L858.171,600.5" id="mermaid-1778921817045-L_Tabs_Account_0" class="edge-thickness-normal edge-pattern-solid edge-thickness-normal edge-pattern-solid flowchart-link" style=";" data-edge="true" data-et="edge" data-id="L_Tabs_Account_0" data-points="W3sieCI6NzIzLjEwNDMyMjQ1MzU0OSwieSI6NDI3LjV9LHsieCI6ODE0LjY1NDkxODY3MDY1NDMsInkiOjYwMC41fSx7IngiOjg2Mi4xNzA1NDM2NzA2NTQzLCJ5Ijo2MDAuNX1d" data-look="classic" marker-end="url(#mermaid-1778921817045_flowchart-v2-pointEnd)"/></g><g class="edgeLabels"><g class="edgeLabel"><g class="label" data-id="L_Splash_OnboardCheck_0" transform="translate(0, 0)"><text x="0" y="0" text-anchor="middle" dominant-baseline="central" font-family="-apple-system, BlinkMacSystemFont, &quot;Segoe UI&quot;, Arial, sans-serif" font-size="13" fill="#0c831f"><tspan x="0" dy="0em"/></text></g></g><g class="edgeLabel" transform="translate(266.3346061706543, 110.25)"><g class="label" data-id="L_OnboardCheck_Onboard_0" transform="translate(-10.0234375, -10.5)"><text x="10.0234375" y="10.5" text-anchor="middle" dominant-baseline="central" font-family="-apple-system, BlinkMacSystemFont, &quot;Segoe UI&quot;, Arial, sans-serif" font-size="13" fill="#0c831f"><tspan x="10.0234375" dy="0em">yes</tspan></text></g></g><g class="edgeLabel" transform="translate(266.3346061706543, 405.25)"><g class="label" data-id="L_OnboardCheck_AuthCheck_0" transform="translate(-8.0703125, -10.5)"><text x="8.0703125" y="10.5" text-anchor="middle" dominant-baseline="central" font-family="-apple-system, BlinkMacSystemFont, &quot;Segoe UI&quot;, Arial, sans-serif" font-size="13" fill="#0c831f"><tspan x="8.0703125" dy="0em">no</tspan></text></g></g><g class="edgeLabel"><g class="label" data-id="L_Onboard_Login_0" transform="translate(0, 0)"><text x="0" y="0" text-anchor="middle" dominant-baseline="central" font-family="-apple-system, BlinkMacSystemFont, &quot;Segoe UI&quot;, Arial, sans-serif" font-size="13" fill="#0c831f"><tspan x="0" dy="0em"/></text></g></g><g class="edgeLabel" transform="translate(487.06938, 270.05848)"><g class="label" data-id="L_AuthCheck_Login_0" transform="translate(-8.0703125, -10.5)"><text x="8.0703125" y="10.5" text-anchor="middle" dominant-baseline="central" font-family="-apple-system, BlinkMacSystemFont, &quot;Segoe UI&quot;, Arial, sans-serif" font-size="13" fill="#0c831f"><tspan x="8.0703125" dy="0em">no</tspan></text></g></g><g class="edgeLabel" transform="translate(546.8658561706543, 420.5)"><g class="label" data-id="L_AuthCheck_Tabs_0" transform="translate(-10.0234375, -10.5)"><text x="10.0234375" y="10.5" text-anchor="middle" dominant-baseline="central" font-family="-apple-system, BlinkMacSystemFont, &quot;Segoe UI&quot;, Arial, sans-serif" font-size="13" fill="#0c831f"><tspan x="10.0234375" dy="0em">yes</tspan></text></g></g><g class="edgeLabel"><g class="label" data-id="L_Login_Register_0" transform="translate(0, 0)"><text x="0" y="0" text-anchor="middle" dominant-baseline="central" font-family="-apple-system, BlinkMacSystemFont, &quot;Segoe UI&quot;, Arial, sans-serif" font-size="13" fill="#0c831f"><tspan x="0" dy="0em"/></text></g></g><g class="edgeLabel"><g class="label" data-id="L_Login_Forgot_0" transform="translate(0, 0)"><text x="0" y="0" text-anchor="middle" dominant-baseline="central" font-family="-apple-system, BlinkMacSystemFont, &quot;Segoe UI&quot;, Arial, sans-serif" font-size="13" fill="#0c831f"><tspan x="0" dy="0em"/></text></g></g><g class="edgeLabel"><g class="label" data-id="L_Forgot_Reset_0" transform="translate(0, 0)"><text x="0" y="0" text-anchor="middle" dominant-baseline="central" font-family="-apple-system, BlinkMacSystemFont, &quot;Segoe UI&quot;, Arial, sans-serif" font-size="13" fill="#0c831f"><tspan x="0" dy="0em"/></text></g></g><g class="edgeLabel"><g class="label" data-id="L_Login_Tabs_0" transform="translate(0, 0)"><text x="0" y="0" text-anchor="middle" dominant-baseline="central" font-family="-apple-system, BlinkMacSystemFont, &quot;Segoe UI&quot;, Arial, sans-serif" font-size="13" fill="#0c831f"><tspan x="0" dy="0em"/></text></g></g><g class="edgeLabel"><g class="label" data-id="L_Tabs_Home_0" transform="translate(0, 0)"><text x="0" y="0" text-anchor="middle" dominant-baseline="central" font-family="-apple-system, BlinkMacSystemFont, &quot;Segoe UI&quot;, Arial, sans-serif" font-size="13" fill="#0c831f"><tspan x="0" dy="0em"/></text></g></g><g class="edgeLabel"><g class="label" data-id="L_Tabs_Search_0" transform="translate(0, 0)"><text x="0" y="0" text-anchor="middle" dominant-baseline="central" font-family="-apple-system, BlinkMacSystemFont, &quot;Segoe UI&quot;, Arial, sans-serif" font-size="13" fill="#0c831f"><tspan x="0" dy="0em"/></text></g></g><g class="edgeLabel"><g class="label" data-id="L_Tabs_Cart_0" transform="translate(0, 0)"><text x="0" y="0" text-anchor="middle" dominant-baseline="central" font-family="-apple-system, BlinkMacSystemFont, &quot;Segoe UI&quot;, Arial, sans-serif" font-size="13" fill="#0c831f"><tspan x="0" dy="0em"/></text></g></g><g class="edgeLabel"><g class="label" data-id="L_Tabs_Wishlist_0" transform="translate(0, 0)"><text x="0" y="0" text-anchor="middle" dominant-baseline="central" font-family="-apple-system, BlinkMacSystemFont, &quot;Segoe UI&quot;, Arial, sans-serif" font-size="13" fill="#0c831f"><tspan x="0" dy="0em"/></text></g></g><g class="edgeLabel"><g class="label" data-id="L_Tabs_Account_0" transform="translate(0, 0)"><text x="0" y="0" text-anchor="middle" dominant-baseline="central" font-family="-apple-system, BlinkMacSystemFont, &quot;Segoe UI&quot;, Arial, sans-serif" font-size="13" fill="#0c831f"><tspan x="0" dy="0em"/></text></g></g></g><g class="nodes"><g class="node default root" id="mermaid-1778921817045-flowchart-Splash-0" data-look="classic" transform="translate(38.13995933532715, 268)"><g class="basic label-container outer-path"><path d="M-13.6484375 -16.5 C-5.136090991015795 -16.5, 3.37625551796841 -16.5, 13.6484375 -16.5 C13.6484375 -16.5, 13.6484375 -16.5, 13.648437499999998 -16.5 C13.86288348325702 -16.493123134710732, 14.077329466514042 -16.486246269421464, 14.705596129681762 -16.46609898038055 C15.071902468704787 -16.430761848402827, 15.43820880772781 -16.3954247164251, 15.758410667794347 -16.36453522808356 C16.082080958252327 -16.312206725622907, 16.405751248710303 -16.25987822316225, 16.80255487357264 -16.19572609035258 C17.116770516930142 -16.124008420204927, 17.430986160287645 -16.052290750057274, 17.833738134506866 -15.960365240143986 C18.048989722325892 -15.89647969875794, 18.26424131014492 -15.832594157371894, 18.84772309738974 -15.659419825676032 C19.214797563516502 -15.524333028942216, 19.581872029643264 -15.3892462322084, 19.840343080509673 -15.294126496209358 C20.138525380151393 -15.162130037421615, 20.436707679793113 -15.030133578633874, 20.80751919543971 -14.865986320389917 C21.164246781493013 -14.67988176724083, 21.52097436754632 -14.493777214091745, 21.74527710806497 -14.376758618035927 C21.93869502689024 -14.25950753899419, 22.132112945715512 -14.142256459952455, 22.649763369974053 -13.828453730715372 C22.954613783744445 -13.615803278830862, 23.259464197514838 -13.403152826946354, 23.51726125310506 -13.223324760821285 C23.818722379457142 -12.982917534772984, 24.120183505809223 -12.742510308724684, 24.344206022578504 -12.56385831309072 C24.60864941789804 -12.323697818250345, 24.87309281321758 -12.083537323409969, 25.127199584957523 -11.852764276612506 C25.403996566295042 -11.566948667926715, 25.68079354763256 -11.281133059240926, 25.863024451742703 -11.092964689311732 C26.025701748928892 -10.901874679436396, 26.18837904611508 -10.71078466956106, 26.54865696072249 -10.287581730669105 C26.787090899274723 -9.968101974787775, 27.025524837826953 -9.648622218906445, 27.181279700849768 -9.439924892015803 C27.404366340149963 -9.097203906900258, 27.62745297945016 -8.754482921784714, 27.75829308958821 -8.553477377123665 C27.88617675070107 -8.326406987192891, 28.014060411813926 -8.09933659726212, 28.277326055154504 -7.631881788973782 C28.45577383118568 -7.261331163874295, 28.63422160721686 -6.890780538774807, 28.736245779760907 -6.678925161519502 C28.869870973345748 -6.348868349897572, 29.003496166930592 -6.018811538275642, 29.13316646382104 -5.6985233979515835 C29.204914083239586 -5.48243099969366, 29.27666170265813 -5.266338601435737, 29.4664570751049 -4.69470517941204 C29.566335546999284 -4.313825278475211, 29.666214018893665 -3.9329453775383834, 29.73474805100009 -3.6715954102791892 C29.787754544719498 -3.3994182679564324, 29.84076103843891 -3.127241125633675, 29.936936926338426 -2.6333982680507635 C29.965850993959563 -2.4091464693096833, 29.9947650615807 -2.184894670568603, 30.07219286366177 -1.584379927476752 C30.093120799719344 -1.2584104306540824, 30.11404873577692 -0.9324409338314127, 30.13996006731135 -0.5288510299323103 C30.13996006731135 -0.2224036622797192, 30.13996006731135 0.08404370537287187, 30.13996006731135 0.5288510299323063 C30.122838566391206 0.7955322269903358, 30.10571706547106 1.0622134240483652, 30.07219286366177 1.5843799274767407 C30.040665740277205 1.828898070712733, 30.009138616892642 2.073416213948725, 29.93693692633843 2.633398268050752 C29.878542716695584 2.9332401929461795, 29.82014850705274 3.2330821178416076, 29.73474805100009 3.6715954102791857 C29.66771259717359 3.9272306490690947, 29.60067714334709 4.182865887859004, 29.466457075104902 4.694705179412029 C29.38681107184269 4.934586251370513, 29.307165068580478 5.174467323328997, 29.13316646382105 5.698523397951573 C29.052737079240742 5.8971855328612985, 28.972307694660433 6.095847667771023, 28.736245779760907 6.678925161519498 C28.59344228743969 6.975459668829756, 28.450638795118476 7.271994176140013, 28.277326055154504 7.631881788973778 C28.105248918509226 7.937422169787028, 27.933171781863944 8.242962550600277, 27.758293089588214 8.553477377123661 C27.614644923259533 8.774159535538173, 27.47099675693085 8.994841693952687, 27.181279700849775 9.439924892015794 C26.971874928409857 9.72050820991806, 26.762470155969936 10.001091527820327, 26.548656960722493 10.2875817306691 C26.3429424456111 10.529225705606454, 26.137227930499705 10.770869680543809, 25.86302445174271 11.09296468931172 C25.65121288722372 11.311677519730436, 25.439401322704732 11.530390350149151, 25.12719958495753 11.852764276612502 C24.964141713481382 12.000849121212275, 24.801083842005237 12.148933965812047, 24.34420602257852 12.563858313090709 C24.10896811254338 12.751454286400046, 23.87373020250824 12.939050259709383, 23.51726125310507 13.223324760821283 C23.17216593855376 13.46404831331688, 22.827070624002456 13.704771865812479, 22.64976336997406 13.828453730715367 C22.398640710418995 13.980685762698203, 22.14751805086393 14.132917794681038, 21.745277108064975 14.376758618035925 C21.416118865039785 14.54848026258625, 21.086960622014594 14.720201907136573, 20.80751919543971 14.865986320389915 C20.44242373993758 15.027603248368816, 20.07732828443545 15.18922017634772, 19.84034308050968 15.294126496209357 C19.621428657605453 15.374689027460855, 19.402514234701222 15.455251558712353, 18.847723097389753 15.659419825676029 C18.53524494224195 15.752161701892591, 18.222766787094145 15.844903578109152, 17.833738134506888 15.960365240143982 C17.60317881749518 16.012988899711754, 17.37261950048347 16.06561255927953, 16.802554873572646 16.19572609035258 C16.446230657334386 16.253333826298412, 16.089906441096126 16.31094156224425, 15.758410667794358 16.36453522808356 C15.487935603687262 16.390627632224117, 15.217460539580166 16.41672003636467, 14.705596129681762 16.46609898038055 C14.308426317750646 16.47883544320504, 13.91125650581953 16.49157190602953, 13.648437500000004 16.5 C13.648437500000002 16.5, 13.648437500000002 16.5, 13.6484375 16.5 C7.938566525987418 16.5, 2.2286955519748357 16.5, -13.648437499999996 16.5 C-13.936274153005234 16.49076963877818, -14.22411080601047 16.481539277556358, -14.705596129681755 16.46609898038055 C-15.02137785087936 16.435635897519703, -15.337159572076963 16.40517281465885, -15.758410667794353 16.36453522808356 C-16.032131477766598 16.320282170263834, -16.305852287738844 16.276029112444103, -16.802554873572642 16.19572609035258 C-17.037682752974696 16.142059686231867, -17.272810632376753 16.088393282111152, -17.833738134506866 15.960365240143986 C-18.118715942068633 15.875785322738691, -18.403693749630396 15.791205405333397, -18.847723097389732 15.659419825676036 C-19.169494963520624 15.541004804513344, -19.49126682965151 15.422589783350652, -19.840343080509676 15.294126496209358 C-20.145378141450706 15.159096523274352, -20.450413202391736 15.024066550339345, -20.807519195439706 14.865986320389919 C-21.143804804108406 14.69054633374867, -21.480090412777102 14.515106347107423, -21.74527710806497 14.376758618035929 C-21.94418194112919 14.256181339337854, -22.14308677419341 14.135604060639778, -22.649763369974043 13.828453730715378 C-22.858441402193144 13.682888968965752, -23.06711943441225 13.537324207216127, -23.51726125310506 13.223324760821287 C-23.82980866394289 12.97407651791402, -24.142356074780725 12.724828275006752, -24.344206022578504 12.563858313090721 C-24.647648818402665 12.28827959457964, -24.951091614226822 12.012700876068559, -25.127199584957516 11.852764276612513 C-25.344585757455654 11.628295205771503, -25.561971929953792 11.40382613493049, -25.86302445174271 11.092964689311726 C-26.080348769007166 10.837683180148925, -26.297673086271626 10.582401670986123, -26.54865696072249 10.287581730669107 C-26.704163804875343 10.079216726469227, -26.859670649028196 9.870851722269347, -27.181279700849768 9.439924892015805 C-27.338661340890784 9.198144430025092, -27.4960429809318 8.956363968034378, -27.758293089588207 8.553477377123672 C-27.869748855135448 8.355576379274456, -27.981204620682693 8.157675381425243, -28.2773260551545 7.631881788973784 C-28.38852504591452 7.400974705383358, -28.499724036674536 7.1700676217929304, -28.736245779760907 6.678925161519504 C-28.89058188949553 6.297711986589296, -29.044917999230147 5.916498811659088, -29.13316646382104 5.698523397951585 C-29.231652688609675 5.401898580537177, -29.330138913398308 5.105273763122769, -29.4664570751049 4.694705179412035 C-29.5714704590511 4.294243633336669, -29.676483842997303 3.893782087261302, -29.73474805100009 3.6715954102791915 C-29.80257927111425 3.3232964311264266, -29.87041049122841 2.9749974519736617, -29.936936926338426 2.6333982680507653 C-29.967360773266186 2.3974369191471503, -29.99778462019395 2.1614755702435353, -30.07219286366177 1.5843799274767614 C-30.094998929750982 1.2291570394120743, -30.117804995840192 0.8739341513473872, -30.13996006731135 0.5288510299323123 C-30.13996006731135 0.15466464869897184, -30.13996006731135 -0.21952173253436857, -30.13996006731135 -0.5288510299323043 C-30.12307733663917 -0.7918131876464365, -30.106194605966987 -1.0547753453605688, -30.07219286366177 -1.5843799274767387 C-30.018217027787063 -2.003005851786603, -29.964241191912357 -2.421631776096467, -29.93693692633843 -2.6333982680507573 C-29.860269975838815 -3.0270668553005393, -29.783603025339204 -3.4207354425503214, -29.73474805100009 -3.671595410279184 C-29.659182784422164 -3.959758521934523, -29.583617517844235 -4.247921633589862, -29.466457075104906 -4.694705179412027 C-29.38132283034166 -4.951115960339089, -29.296188585578413 -5.2075267412661495, -29.13316646382105 -5.698523397951565 C-29.02397892016724 -5.968218741774019, -28.91479137651343 -6.237914085596474, -28.736245779760907 -6.678925161519495 C-28.614637135151966 -6.931448114058119, -28.49302849054303 -7.183971066596744, -28.277326055154504 -7.631881788973776 C-28.17251164360407 -7.817990390291637, -28.067697232053643 -8.004098991609498, -27.75829308958821 -8.553477377123667 C-27.5652481131766 -8.850046300726323, -27.372203136764995 -9.14661522432898, -27.18127970084977 -9.4399248920158 C-27.004187978874363 -9.67721166607508, -26.827096256898955 -9.914498440134361, -26.548656960722496 -10.2875817306691 C-26.28749970547909 -10.594351902946801, -26.026342450235685 -10.901122075224503, -25.863024451742714 -11.09296468931172 C-25.662665503512347 -11.29985175313515, -25.462306555281977 -11.50673881695858, -25.127199584957534 -11.852764276612497 C-24.853018794441255 -12.101768016133198, -24.57883800392497 -12.350771755653897, -24.344206022578522 -12.563858313090707 C-24.078542472211737 -12.77571792490424, -23.81287892184495 -12.987577536717772, -23.51726125310507 -13.223324760821281 C-23.21708670765909 -13.432713529377757, -22.91691216221311 -13.642102297934233, -22.64976336997406 -13.828453730715365 C-22.403074718950332 -13.977997840669378, -22.156386067926604 -14.12754195062339, -21.745277108064975 -14.376758618035923 C-21.551563665944087 -14.47781879671101, -21.3578502238232 -14.578878975386097, -20.807519195439713 -14.865986320389915 C-20.550916545681808 -14.979576701590583, -20.294313895923903 -15.093167082791252, -19.840343080509683 -15.294126496209355 C-19.515323748294186 -15.41373661491043, -19.19030441607869 -15.533346733611506, -18.847723097389753 -15.659419825676029 C-18.519471997877886 -15.75684302898597, -18.19122089836602 -15.85426623229591, -17.833738134506888 -15.96036524014398 C-17.569494605317686 -16.020677101331238, -17.30525107612848 -16.080988962518497, -16.80255487357265 -16.195726090352576 C-16.491203171842926 -16.24606301891973, -16.1798514701132 -16.296399947486883, -15.75841066779436 -16.36453522808356 C-15.388092730226491 -16.400259354148254, -15.01777479265862 -16.435983480212947, -14.705596129681764 -16.46609898038055 C-14.288346854914463 -16.479479352495893, -13.871097580147163 -16.492859724611236, -13.648437500000005 -16.5 C-13.648437500000004 -16.5, -13.648437500000002 -16.5, -13.6484375 -16.5" stroke="none" stroke-width="0" fill="#11ab3a" style="fill:#11ab3a !important;stroke:#0c831f !important"/><path d="M-13.6484375 -16.5 C-6.468399116007764 -16.5, 0.7116392679844719 -16.5, 13.6484375 -16.5 M-13.6484375 -16.5 C-3.185197499553011 -16.5, 7.278042500893978 -16.5, 13.6484375 -16.5 M13.6484375 -16.5 C13.6484375 -16.5, 13.648437499999998 -16.5, 13.648437499999998 -16.5 M13.6484375 -16.5 C13.6484375 -16.5, 13.6484375 -16.5, 13.648437499999998 -16.5 M13.648437499999998 -16.5 C13.940376159470267 -16.49063809541492, 14.232314818940534 -16.481276190829835, 14.705596129681762 -16.46609898038055 M13.648437499999998 -16.5 C13.8601363028319 -16.493211231439904, 14.071835105663803 -16.48642246287981, 14.705596129681762 -16.46609898038055 M14.705596129681762 -16.46609898038055 C15.040887940162298 -16.43375378267089, 15.376179750642834 -16.401408584961235, 15.758410667794347 -16.36453522808356 M14.705596129681762 -16.46609898038055 C14.997428318521314 -16.437946280102757, 15.289260507360867 -16.40979357982496, 15.758410667794347 -16.36453522808356 M15.758410667794347 -16.36453522808356 C16.06194157483376 -16.315462704950768, 16.365472481873173 -16.266390181817975, 16.80255487357264 -16.19572609035258 M15.758410667794347 -16.36453522808356 C16.037811960782793 -16.31936379382258, 16.317213253771236 -16.274192359561596, 16.80255487357264 -16.19572609035258 M16.80255487357264 -16.19572609035258 C17.162418768888337 -16.11358950457815, 17.522282664204035 -16.031452918803723, 17.833738134506866 -15.960365240143986 M16.80255487357264 -16.19572609035258 C17.129169102723065 -16.121178523906025, 17.45578333187349 -16.04663095745947, 17.833738134506866 -15.960365240143986 M17.833738134506866 -15.960365240143986 C18.193020498593878 -15.853732120394575, 18.55230286268089 -15.747099000645163, 18.84772309738974 -15.659419825676032 M17.833738134506866 -15.960365240143986 C18.21645306134048 -15.846777458771415, 18.599167988174095 -15.733189677398844, 18.84772309738974 -15.659419825676032 M18.84772309738974 -15.659419825676032 C19.242512183155803 -15.514133792723817, 19.63730126892187 -15.368847759771601, 19.840343080509673 -15.294126496209358 M18.84772309738974 -15.659419825676032 C19.057018966629762 -15.582397011085897, 19.266314835869785 -15.505374196495762, 19.840343080509673 -15.294126496209358 M19.840343080509673 -15.294126496209358 C20.19800180945401 -15.135801586474937, 20.555660538398346 -14.977476676740515, 20.80751919543971 -14.865986320389917 M19.840343080509673 -15.294126496209358 C20.216980520727112 -15.127400273977802, 20.593617960944552 -14.960674051746244, 20.80751919543971 -14.865986320389917 M20.80751919543971 -14.865986320389917 C21.087106067759393 -14.720126028184676, 21.366692940079073 -14.574265735979436, 21.74527710806497 -14.376758618035927 M20.80751919543971 -14.865986320389917 C21.15500198983497 -14.684704769127261, 21.50248478423023 -14.503423217864604, 21.74527710806497 -14.376758618035927 M21.74527710806497 -14.376758618035927 C21.932457654077982 -14.263288671047853, 22.119638200090996 -14.149818724059777, 22.649763369974053 -13.828453730715372 M21.74527710806497 -14.376758618035927 C21.964469757853166 -14.243882745615332, 22.183662407641368 -14.111006873194738, 22.649763369974053 -13.828453730715372 M22.649763369974053 -13.828453730715372 C22.86536241607699 -13.678061169286245, 23.080961462179925 -13.52766860785712, 23.51726125310506 -13.223324760821285 M22.649763369974053 -13.828453730715372 C22.959713023736384 -13.61224626975503, 23.269662677498715 -13.396038808794685, 23.51726125310506 -13.223324760821285 M23.51726125310506 -13.223324760821285 C23.695720277804526 -13.081008437617555, 23.874179302503986 -12.938692114413827, 24.344206022578504 -12.56385831309072 M23.51726125310506 -13.223324760821285 C23.75391001450723 -13.034603671091075, 23.9905587759094 -12.845882581360863, 24.344206022578504 -12.56385831309072 M24.344206022578504 -12.56385831309072 C24.56031758355216 -12.367591511413012, 24.776429144525817 -12.171324709735305, 25.127199584957523 -11.852764276612506 M24.344206022578504 -12.56385831309072 C24.54428439455412 -12.3821524294461, 24.744362766529733 -12.200446545801478, 25.127199584957523 -11.852764276612506 M25.127199584957523 -11.852764276612506 C25.2753885672776 -11.699746985825312, 25.423577549597677 -11.546729695038119, 25.863024451742703 -11.092964689311732 M25.127199584957523 -11.852764276612506 C25.372746510219283 -11.599216916502254, 25.618293435481043 -11.345669556392004, 25.863024451742703 -11.092964689311732 M25.863024451742703 -11.092964689311732 C26.088103534467407 -10.828573991380669, 26.313182617192112 -10.564183293449608, 26.54865696072249 -10.287581730669105 M25.863024451742703 -11.092964689311732 C26.027052148146126 -10.900288423675939, 26.191079844549552 -10.707612158040147, 26.54865696072249 -10.287581730669105 M26.54865696072249 -10.287581730669105 C26.676741866905523 -10.115959625158842, 26.804826773088557 -9.944337519648581, 27.181279700849768 -9.439924892015803 M26.54865696072249 -10.287581730669105 C26.78035746447275 -9.977124163993885, 27.012057968223015 -9.666666597318665, 27.181279700849768 -9.439924892015803 M27.181279700849768 -9.439924892015803 C27.392098336375405 -9.116050855118258, 27.60291697190104 -8.792176818220714, 27.75829308958821 -8.553477377123665 M27.181279700849768 -9.439924892015803 C27.364051534611697 -9.15913827424811, 27.54682336837363 -8.878351656480417, 27.75829308958821 -8.553477377123665 M27.75829308958821 -8.553477377123665 C27.96452863427961 -8.187285283910645, 28.17076417897101 -7.821093190697626, 28.277326055154504 -7.631881788973782 M27.75829308958821 -8.553477377123665 C27.939462769439885 -8.231792265127622, 28.120632449291563 -7.910107153131579, 28.277326055154504 -7.631881788973782 M28.277326055154504 -7.631881788973782 C28.417395604992148 -7.341024371727662, 28.55746515482979 -7.050166954481542, 28.736245779760907 -6.678925161519502 M28.277326055154504 -7.631881788973782 C28.454648299288372 -7.263668354941577, 28.631970543422245 -6.895454920909372, 28.736245779760907 -6.678925161519502 M28.736245779760907 -6.678925161519502 C28.859182948356736 -6.375267978259336, 28.98212011695257 -6.071610794999169, 29.13316646382104 -5.6985233979515835 M28.736245779760907 -6.678925161519502 C28.8792300394702 -6.325751275624941, 29.022214299179495 -5.97257738973038, 29.13316646382104 -5.6985233979515835 M29.13316646382104 -5.6985233979515835 C29.199849193548697 -5.4976856404620325, 29.266531923276357 -5.296847882972482, 29.4664570751049 -4.69470517941204 M29.13316646382104 -5.6985233979515835 C29.263074450600232 -5.307261239799503, 29.392982437379427 -4.915999081647424, 29.4664570751049 -4.69470517941204 M29.4664570751049 -4.69470517941204 C29.521101765429574 -4.486321292045448, 29.575746455754253 -4.277937404678855, 29.73474805100009 -3.6715954102791892 M29.4664570751049 -4.69470517941204 C29.54513090737728 -4.394687759502847, 29.623804739649664 -4.0946703395936535, 29.73474805100009 -3.6715954102791892 M29.73474805100009 -3.6715954102791892 C29.800599373074032 -3.3334627891113464, 29.86645069514797 -2.9953301679435036, 29.936936926338426 -2.6333982680507635 M29.73474805100009 -3.6715954102791892 C29.79455505189185 -3.3644991009141103, 29.85436205278361 -3.0574027915490314, 29.936936926338426 -2.6333982680507635 M29.936936926338426 -2.6333982680507635 C29.989244134115406 -2.227713893758999, 30.041551341892383 -1.8220295194672345, 30.07219286366177 -1.584379927476752 M29.936936926338426 -2.6333982680507635 C29.975858125383372 -2.3315331341182413, 30.014779324428318 -2.0296680001857195, 30.07219286366177 -1.584379927476752 M30.07219286366177 -1.584379927476752 C30.08900051924469 -1.322587124877386, 30.105808174827608 -1.0607943222780198, 30.13996006731135 -0.5288510299323103 M30.07219286366177 -1.584379927476752 C30.09722535372239 -1.1944786889202736, 30.122257843783014 -0.8045774503637952, 30.13996006731135 -0.5288510299323103 M30.13996006731135 -0.5288510299323103 C30.13996006731135 -0.2234308732741302, 30.13996006731135 0.08198928338404987, 30.13996006731135 0.5288510299323063 M30.13996006731135 -0.5288510299323103 C30.13996006731135 -0.30788668928882945, 30.13996006731135 -0.08692234864534865, 30.13996006731135 0.5288510299323063 M30.13996006731135 0.5288510299323063 C30.12344008302721 0.786163119849123, 30.106920098743064 1.0434752097659397, 30.07219286366177 1.5843799274767407 M30.13996006731135 0.5288510299323063 C30.113123578157047 0.9468510105347183, 30.086287089002745 1.3648509911371303, 30.07219286366177 1.5843799274767407 M30.07219286366177 1.5843799274767407 C30.020949016047947 1.9818170903272903, 29.969705168434125 2.37925425317784, 29.93693692633843 2.633398268050752 M30.07219286366177 1.5843799274767407 C30.032212095514932 1.8944628701279638, 29.992231327368092 2.2045458127791866, 29.93693692633843 2.633398268050752 M29.93693692633843 2.633398268050752 C29.892330609619354 2.8624422768548214, 29.84772429290028 3.0914862856588914, 29.73474805100009 3.6715954102791857 M29.93693692633843 2.633398268050752 C29.89400823536178 2.8538280232337914, 29.851079544385133 3.074257778416831, 29.73474805100009 3.6715954102791857 M29.73474805100009 3.6715954102791857 C29.68029530504126 3.879247330589592, 29.62584255908243 4.086899250899998, 29.466457075104902 4.694705179412029 M29.73474805100009 3.6715954102791857 C29.658669488740948 3.961715940830746, 29.58259092648181 4.2518364713823065, 29.466457075104902 4.694705179412029 M29.466457075104902 4.694705179412029 C29.394241497984755 4.912206991708239, 29.32202592086461 5.1297088040044505, 29.13316646382105 5.698523397951573 M29.466457075104902 4.694705179412029 C29.39202536011559 4.918881645876549, 29.317593645126276 5.143058112341071, 29.13316646382105 5.698523397951573 M29.13316646382105 5.698523397951573 C29.03394259740443 5.943608266363573, 28.93471873098781 6.188693134775573, 28.736245779760907 6.678925161519498 M29.13316646382105 5.698523397951573 C29.049037964843684 5.906322416939538, 28.96490946586632 6.114121435927503, 28.736245779760907 6.678925161519498 M28.736245779760907 6.678925161519498 C28.5805391089804 7.002253394984263, 28.424832438199896 7.325581628449028, 28.277326055154504 7.631881788973778 M28.736245779760907 6.678925161519498 C28.57301835878943 7.017870393674094, 28.40979093781795 7.356815625828689, 28.277326055154504 7.631881788973778 M28.277326055154504 7.631881788973778 C28.08561563361082 7.972283055209817, 27.89390521206714 8.312684321445856, 27.758293089588214 8.553477377123661 M28.277326055154504 7.631881788973778 C28.12359396207566 7.904848687297727, 27.969861868996812 8.177815585621675, 27.758293089588214 8.553477377123661 M27.758293089588214 8.553477377123661 C27.609817413901535 8.781575886279832, 27.461341738214852 9.009674395436004, 27.181279700849775 9.439924892015794 M27.758293089588214 8.553477377123661 C27.59573842499119 8.803204993983996, 27.433183760394165 9.052932610844332, 27.181279700849775 9.439924892015794 M27.181279700849775 9.439924892015794 C27.008482431182 9.6714574912155, 26.83568516151422 9.902990090415209, 26.548656960722493 10.2875817306691 M27.181279700849775 9.439924892015794 C26.955424296231186 9.74255055835406, 26.729568891612594 10.045176224692323, 26.548656960722493 10.2875817306691 M26.548656960722493 10.2875817306691 C26.298155951089267 10.58183447049553, 26.047654941456045 10.876087210321959, 25.86302445174271 11.09296468931172 M26.548656960722493 10.2875817306691 C26.31190416271908 10.56568503881975, 26.07515136471567 10.843788346970397, 25.86302445174271 11.09296468931172 M25.86302445174271 11.09296468931172 C25.71578532190955 11.245001179421836, 25.56854619207639 11.397037669531949, 25.12719958495753 11.852764276612502 M25.86302445174271 11.09296468931172 C25.60660735269908 11.35773639630962, 25.35019025365545 11.622508103307519, 25.12719958495753 11.852764276612502 M25.12719958495753 11.852764276612502 C24.831400869875388 12.121400843244976, 24.53560215479325 12.390037409877447, 24.34420602257852 12.563858313090709 M25.12719958495753 11.852764276612502 C24.85535992232616 12.099641865730975, 24.58352025969479 12.346519454849448, 24.34420602257852 12.563858313090709 M24.34420602257852 12.563858313090709 C24.085897216617532 12.769852711958587, 23.827588410656542 12.975847110826463, 23.51726125310507 13.223324760821283 M24.34420602257852 12.563858313090709 C24.113102347391198 12.74815734412552, 23.88199867220388 12.93245637516033, 23.51726125310507 13.223324760821283 M23.51726125310507 13.223324760821283 C23.296987439080397 13.37697823798517, 23.076713625055724 13.530631715149058, 22.64976336997406 13.828453730715367 M23.51726125310507 13.223324760821283 C23.2174271750658 13.432476034053431, 22.917593097026533 13.64162730728558, 22.64976336997406 13.828453730715367 M22.64976336997406 13.828453730715367 C22.377594226695948 13.99344426481398, 22.105425083417835 14.158434798912594, 21.745277108064975 14.376758618035925 M22.64976336997406 13.828453730715367 C22.381768371672713 13.990913873599066, 22.113773373371366 14.153374016482765, 21.745277108064975 14.376758618035925 M21.745277108064975 14.376758618035925 C21.55399554632571 14.476550086273612, 21.362713984586446 14.576341554511298, 20.80751919543971 14.865986320389915 M21.745277108064975 14.376758618035925 C21.500245665337193 14.504591364756878, 21.255214222609414 14.632424111477832, 20.80751919543971 14.865986320389915 M20.80751919543971 14.865986320389915 C20.468584478531774 15.016022665423904, 20.129649761623842 15.166059010457895, 19.84034308050968 15.294126496209357 M20.80751919543971 14.865986320389915 C20.426787807459956 15.034524811853204, 20.0460564194802 15.203063303316494, 19.84034308050968 15.294126496209357 M19.84034308050968 15.294126496209357 C19.627685239385617 15.372386547530546, 19.415027398261554 15.450646598851735, 18.847723097389753 15.659419825676029 M19.84034308050968 15.294126496209357 C19.515973426090017 15.413497527476009, 19.191603771670355 15.532868558742662, 18.847723097389753 15.659419825676029 M18.847723097389753 15.659419825676029 C18.51785984977609 15.757321506080244, 18.18799660216243 15.85522318648446, 17.833738134506888 15.960365240143982 M18.847723097389753 15.659419825676029 C18.61587511015907 15.728231091291176, 18.384027122928387 15.797042356906324, 17.833738134506888 15.960365240143982 M17.833738134506888 15.960365240143982 C17.50490402244996 16.035419480377854, 17.176069910393032 16.11047372061173, 16.802554873572646 16.19572609035258 M17.833738134506888 15.960365240143982 C17.544592869181137 16.026360760105394, 17.25544760385539 16.092356280066802, 16.802554873572646 16.19572609035258 M16.802554873572646 16.19572609035258 C16.57633189732842 16.232300066766363, 16.350108921084193 16.268874043180148, 15.758410667794358 16.36453522808356 M16.802554873572646 16.19572609035258 C16.418462330610826 16.25782319401649, 16.034369787649005 16.319920297680397, 15.758410667794358 16.36453522808356 M15.758410667794358 16.36453522808356 C15.53737656984215 16.385858121680617, 15.316342471889945 16.40718101527767, 14.705596129681762 16.46609898038055 M15.758410667794358 16.36453522808356 C15.477140384780453 16.391669034008906, 15.195870101766548 16.41880283993425, 14.705596129681762 16.46609898038055 M14.705596129681762 16.46609898038055 C14.398042479720223 16.475961627317954, 14.090488829758682 16.485824274255357, 13.648437500000004 16.5 M14.705596129681762 16.46609898038055 C14.476554633519019 16.473443895360262, 14.247513137356275 16.480788810339973, 13.648437500000004 16.5 M13.648437500000004 16.5 C13.648437500000002 16.5, 13.6484375 16.5, 13.6484375 16.5 M13.648437500000004 16.5 C13.648437500000002 16.5, 13.648437500000002 16.5, 13.6484375 16.5 M13.6484375 16.5 C5.276255586963591 16.5, -3.095926326072817 16.5, -13.648437499999996 16.5 M13.6484375 16.5 C3.84320557022685 16.5, -5.9620263595463 16.5, -13.648437499999996 16.5 M-13.648437499999996 16.5 C-14.05618793711788 16.48692423711971, -14.463938374235761 16.473848474239418, -14.705596129681755 16.46609898038055 M-13.648437499999996 16.5 C-13.97298346644087 16.48959244254664, -14.297529432881744 16.479184885093286, -14.705596129681755 16.46609898038055 M-14.705596129681755 16.46609898038055 C-15.014658380006827 16.43628411679343, -15.323720630331897 16.406469253206307, -15.758410667794353 16.36453522808356 M-14.705596129681755 16.46609898038055 C-15.042128395096785 16.433634117475226, -15.378660660511814 16.401169254569904, -15.758410667794353 16.36453522808356 M-15.758410667794353 16.36453522808356 C-16.075916965929142 16.313203272099244, -16.39342326406393 16.26187131611493, -16.802554873572642 16.19572609035258 M-15.758410667794353 16.36453522808356 C-15.97666962763971 16.32924881207928, -16.19492858748507 16.293962396074992, -16.802554873572642 16.19572609035258 M-16.802554873572642 16.19572609035258 C-17.037536518094033 16.142093063389105, -17.272518162615423 16.088460036425634, -17.833738134506866 15.960365240143986 M-16.802554873572642 16.19572609035258 C-17.118897003668085 16.123523063483614, -17.43523913376353 16.051320036614648, -17.833738134506866 15.960365240143986 M-17.833738134506866 15.960365240143986 C-18.042354608347726 15.898448965758236, -18.250971082188588 15.836532691372486, -18.847723097389732 15.659419825676036 M-17.833738134506866 15.960365240143986 C-18.224473299894584 15.844397094067649, -18.6152084652823 15.728428947991311, -18.847723097389732 15.659419825676036 M-18.847723097389732 15.659419825676036 C-19.20513965150488 15.527887229839253, -19.56255620562003 15.39635463400247, -19.840343080509676 15.294126496209358 M-18.847723097389732 15.659419825676036 C-19.08162744020426 15.573340865332247, -19.31553178301879 15.487261904988458, -19.840343080509676 15.294126496209358 M-19.840343080509676 15.294126496209358 C-20.114295920438323 15.172855700495209, -20.388248760366967 15.051584904781059, -20.807519195439706 14.865986320389919 M-19.840343080509676 15.294126496209358 C-20.104258355695237 15.177299032653192, -20.3681736308808 15.060471569097027, -20.807519195439706 14.865986320389919 M-20.807519195439706 14.865986320389919 C-21.05946270227259 14.734547554252721, -21.311406209105478 14.603108788115522, -21.74527710806497 14.376758618035929 M-20.807519195439706 14.865986320389919 C-21.17214291102118 14.6757623615237, -21.536766626602653 14.485538402657482, -21.74527710806497 14.376758618035929 M-21.74527710806497 14.376758618035929 C-21.999298721033874 14.222769223457481, -22.25332033400278 14.068779828879034, -22.649763369974043 13.828453730715378 M-21.74527710806497 14.376758618035929 C-21.990641737528577 14.228017137732476, -22.236006366992182 14.079275657429024, -22.649763369974043 13.828453730715378 M-22.649763369974043 13.828453730715378 C-22.872437286893806 13.673126045670655, -23.09511120381357 13.51779836062593, -23.51726125310506 13.223324760821287 M-22.649763369974043 13.828453730715378 C-22.93662902647839 13.62834866695207, -23.223494682982736 13.428243603188761, -23.51726125310506 13.223324760821287 M-23.51726125310506 13.223324760821287 C-23.688313283082383 13.086915318800056, -23.85936531305971 12.950505876778825, -24.344206022578504 12.563858313090721 M-23.51726125310506 13.223324760821287 C-23.72656742519897 13.056408658447555, -23.935873597292876 12.889492556073824, -24.344206022578504 12.563858313090721 M-24.344206022578504 12.563858313090721 C-24.564413010094817 12.363872153386021, -24.78461999761113 12.16388599368132, -25.127199584957516 11.852764276612513 M-24.344206022578504 12.563858313090721 C-24.606948308018815 12.325242721233758, -24.869690593459126 12.086627129376796, -25.127199584957516 11.852764276612513 M-25.127199584957516 11.852764276612513 C-25.35920697197362 11.613197601357665, -25.591214358989724 11.373630926102818, -25.86302445174271 11.092964689311726 M-25.127199584957516 11.852764276612513 C-25.274922306834153 11.700228438013866, -25.42264502871079 11.547692599415218, -25.86302445174271 11.092964689311726 M-25.86302445174271 11.092964689311726 C-26.008182705535656 10.922453544667903, -26.1533409593286 10.751942400024081, -26.54865696072249 10.287581730669107 M-25.86302445174271 11.092964689311726 C-26.02498920962796 10.902711668643907, -26.18695396751321 10.712458647976087, -26.54865696072249 10.287581730669107 M-26.54865696072249 10.287581730669107 C-26.744048983422395 10.025774220830694, -26.9394410061223 9.76396671099228, -27.181279700849768 9.439924892015805 M-26.54865696072249 10.287581730669107 C-26.68663714482199 10.102700854229143, -26.82461732892149 9.917819977789177, -27.181279700849768 9.439924892015805 M-27.181279700849768 9.439924892015805 C-27.374337773871147 9.143335848503607, -27.567395846892527 8.846746804991412, -27.758293089588207 8.553477377123672 M-27.181279700849768 9.439924892015805 C-27.301482820896 9.255260620567565, -27.421685940942233 9.070596349119327, -27.758293089588207 8.553477377123672 M-27.758293089588207 8.553477377123672 C-27.964605130989433 8.187149456256224, -28.17091717239066 7.820821535388774, -28.2773260551545 7.631881788973784 M-27.758293089588207 8.553477377123672 C-27.89527196269958 8.310257517299446, -28.032250835810956 8.06703765747522, -28.2773260551545 7.631881788973784 M-28.2773260551545 7.631881788973784 C-28.407411627471586 7.361756314672003, -28.537497199788668 7.091630840370221, -28.736245779760907 6.678925161519504 M-28.2773260551545 7.631881788973784 C-28.447640798017986 7.278219581266044, -28.61795554088147 6.9245573735583035, -28.736245779760907 6.678925161519504 M-28.736245779760907 6.678925161519504 C-28.848753160014184 6.401029757111684, -28.96126054026746 6.123134352703865, -29.13316646382104 5.698523397951585 M-28.736245779760907 6.678925161519504 C-28.83298946327867 6.439966392818753, -28.92973314679643 6.2010076241180005, -29.13316646382104 5.698523397951585 M-29.13316646382104 5.698523397951585 C-29.20404493941988 5.485048722399362, -29.274923415018716 5.271574046847138, -29.4664570751049 4.694705179412035 M-29.13316646382104 5.698523397951585 C-29.260284408061242 5.31566440339404, -29.38740235230144 4.9328054088364945, -29.4664570751049 4.694705179412035 M-29.4664570751049 4.694705179412035 C-29.555528937654866 4.3550355635195785, -29.644600800204838 4.015365947627123, -29.73474805100009 3.6715954102791915 M-29.4664570751049 4.694705179412035 C-29.54505061535627 4.394993947777738, -29.623644155607643 4.095282716143442, -29.73474805100009 3.6715954102791915 M-29.73474805100009 3.6715954102791915 C-29.78283595355662 3.424674194033203, -29.830923856113152 3.177752977787214, -29.936936926338426 2.6333982680507653 M-29.73474805100009 3.6715954102791915 C-29.781159658611447 3.4332816142916043, -29.827571266222808 3.1949678183040175, -29.936936926338426 2.6333982680507653 M-29.936936926338426 2.6333982680507653 C-29.982636629916076 2.278960391529703, -30.02833633349373 1.9245225150086407, -30.07219286366177 1.5843799274767614 M-29.936936926338426 2.6333982680507653 C-29.990670919532906 2.2166480278115186, -30.044404912727384 1.799897787572272, -30.07219286366177 1.5843799274767614 M-30.07219286366177 1.5843799274767614 C-30.085758893655218 1.3730780600264818, -30.099324923648666 1.1617761925762022, -30.13996006731135 0.5288510299323123 M-30.07219286366177 1.5843799274767614 C-30.09563820770674 1.2191997692352112, -30.119083551751714 0.8540196109936609, -30.13996006731135 0.5288510299323123 M-30.13996006731135 0.5288510299323123 C-30.13996006731135 0.17634440706115995, -30.13996006731135 -0.17616221580999236, -30.13996006731135 -0.5288510299323043 M-30.13996006731135 0.5288510299323123 C-30.13996006731135 0.29793483986019453, -30.13996006731135 0.06701864978807681, -30.13996006731135 -0.5288510299323043 M-30.13996006731135 -0.5288510299323043 C-30.117128159052637 -0.8844764306463869, -30.094296250793924 -1.2401018313604695, -30.07219286366177 -1.5843799274767387 M-30.13996006731135 -0.5288510299323043 C-30.11685156071793 -0.8887846729755837, -30.093743054124513 -1.2487183160188633, -30.07219286366177 -1.5843799274767387 M-30.07219286366177 -1.5843799274767387 C-30.023493388294806 -1.9620834416237645, -29.974793912927847 -2.33978695577079, -29.93693692633843 -2.6333982680507573 M-30.07219286366177 -1.5843799274767387 C-30.01922211478904 -1.9952105954761392, -29.96625136591631 -2.4060412634755393, -29.93693692633843 -2.6333982680507573 M-29.93693692633843 -2.6333982680507573 C-29.895430252873496 -2.8465262638546425, -29.853923579408562 -3.059654259658527, -29.73474805100009 -3.671595410279184 M-29.93693692633843 -2.6333982680507573 C-29.867221794821287 -2.9913707340930062, -29.797506663304148 -3.349343200135255, -29.73474805100009 -3.671595410279184 M-29.73474805100009 -3.671595410279184 C-29.632304387927853 -4.062257496938059, -29.529860724855617 -4.452919583596936, -29.466457075104906 -4.694705179412027 M-29.73474805100009 -3.671595410279184 C-29.65172965354212 -3.9881805401874884, -29.56871125608415 -4.304765670095793, -29.466457075104906 -4.694705179412027 M-29.466457075104906 -4.694705179412027 C-29.367960131809312 -4.991362279261639, -29.26946318851372 -5.28801937911125, -29.13316646382105 -5.698523397951565 M-29.466457075104906 -4.694705179412027 C-29.35495785596115 -5.030523062484975, -29.243458636817397 -5.366340945557922, -29.13316646382105 -5.698523397951565 M-29.13316646382105 -5.698523397951565 C-29.046046328338985 -5.9137118169454945, -28.958926192856925 -6.128900235939424, -28.736245779760907 -6.678925161519495 M-29.13316646382105 -5.698523397951565 C-29.014668229999113 -5.9912163264992415, -28.89616999617718 -6.283909255046918, -28.736245779760907 -6.678925161519495 M-28.736245779760907 -6.678925161519495 C-28.576380062551046 -7.010889743884153, -28.416514345341184 -7.34285432624881, -28.277326055154504 -7.631881788973776 M-28.736245779760907 -6.678925161519495 C-28.56998194254114 -7.024175576982558, -28.403718105321374 -7.369425992445622, -28.277326055154504 -7.631881788973776 M-28.277326055154504 -7.631881788973776 C-28.09546074802566 -7.954802057640332, -27.913595440896817 -8.27772232630689, -27.75829308958821 -8.553477377123667 M-28.277326055154504 -7.631881788973776 C-28.074108428346502 -7.9927152633875025, -27.8708908015385 -8.353548737801228, -27.75829308958821 -8.553477377123667 M-27.75829308958821 -8.553477377123667 C-27.630432865931205 -8.74990501593827, -27.502572642274203 -8.94633265475287, -27.18127970084977 -9.4399248920158 M-27.75829308958821 -8.553477377123667 C-27.605380104629088 -8.788392784906689, -27.45246711966996 -9.02330819268971, -27.18127970084977 -9.4399248920158 M-27.18127970084977 -9.4399248920158 C-27.036202925278715 -9.634314554514866, -26.89112614970766 -9.828704217013932, -26.548656960722496 -10.2875817306691 M-27.18127970084977 -9.4399248920158 C-26.932824490096802 -9.772832239689437, -26.684369279343837 -10.105739587363075, -26.548656960722496 -10.2875817306691 M-26.548656960722496 -10.2875817306691 C-26.299630717850814 -10.580102125540817, -26.05060447497913 -10.872622520412534, -25.863024451742714 -11.09296468931172 M-26.548656960722496 -10.2875817306691 C-26.2963316754149 -10.583977368506872, -26.044006390107306 -10.880373006344644, -25.863024451742714 -11.09296468931172 M-25.863024451742714 -11.09296468931172 C-25.59717376292206 -11.367477352266517, -25.331323074101412 -11.641990015221314, -25.127199584957534 -11.852764276612497 M-25.863024451742714 -11.09296468931172 C-25.688702604087947 -11.272966309105128, -25.51438075643318 -11.452967928898534, -25.127199584957534 -11.852764276612497 M-25.127199584957534 -11.852764276612497 C-24.84125451890539 -12.112452019909194, -24.555309452853248 -12.37213976320589, -24.344206022578522 -12.563858313090707 M-25.127199584957534 -11.852764276612497 C-24.931057465008255 -12.030895360314322, -24.734915345058976 -12.209026444016148, -24.344206022578522 -12.563858313090707 M-24.344206022578522 -12.563858313090707 C-24.041588249810243 -12.805187933876272, -23.738970477041963 -13.046517554661838, -23.51726125310507 -13.223324760821281 M-24.344206022578522 -12.563858313090707 C-24.0186229821404 -12.823502123711533, -23.69303994170228 -13.083145934332359, -23.51726125310507 -13.223324760821281 M-23.51726125310507 -13.223324760821281 C-23.23328777727137 -13.42141236454923, -22.94931430143767 -13.619499968277177, -22.64976336997406 -13.828453730715365 M-23.51726125310507 -13.223324760821281 C-23.22025452210304 -13.430503799154133, -22.923247791101012 -13.637682837486985, -22.64976336997406 -13.828453730715365 M-22.64976336997406 -13.828453730715365 C-22.405382151834004 -13.976599061295316, -22.161000933693945 -14.124744391875266, -21.745277108064975 -14.376758618035923 M-22.64976336997406 -13.828453730715365 C-22.338534049495728 -14.017122773775831, -22.0273047290174 -14.205791816836298, -21.745277108064975 -14.376758618035923 M-21.745277108064975 -14.376758618035923 C-21.54841996869744 -14.47945886155095, -21.351562829329907 -14.582159105065978, -20.807519195439713 -14.865986320389915 M-21.745277108064975 -14.376758618035923 C-21.437683824149886 -14.537229837231525, -21.1300905402348 -14.697701056427125, -20.807519195439713 -14.865986320389915 M-20.807519195439713 -14.865986320389915 C-20.55611644185271 -14.977274861805165, -20.304713688265704 -15.088563403220416, -19.840343080509683 -15.294126496209355 M-20.807519195439713 -14.865986320389915 C-20.510784901273954 -14.997341790107006, -20.214050607108195 -15.128697259824097, -19.840343080509683 -15.294126496209355 M-19.840343080509683 -15.294126496209355 C-19.58835769375263 -15.386859447863332, -19.336372306995578 -15.479592399517307, -18.847723097389753 -15.659419825676029 M-19.840343080509683 -15.294126496209355 C-19.548597076765926 -15.401491722457553, -19.25685107302217 -15.508856948705752, -18.847723097389753 -15.659419825676029 M-18.847723097389753 -15.659419825676029 C-18.56764998604671 -15.742544054988882, -18.28757687470367 -15.825668284301736, -17.833738134506888 -15.96036524014398 M-18.847723097389753 -15.659419825676029 C-18.619093008957567 -15.727276035818878, -18.39046292052538 -15.795132245961728, -17.833738134506888 -15.96036524014398 M-17.833738134506888 -15.96036524014398 C-17.602926036868723 -16.013046595240194, -17.37211393923056 -16.065727950336406, -16.80255487357265 -16.195726090352576 M-17.833738134506888 -15.96036524014398 C-17.54313363484294 -16.026693820820693, -17.252529135178985 -16.093022401497404, -16.80255487357265 -16.195726090352576 M-16.80255487357265 -16.195726090352576 C-16.507374315161023 -16.243448593877147, -16.2121937567494 -16.291171097401723, -15.75841066779436 -16.36453522808356 M-16.80255487357265 -16.195726090352576 C-16.57409117350946 -16.23266232961634, -16.345627473446267 -16.2695985688801, -15.75841066779436 -16.36453522808356 M-15.75841066779436 -16.36453522808356 C-15.523098670711954 -16.38723549343802, -15.28778667362955 -16.40993575879248, -14.705596129681764 -16.46609898038055 M-15.75841066779436 -16.36453522808356 C-15.440747456498753 -16.39517981603134, -15.123084245203147 -16.42582440397912, -14.705596129681764 -16.46609898038055 M-14.705596129681764 -16.46609898038055 C-14.413216026066099 -16.475475041220157, -14.120835922450436 -16.484851102059764, -13.648437500000005 -16.5 M-14.705596129681764 -16.46609898038055 C-14.403408764662352 -16.475789541004698, -14.101221399642938 -16.48548010162885, -13.648437500000005 -16.5 M-13.648437500000005 -16.5 C-13.648437500000004 -16.5, -13.648437500000002 -16.5, -13.6484375 -16.5 M-13.648437500000005 -16.5 C-13.648437500000004 -16.5, -13.648437500000002 -16.5, -13.6484375 -16.5" stroke="#0c831f" stroke-width="1.3" fill="none" stroke-dasharray="0 0" style="fill:#11ab3a !important;stroke:#0c831f !important"/></g><g class="label" style="color:#fff !important" transform="translate(-20.0234375, -10.5)"><rect/><text x="20.0234375" y="10.5" text-anchor="middle" dominant-baseline="central" font-family="-apple-system, BlinkMacSystemFont, &quot;Segoe UI&quot;, Arial, sans-serif" font-size="13" fill="#0c831f"><tspan x="20.0234375" dy="0em">Splash</tspan></text></g></g><g class="node default" id="mermaid-1778921817045-flowchart-OnboardCheck-1" data-look="classic" transform="translate(174.7955436706543, 268)"><polygon points="56.515625,0 113.03125,-56.515625 56.515625,-113.03125 0,-56.515625" class="label-container" transform="translate(-56.015625, 56.515625)"/><g class="label" style="" transform="translate(-23.515625, -21)"><rect/><text x="23.515625" y="21" text-anchor="middle" dominant-baseline="central" font-family="-apple-system, BlinkMacSystemFont, &quot;Segoe UI&quot;, Arial, sans-serif" font-size="13" fill="#0c831f"><tspan x="23.515625" dy="-0.6em">First</tspan><tspan x="23.515625" dy="1.2em">launch?</tspan></text></g></g><g class="node default root" id="mermaid-1778921817045-flowchart-Onboard-3" data-look="classic" transform="translate(370.4517936706543, 110.25)"><rect class="basic label-container" style="fill:#11ab3a !important;stroke:#0c831f !important" x="-61.3515625" y="-33" width="122.703125" height="66"/><g class="label" style="color:#fff !important" transform="translate(-37.3515625, -21)"><rect/><text x="37.3515625" y="21" text-anchor="middle" dominant-baseline="central" font-family="-apple-system, BlinkMacSystemFont, &quot;Segoe UI&quot;, Arial, sans-serif" font-size="13" fill="#0c831f"><tspan x="37.3515625" dy="-0.6em">Onboarding</tspan><tspan x="37.3515625" dy="1.2em">3 slides</tspan></text></g></g><g class="node default" id="mermaid-1778921817045-flowchart-AuthCheck-5" data-look="classic" transform="translate(370.4517936706543, 405.25)"><polygon points="69.09375,0 138.1875,-69.09375 69.09375,-138.1875 0,-69.09375" class="label-container" transform="translate(-68.59375, 69.09375)"/><g class="label" style="" transform="translate(-46.59375, -10.5)"><rect/><text x="46.59375" y="10.5" text-anchor="middle" dominant-baseline="central" font-family="-apple-system, BlinkMacSystemFont, &quot;Segoe UI&quot;, Arial, sans-serif" font-size="13" fill="#0c831f"><tspan x="46.59375" dy="0em">Authenticated?</tspan></text></g></g><g class="node default" id="mermaid-1778921817045-flowchart-Login-7" data-look="classic" transform="translate(546.8658561706543, 125.5)"><rect class="basic label-container" style="" x="-41.1796875" y="-22.5" width="82.359375" height="45"/><g class="label" style="" transform="translate(-17.1796875, -10.5)"><rect/><text x="17.1796875" y="10.5" text-anchor="middle" dominant-baseline="central" font-family="-apple-system, BlinkMacSystemFont, &quot;Segoe UI&quot;, Arial, sans-serif" font-size="13" fill="#0c831f"><tspan x="17.1796875" dy="0em">Login</tspan></text></g></g><g class="node default tab" id="mermaid-1778921817045-flowchart-Tabs-11" data-look="classic" transform="translate(713.8502311706543, 410.5)"><polygon points="-16.5,0 105.96875,0 122.46875,-33 0,-33" class="label-container" transform="translate(-52.984375,16.5)" style="fill:#ecfdf3 !important;stroke:#11ab3a !important"/><g class="label" style="color:#0c831f !important" transform="translate(-46.984375, -10.5)"><rect/><text x="46.984375" y="10.5" text-anchor="middle" dominant-baseline="central" font-family="-apple-system, BlinkMacSystemFont, &quot;Segoe UI&quot;, Arial, sans-serif" font-size="13" fill="#0c831f"><tspan x="46.984375" dy="0em">Bottom tab bar</tspan></text></g></g><g class="node default" id="mermaid-1778921817045-flowchart-Register-13" data-look="classic" transform="translate(713.8502311706543, 30.5)"><rect class="basic label-container" style="" x="-48.8984375" y="-22.5" width="97.796875" height="45"/><g class="label" style="" transform="translate(-24.8984375, -10.5)"><rect/><text x="24.8984375" y="10.5" text-anchor="middle" dominant-baseline="central" font-family="-apple-system, BlinkMacSystemFont, &quot;Segoe UI&quot;, Arial, sans-serif" font-size="13" fill="#0c831f"><tspan x="24.8984375" dy="0em">Register</tspan></text></g></g><g class="node default" id="mermaid-1778921817045-flowchart-Forgot-15" data-look="classic" transform="translate(713.8502311706543, 125.5)"><rect class="basic label-container" style="" x="-75.8046875" y="-22.5" width="151.609375" height="45"/><g class="label" style="" transform="translate(-51.8046875, -10.5)"><rect/><text x="51.8046875" y="10.5" text-anchor="middle" dominant-baseline="central" font-family="-apple-system, BlinkMacSystemFont, &quot;Segoe UI&quot;, Arial, sans-serif" font-size="13" fill="#0c831f"><tspan x="51.8046875" dy="0em">Forgot password</tspan></text></g></g><g class="node default" id="mermaid-1778921817045-flowchart-Reset-17" data-look="classic" transform="translate(911.5533561706543, 125.5)"><rect class="basic label-container" style="" x="-71.8984375" y="-22.5" width="143.796875" height="45"/><g class="label" style="" transform="translate(-47.8984375, -10.5)"><rect/><text x="47.8984375" y="10.5" text-anchor="middle" dominant-baseline="central" font-family="-apple-system, BlinkMacSystemFont, &quot;Segoe UI&quot;, Arial, sans-serif" font-size="13" fill="#0c831f"><tspan x="47.8984375" dy="0em">Reset password</tspan></text></g></g><g class="node default" id="mermaid-1778921817045-flowchart-Home-22" data-look="classic" transform="translate(911.5533561706543, 220.5)"><rect class="basic label-container" style="" x="-42.765625" y="-22.5" width="85.53125" height="45"/><g class="label" style="" transform="translate(-18.765625, -10.5)"><rect/><text x="18.765625" y="10.5" text-anchor="middle" dominant-baseline="central" font-family="-apple-system, BlinkMacSystemFont, &quot;Segoe UI&quot;, Arial, sans-serif" font-size="13" fill="#0c831f"><tspan x="18.765625" dy="0em">Home</tspan></text></g></g><g class="node default" id="mermaid-1778921817045-flowchart-Search-24" data-look="classic" transform="translate(911.5533561706543, 315.5)"><rect class="basic label-container" style="" x="-44.5703125" y="-22.5" width="89.140625" height="45"/><g class="label" style="" transform="translate(-20.5703125, -10.5)"><rect/><text x="20.5703125" y="10.5" text-anchor="middle" dominant-baseline="central" font-family="-apple-system, BlinkMacSystemFont, &quot;Segoe UI&quot;, Arial, sans-serif" font-size="13" fill="#0c831f"><tspan x="20.5703125" dy="0em">Search</tspan></text></g></g><g class="node default" id="mermaid-1778921817045-flowchart-Cart-26" data-look="classic" transform="translate(911.5533561706543, 410.5)"><rect class="basic label-container" style="" x="-36.703125" y="-22.5" width="73.40625" height="45"/><g class="label" style="" transform="translate(-12.703125, -10.5)"><rect/><text x="12.703125" y="10.5" text-anchor="middle" dominant-baseline="central" font-family="-apple-system, BlinkMacSystemFont, &quot;Segoe UI&quot;, Arial, sans-serif" font-size="13" fill="#0c831f"><tspan x="12.703125" dy="0em">Cart</tspan></text></g></g><g class="node default" id="mermaid-1778921817045-flowchart-Wishlist-28" data-look="classic" transform="translate(911.5533561706543, 505.5)"><rect class="basic label-container" style="" x="-47.8984375" y="-22.5" width="95.796875" height="45"/><g class="label" style="" transform="translate(-23.8984375, -10.5)"><rect/><text x="23.8984375" y="10.5" text-anchor="middle" dominant-baseline="central" font-family="-apple-system, BlinkMacSystemFont, &quot;Segoe UI&quot;, Arial, sans-serif" font-size="13" fill="#0c831f"><tspan x="23.8984375" dy="0em">Wishlist</tspan></text></g></g><g class="node default" id="mermaid-1778921817045-flowchart-Account-30" data-look="classic" transform="translate(911.5533561706543, 600.5)"><rect class="basic label-container" style="" x="-49.3828125" y="-22.5" width="98.765625" height="45"/><g class="label" style="" transform="translate(-25.3828125, -10.5)"><rect/><text x="25.3828125" y="10.5" text-anchor="middle" dominant-baseline="central" font-family="-apple-system, BlinkMacSystemFont, &quot;Segoe UI&quot;, Arial, sans-serif" font-size="13" fill="#0c831f"><tspan x="25.3828125" dy="0em">Account</tspan></text></g></g></g></g></g><defs><filter id="mermaid-1778921817045-drop-shadow" height="130%" width="130%"><feDropShadow dx="4" dy="4" stdDeviation="0" flood-opacity="0.06" flood-color="#000000"/></filter></defs><defs><filter id="mermaid-1778921817045-drop-shadow-small" height="150%" width="150%"><feDropShadow dx="2" dy="2" stdDeviation="0" flood-opacity="0.06" flood-color="#000000"/></filter></defs><linearGradient id="mermaid-1778921817045-gradient" gradientUnits="objectBoundingBox" x1="0%" y1="0%" x2="100%" y2="0%"><stop offset="0%" stop-color="#11ab3a" stop-opacity="1"/><stop offset="100%" stop-color="hsl(24.7058823529, 40.9523809524%, 85.8823529412%)" stop-opacity="1"/></linearGradient></svg>