<svg id="mermaid-1778921820314" width="1430.375" xmlns="http://www.w3.org/2000/svg" xmlns:xlink="http://www.w3.org/1999/xlink" class="flowchart" height="455.5249938964844" viewBox="0 0 1430.375 455.5249938964844" role="graphics-document document" aria-roledescription="flowchart-v2"><style>#mermaid-1778921820314{font-family:-apple-system,BlinkMacSystemFont,"Segoe UI",Arial,sans-serif;font-size:14px;fill:#0c831f;}@keyframes edge-animation-frame{from{stroke-dashoffset:0;}}@keyframes dash{to{stroke-dashoffset:0;}}#mermaid-1778921820314 .edge-animation-slow{stroke-dasharray:9,5!important;stroke-dashoffset:900;animation:dash 50s linear infinite;stroke-linecap:round;}#mermaid-1778921820314 .edge-animation-fast{stroke-dasharray:9,5!important;stroke-dashoffset:900;animation:dash 20s linear infinite;stroke-linecap:round;}#mermaid-1778921820314 .error-icon{fill:#fafbfc;}#mermaid-1778921820314 .error-text{fill:#050403;stroke:#050403;}#mermaid-1778921820314 .edge-thickness-normal{stroke-width:1px;}#mermaid-1778921820314 .edge-thickness-thick{stroke-width:3.5px;}#mermaid-1778921820314 .edge-pattern-solid{stroke-dasharray:0;}#mermaid-1778921820314 .edge-thickness-invisible{stroke-width:0;fill:none;}#mermaid-1778921820314 .edge-pattern-dashed{stroke-dasharray:3;}#mermaid-1778921820314 .edge-pattern-dotted{stroke-dasharray:2;}#mermaid-1778921820314 .marker{fill:#5a6478;stroke:#5a6478;}#mermaid-1778921820314 .marker.cross{stroke:#5a6478;}#mermaid-1778921820314 svg{font-family:-apple-system,BlinkMacSystemFont,"Segoe UI",Arial,sans-serif;font-size:14px;}#mermaid-1778921820314 p{margin:0;}#mermaid-1778921820314 .label{font-family:-apple-system,BlinkMacSystemFont,"Segoe UI",Arial,sans-serif;color:#0c831f;}#mermaid-1778921820314 .cluster-label text{fill:#050403;}#mermaid-1778921820314 .cluster-label span{color:#050403;}#mermaid-1778921820314 .cluster-label span p{background-color:transparent;}#mermaid-1778921820314 .label text,#mermaid-1778921820314 span{fill:#0c831f;color:#0c831f;}#mermaid-1778921820314 .node rect,#mermaid-1778921820314 .node circle,#mermaid-1778921820314 .node ellipse,#mermaid-1778921820314 .node polygon,#mermaid-1778921820314 .node path{fill:#ecfdf3;stroke:#11ab3a;stroke-width:1px;}#mermaid-1778921820314 .rough-node .label text,#mermaid-1778921820314 .node .label text,#mermaid-1778921820314 .image-shape .label,#mermaid-1778921820314 .icon-shape .label{text-anchor:middle;}#mermaid-1778921820314 .node .katex path{fill:#000;stroke:#000;stroke-width:1px;}#mermaid-1778921820314 .rough-node .label,#mermaid-1778921820314 .node .label,#mermaid-1778921820314 .image-shape .label,#mermaid-1778921820314 .icon-shape .label{text-align:center;}#mermaid-1778921820314 .node.clickable{cursor:pointer;}#mermaid-1778921820314 .root .anchor path{fill:#5a6478!important;stroke-width:0;stroke:#5a6478;}#mermaid-1778921820314 .arrowheadPath{fill:#0b0b0b;}#mermaid-1778921820314 .edgePath .path{stroke:#5a6478;stroke-width:1px;}#mermaid-1778921820314 .flowchart-link{stroke:#5a6478;fill:none;}#mermaid-1778921820314 .edgeLabel{background-color:hsl(24.7058823529, 80.9523809524%, 95.8823529412%);text-align:center;}#mermaid-1778921820314 .edgeLabel p{background-color:hsl(24.7058823529, 80.9523809524%, 95.8823529412%);}#mermaid-1778921820314 .edgeLabel rect{opacity:0.5;background-color:hsl(24.7058823529, 80.9523809524%, 95.8823529412%);fill:hsl(24.7058823529, 80.9523809524%, 95.8823529412%);}#mermaid-1778921820314 .labelBkg{background-color:rgba(253, 243.0000000001, 236.0000000001, 0.5);}#mermaid-1778921820314 .cluster rect{fill:#fafbfc;stroke:hsl(210, 0%, 88.431372549%);stroke-width:1px;}#mermaid-1778921820314 .cluster text{fill:#050403;}#mermaid-1778921820314 .cluster span{color:#050403;}#mermaid-1778921820314 div.mermaidTooltip{position:absolute;text-align:center;max-width:200px;padding:2px;font-family:-apple-system,BlinkMacSystemFont,"Segoe UI",Arial,sans-serif;font-size:12px;background:#fafbfc;border:1px solid hsl(210, 0%, 88.431372549%);border-radius:2px;pointer-events:none;z-index:100;}#mermaid-1778921820314 .flowchartTitleText{text-anchor:middle;font-size:18px;fill:#0c831f;}#mermaid-1778921820314 rect.text{fill:none;stroke-width:0;}#mermaid-1778921820314 .icon-shape,#mermaid-1778921820314 .image-shape{background-color:hsl(24.7058823529, 80.9523809524%, 95.8823529412%);text-align:center;}#mermaid-1778921820314 .icon-shape p,#mermaid-1778921820314 .image-shape p{background-color:hsl(24.7058823529, 80.9523809524%, 95.8823529412%);padding:2px;}#mermaid-1778921820314 .icon-shape .label rect,#mermaid-1778921820314 .image-shape .label rect{opacity:0.5;background-color:hsl(24.7058823529, 80.9523809524%, 95.8823529412%);fill:hsl(24.7058823529, 80.9523809524%, 95.8823529412%);}#mermaid-1778921820314 .label-icon{display:inline-block;height:1em;overflow:visible;vertical-align:-0.125em;}#mermaid-1778921820314 .node .label-icon path{fill:currentColor;stroke:revert;stroke-width:revert;}#mermaid-1778921820314 .node .neo-node{stroke:#11ab3a;}#mermaid-1778921820314 [data-look="neo"].node rect,#mermaid-1778921820314 [data-look="neo"].cluster rect,#mermaid-1778921820314 [data-look="neo"].node polygon{stroke:url(#mermaid-1778921820314-gradient);filter:drop-shadow( 1px 2px 2px rgba(185,185,185,1));}#mermaid-1778921820314 [data-look="neo"].node path{stroke:url(#mermaid-1778921820314-gradient);stroke-width:1px;}#mermaid-1778921820314 [data-look="neo"].node .outer-path{filter:drop-shadow( 1px 2px 2px rgba(185,185,185,1));}#mermaid-1778921820314 [data-look="neo"].node .neo-line path{stroke:#11ab3a;filter:none;}#mermaid-1778921820314 [data-look="neo"].node circle{stroke:url(#mermaid-1778921820314-gradient);filter:drop-shadow( 1px 2px 2px rgba(185,185,185,1));}#mermaid-1778921820314 [data-look="neo"].node circle .state-start{fill:#000000;}#mermaid-1778921820314 [data-look="neo"].icon-shape .icon{fill:url(#mermaid-1778921820314-gradient);filter:drop-shadow( 1px 2px 2px rgba(185,185,185,1));}#mermaid-1778921820314 [data-look="neo"].icon-shape .icon-neo path{stroke:url(#mermaid-1778921820314-gradient);filter:drop-shadow( 1px 2px 2px rgba(185,185,185,1));}#mermaid-1778921820314 :root{--mermaid-font-family:"trebuchet ms",verdana,arial,sans-serif;}#mermaid-1778921820314 .screen&gt;*{fill:rgb(255, 255, 255)!important;stroke:rgb(17, 171, 58)!important;stroke-width:1.5px!important;}#mermaid-1778921820314 .screen span{fill:rgb(255, 255, 255)!important;stroke:rgb(17, 171, 58)!important;stroke-width:1.5px!important;}#mermaid-1778921820314 .ext&gt;*{fill:rgb(255, 251, 235)!important;stroke:rgb(176, 122, 0)!important;}#mermaid-1778921820314 .ext span{fill:rgb(255, 251, 235)!important;stroke:rgb(176, 122, 0)!important;}</style><g><marker id="mermaid-1778921820314_flowchart-v2-pointEnd" class="marker flowchart-v2" viewBox="0 0 10 10" refX="5" refY="5" markerUnits="userSpaceOnUse" markerWidth="8" markerHeight="8" orient="auto"><path d="M 0 0 L 10 5 L 0 10 z" class="arrowMarkerPath" style="stroke-width: 1; stroke-dasharray: 1, 0;"/></marker><marker id="mermaid-1778921820314_flowchart-v2-pointStart" class="marker flowchart-v2" viewBox="0 0 10 10" refX="4.5" refY="5" markerUnits="userSpaceOnUse" markerWidth="8" markerHeight="8" orient="auto"><path d="M 0 5 L 10 10 L 10 0 z" class="arrowMarkerPath" style="stroke-width: 1; stroke-dasharray: 1, 0;"/></marker><marker id="mermaid-1778921820314_flowchart-v2-pointEnd-margin" class="marker flowchart-v2" viewBox="0 0 11.5 14" refX="11.5" refY="7" markerUnits="userSpaceOnUse" markerWidth="10.5" markerHeight="14" orient="auto"><path d="M 0 0 L 11.5 7 L 0 14 z" class="arrowMarkerPath" style="stroke-width: 0; stroke-dasharray: 1, 0;"/></marker><marker id="mermaid-1778921820314_flowchart-v2-pointStart-margin" class="marker flowchart-v2" viewBox="0 0 11.5 14" refX="1" refY="7" markerUnits="userSpaceOnUse" markerWidth="11.5" markerHeight="14" orient="auto"><polygon points="0,7 11.5,14 11.5,0" class="arrowMarkerPath" style="stroke-width: 0; stroke-dasharray: 1, 0;"/></marker><marker id="mermaid-1778921820314_flowchart-v2-circleEnd" class="marker flowchart-v2" viewBox="0 0 10 10" refX="11" refY="5" markerUnits="userSpaceOnUse" markerWidth="11" markerHeight="11" orient="auto"><circle cx="5" cy="5" r="5" class="arrowMarkerPath" style="stroke-width: 1; stroke-dasharray: 1, 0;"/></marker><marker id="mermaid-1778921820314_flowchart-v2-circleStart" class="marker flowchart-v2" viewBox="0 0 10 10" refX="-1" refY="5" markerUnits="userSpaceOnUse" markerWidth="11" markerHeight="11" orient="auto"><circle cx="5" cy="5" r="5" class="arrowMarkerPath" style="stroke-width: 1; stroke-dasharray: 1, 0;"/></marker><marker id="mermaid-1778921820314_flowchart-v2-circleEnd-margin" class="marker flowchart-v2" viewBox="0 0 10 10" refY="5" refX="12.25" markerUnits="userSpaceOnUse" markerWidth="14" markerHeight="14" orient="auto"><circle cx="5" cy="5" r="5" class="arrowMarkerPath" style="stroke-width: 0; stroke-dasharray: 1, 0;"/></marker><marker id="mermaid-1778921820314_flowchart-v2-circleStart-margin" class="marker flowchart-v2" viewBox="0 0 10 10" refX="-2" refY="5" markerUnits="userSpaceOnUse" markerWidth="14" markerHeight="14" orient="auto"><circle cx="5" cy="5" r="5" class="arrowMarkerPath" style="stroke-width: 0; stroke-dasharray: 1, 0;"/></marker><marker id="mermaid-1778921820314_flowchart-v2-crossEnd" class="marker cross flowchart-v2" viewBox="0 0 11 11" refX="12" refY="5.2" markerUnits="userSpaceOnUse" markerWidth="11" markerHeight="11" orient="auto"><path d="M 1,1 l 9,9 M 10,1 l -9,9" class="arrowMarkerPath" style="stroke-width: 2; stroke-dasharray: 1, 0;"/></marker><marker id="mermaid-1778921820314_flowchart-v2-crossStart" class="marker cross flowchart-v2" viewBox="0 0 11 11" refX="-1" refY="5.2" markerUnits="userSpaceOnUse" markerWidth="11" markerHeight="11" orient="auto"><path d="M 1,1 l 9,9 M 10,1 l -9,9" class="arrowMarkerPath" style="stroke-width: 2; stroke-dasharray: 1, 0;"/></marker><marker id="mermaid-1778921820314_flowchart-v2-crossEnd-margin" class="marker cross flowchart-v2" viewBox="0 0 15 15" refX="17.7" refY="7.5" markerUnits="userSpaceOnUse" markerWidth="12" markerHeight="12" orient="auto"><path d="M 1,1 L 14,14 M 1,14 L 14,1" class="arrowMarkerPath" style="stroke-width: 2.5;"/></marker><marker id="mermaid-1778921820314_flowchart-v2-crossStart-margin" class="marker cross flowchart-v2" viewBox="0 0 15 15" refX="-3.5" refY="7.5" markerUnits="userSpaceOnUse" markerWidth="12" markerHeight="12" orient="auto"><path d="M 1,1 L 14,14 M 1,14 L 14,1" class="arrowMarkerPath" style="stroke-width: 2.5; stroke-dasharray: 1, 0;"/></marker><g class="root"><g class="clusters"/><g class="edgePaths"><path d="M88.138,133.525L98.512,139.771C108.886,146.017,129.634,158.508,153.97,164.754C178.305,171,206.227,171,220.188,171L234.148,171" id="mermaid-1778921820314-L_Home_Search_0" class="edge-thickness-normal edge-pattern-solid edge-thickness-normal edge-pattern-solid flowchart-link" style=";" data-edge="true" data-et="edge" data-id="L_Home_Search_0" data-points="W3sieCI6ODguMTM3NjQxOTg2NDc2NDEsInkiOjEzMy41MjUwMDAwMDAzNzI1M30seyJ4IjoxNTAuMzgyODEyNSwieSI6MTcxfSx7IngiOjIzOC4xNDg0Mzc1LCJ5IjoxNzF9XQ==" data-look="classic" marker-end="url(#mermaid-1778921820314_flowchart-v2-pointEnd)"/><path d="M63.252,133.525L77.774,159.692C92.296,185.858,121.339,238.192,157.917,264.358C194.495,290.525,238.607,290.525,284.012,290.525C329.417,290.525,376.115,290.525,409.595,293.68C443.076,296.834,463.339,303.144,473.471,306.299L483.603,309.453" id="mermaid-1778921820314-L_Home_CategoryDetail_0" class="edge-thickness-normal edge-pattern-solid edge-thickness-normal edge-pattern-solid flowchart-link" style=";" data-edge="true" data-et="edge" data-id="L_Home_CategoryDetail_0" data-points="W3sieCI6NjMuMjUyNDU5MDg3NzQzNzMsInkiOjEzMy41MjUwMDAwMDAzNzI1M30seyJ4IjoxNTAuMzgyODEyNSwieSI6MjkwLjUyNTAwMDAwMDM3MjUzfSx7IngiOjI4Mi43MTg3NSwieSI6MjkwLjUyNTAwMDAwMDM3MjUzfSx7IngiOjQyMi44MTI1LCJ5IjoyOTAuNTI1MDAwMDAwMzcyNTN9LHsieCI6NDg3LjQyMTg3NSwieSI6MzEwLjY0MjU2ODI2ODQyODd9XQ==" data-look="classic" marker-end="url(#mermaid-1778921820314_flowchart-v2-pointEnd)"/><path d="M67.524,133.525L81.334,152.067C95.143,170.608,122.763,207.692,158.629,226.233C194.495,244.775,238.607,244.775,284.012,244.775C329.417,244.775,376.115,244.775,422.065,244.775C468.016,244.775,513.219,244.775,557.962,244.775C602.706,244.775,646.99,244.775,679.68,247.649C712.37,250.524,733.466,256.272,744.014,259.146L754.563,262.021" id="mermaid-1778921820314-L_Home_PDP_0" class="edge-thickness-normal edge-pattern-solid edge-thickness-normal edge-pattern-solid flowchart-link" style=";" data-edge="true" data-et="edge" data-id="L_Home_PDP_0" data-points="W3sieCI6NjcuNTIzNjU2NTQyMDU2MDcsInkiOjEzMy41MjUwMDAwMDAzNzI1M30seyJ4IjoxNTAuMzgyODEyNSwieSI6MjQ0Ljc3NTAwMDAwMDM3MjUzfSx7IngiOjI4Mi43MTg3NSwieSI6MjQ0Ljc3NTAwMDAwMDM3MjUzfSx7IngiOjQyMi44MTI1LCJ5IjoyNDQuNzc1MDAwMDAwMzcyNTN9LHsieCI6NTU4LjQyMTg3NSwieSI6MjQ0Ljc3NTAwMDAwMDM3MjUzfSx7IngiOjY5MS4yNzM0Mzc1LCJ5IjoyNDQuNzc1MDAwMDAwMzcyNTN9LHsieCI6NzU4LjQyMTg3NSwieSI6MjYzLjA3MjE0NTE5ODA5MzZ9XQ==" data-look="classic" marker-end="url(#mermaid-1778921820314_flowchart-v2-pointEnd)"/><path d="M74.99,88.525L87.556,76.854C100.121,65.183,125.252,41.842,159.873,30.171C194.495,18.5,238.607,18.5,284.012,18.5C329.417,18.5,376.115,18.5,422.065,18.5C468.016,18.5,513.219,18.5,557.962,18.5C602.706,18.5,646.99,18.5,694.958,18.5C742.927,18.5,794.581,18.5,845.712,18.5C896.844,18.5,947.453,18.5,984.76,25.144C1022.068,31.788,1046.073,45.075,1058.076,51.719L1070.079,58.363" id="mermaid-1778921820314-L_Home_Store_0" class="edge-thickness-normal edge-pattern-solid edge-thickness-normal edge-pattern-solid flowchart-link" style=";" data-edge="true" data-et="edge" data-id="L_Home_Store_0" data-points="W3sieCI6NzQuOTkwMjg1NTY0NjE0NzEsInkiOjg4LjUyNTAwMDAwMDM3MjUzfSx7IngiOjE1MC4zODI4MTI1LCJ5IjoxOC41fSx7IngiOjI4Mi43MTg3NSwieSI6MTguNX0seyJ4Ijo0MjIuODEyNSwieSI6MTguNX0seyJ4Ijo1NTguNDIxODc1LCJ5IjoxOC41fSx7IngiOjY5MS4yNzM0Mzc1LCJ5IjoxOC41fSx7IngiOjg0Ni4yMzQzNzUsInkiOjE4LjV9LHsieCI6OTk4LjA2MjUsInkiOjE4LjV9LHsieCI6MTA3My41NzgxNzM2MDA3ODIsInkiOjYwLjMwMDAwMDAwMDc0NTA2fV0=" data-look="classic" marker-end="url(#mermaid-1778921820314_flowchart-v2-pointEnd)"/><path d="M93.531,95.989L103.007,92.657C112.482,89.326,131.432,82.663,151.766,79.331C172.099,76,193.815,76,204.673,76L215.531,76" id="mermaid-1778921820314-L_Home_Notifications_0" class="edge-thickness-normal edge-pattern-solid edge-thickness-normal edge-pattern-solid flowchart-link" style=";" data-edge="true" data-et="edge" data-id="L_Home_Notifications_0" data-points="W3sieCI6OTMuNTMxMjUsInkiOjk1Ljk4ODc3OTMxMTYzOTE2fSx7IngiOjE1MC4zODI4MTI1LCJ5Ijo3Nn0seyJ4IjoyMTkuNTMxMjUsInkiOjc2fV0=" data-look="classic" marker-end="url(#mermaid-1778921820314_flowchart-v2-pointEnd)"/><path d="M327.289,152.317L343.21,145.643C359.13,138.97,390.971,125.622,420.222,124.721C449.473,123.82,476.133,135.365,489.463,141.138L502.794,146.91" id="mermaid-1778921820314-L_Search_Results_0" class="edge-thickness-normal edge-pattern-solid edge-thickness-normal edge-pattern-solid flowchart-link" style=";" data-edge="true" data-et="edge" data-id="L_Search_Results_0" data-points="W3sieCI6MzI3LjI4OTA2MjUsInkiOjE1Mi4zMTY4NTY3MzY2Nzg4Nn0seyJ4Ijo0MjIuODEyNSwieSI6MTEyLjI3NTAwMDAwMDM3MjUzfSx7IngiOjUwNi40NjQyNjAwNTcxNDE2NCwieSI6MTQ4LjV9XQ==" data-look="classic" marker-end="url(#mermaid-1778921820314_flowchart-v2-pointEnd)"/><path d="M624.977,171L636.026,171C647.076,171,669.174,171,689.866,171C710.557,171,729.841,171,739.483,171L749.125,171" id="mermaid-1778921820314-L_Results_FilterSheet_0" class="edge-thickness-normal edge-pattern-solid edge-thickness-normal edge-pattern-solid flowchart-link" style=";" data-edge="true" data-et="edge" data-id="L_Results_FilterSheet_0" data-points="W3sieCI6NjI0Ljk3NjU2MjUsInkiOjE3MX0seyJ4Ijo2OTEuMjczNDM3NSwieSI6MTcxfSx7IngiOjc1My4xMjUsInkiOjE3MX1d" data-look="classic" marker-end="url(#mermaid-1778921820314_flowchart-v2-pointEnd)"/><path d="M581.196,193.5L599.543,211.625C617.889,229.75,654.581,266,683.455,283.089C712.329,300.178,733.385,298.106,743.913,297.07L754.441,296.034" id="mermaid-1778921820314-L_Results_PDP_0" class="edge-thickness-normal edge-pattern-solid edge-thickness-normal edge-pattern-solid flowchart-link" style=";" data-edge="true" data-et="edge" data-id="L_Results_PDP_0" data-points="W3sieCI6NTgxLjE5NjQyODU3MTQyODYsInkiOjE5My41fSx7IngiOjY5MS4yNzM0Mzc1LCJ5IjozMDIuMjV9LHsieCI6NzU4LjQyMTg3NSwieSI6Mjk1LjY0MTc5NDgwNzE1OTA0fV0=" data-look="classic" marker-end="url(#mermaid-1778921820314_flowchart-v2-pointEnd)"/><path d="M327.289,178.803L343.21,181.59C359.13,184.377,390.971,189.951,417.745,190.775C444.519,191.599,466.225,187.674,477.078,185.711L487.931,183.748" id="mermaid-1778921820314-L_Search_Results_2" class="edge-thickness-normal edge-pattern-solid edge-thickness-normal edge-pattern-solid flowchart-link" style=";" data-edge="true" data-et="edge" data-id="L_Search_Results_2" data-points="W3sieCI6MzI3LjI4OTA2MjUsInkiOjE3OC44MDI1Mzg3NTc2NDY5N30seyJ4Ijo0MjIuODEyNSwieSI6MTk1LjUyNTAwMDAwMDM3MjUzfSx7IngiOjQ5MS44NjcxODc1LCJ5IjoxODMuMDM2NDM3MDg5NzA5Mjd9XQ==" data-look="classic" marker-end="url(#mermaid-1778921820314_flowchart-v2-pointEnd)"/><path d="M358.203,388.275L368.971,388.275C379.74,388.275,401.276,388.275,424.87,383.023C448.464,377.772,474.116,367.269,486.942,362.017L499.768,356.766" id="mermaid-1778921820314-L_Categories_CategoryDetail_0" class="edge-thickness-normal edge-pattern-solid edge-thickness-normal edge-pattern-solid flowchart-link" style=";" data-edge="true" data-et="edge" data-id="L_Categories_CategoryDetail_0" data-points="W3sieCI6MzU4LjIwMzEyNSwieSI6Mzg4LjI3NTAwMDAwMDM3MjUzfSx7IngiOjQyMi44MTI1LCJ5IjozODguMjc1MDAwMDAwMzcyNTN9LHsieCI6NTAzLjQ2OTg1NDUxNDEwMTI2LCJ5IjozNTUuMjV9XQ==" data-look="classic" marker-end="url(#mermaid-1778921820314_flowchart-v2-pointEnd)"/><path d="M629.422,332.75L639.73,332.75C650.039,332.75,670.656,332.75,691.517,329.635C712.377,326.519,733.482,320.289,744.034,317.173L754.586,314.058" id="mermaid-1778921820314-L_CategoryDetail_PDP_0" class="edge-thickness-normal edge-pattern-solid edge-thickness-normal edge-pattern-solid flowchart-link" style=";" data-edge="true" data-et="edge" data-id="L_CategoryDetail_PDP_0" data-points="W3sieCI6NjI5LjQyMTg3NSwieSI6MzMyLjc1fSx7IngiOjY5MS4yNzM0Mzc1LCJ5IjozMzIuNzV9LHsieCI6NzU4LjQyMTg3NSwieSI6MzEyLjkyNTM4NDQyMTQ3NzJ9XQ==" data-look="classic" marker-end="url(#mermaid-1778921820314_flowchart-v2-pointEnd)"/><path d="M921.043,254L933.88,248.338C946.716,242.675,972.389,231.35,997.82,228.615C1023.251,225.88,1048.439,231.734,1061.033,234.661L1073.627,237.589" id="mermaid-1778921820314-L_PDP_Cart_0" class="edge-thickness-normal edge-pattern-solid edge-thickness-normal edge-pattern-solid flowchart-link" style=";" data-edge="true" data-et="edge" data-id="L_PDP_Cart_0" data-points="W3sieCI6OTIxLjA0MzMwNTU3MTUyNDcsInkiOjI1NH0seyJ4Ijo5OTguMDYyNSwieSI6MjIwLjAyNTAwMDAwMDM3MjUzfSx7IngiOjEwNzcuNTIzNDM3NSwieSI6MjM4LjQ5NDA5Njc3ODkwNTAzfV0=" data-look="classic" marker-end="url(#mermaid-1778921820314_flowchart-v2-pointEnd)"/><path d="M934.047,279.496L944.716,278.584C955.385,277.672,976.724,275.849,999.987,272.01C1023.251,268.17,1048.439,262.316,1061.033,259.389L1073.627,256.461" id="mermaid-1778921820314-L_PDP_Cart_2" class="edge-thickness-normal edge-pattern-solid edge-thickness-normal edge-pattern-solid flowchart-link" style=";" data-edge="true" data-et="edge" data-id="L_PDP_Cart_2" data-points="W3sieCI6OTM0LjA0Njg3NSwieSI6Mjc5LjQ5NTY3NzY3ODUxMTI0fSx7IngiOjk5OC4wNjI1LCJ5IjoyNzQuMDI1MDAwMDAwMzcyNTN9LHsieCI6MTA3Ny41MjM0Mzc1LCJ5IjoyNTUuNTU1OTAzMjIxODQwMDN9XQ==" data-look="classic" marker-end="url(#mermaid-1778921820314_flowchart-v2-pointEnd)"/><path d="M878.001,254L898.011,233.213C918.021,212.425,958.042,170.85,987.421,146.314C1016.8,121.779,1035.537,114.282,1044.906,110.534L1054.274,106.786" id="mermaid-1778921820314-L_PDP_Store_0" class="edge-thickness-normal edge-pattern-solid edge-thickness-normal edge-pattern-solid flowchart-link" style=";" data-edge="true" data-et="edge" data-id="L_PDP_Store_0" data-points="W3sieCI6ODc4LjAwMDYwMTgxODkwNTIsInkiOjI1NH0seyJ4Ijo5OTguMDYyNSwieSI6MTI5LjI3NTAwMDAwMDM3MjUzfSx7IngiOjEwNTcuOTg3OTA5MzI1Nzk5OCwieSI6MTA1LjMwMDAwMDAwMDc0NTA2fV0=" data-look="classic" marker-end="url(#mermaid-1778921820314_flowchart-v2-pointEnd)"/><path d="M934.047,318.825L944.716,322.691C955.385,326.558,976.724,334.292,998.104,338.158C1019.484,342.025,1040.906,342.025,1051.617,342.025L1062.328,342.025" id="mermaid-1778921820314-L_PDP_Wishlist_0" class="edge-thickness-normal edge-pattern-solid edge-thickness-normal edge-pattern-solid flowchart-link" style=";" data-edge="true" data-et="edge" data-id="L_PDP_Wishlist_0" data-points="W3sieCI6OTM0LjA0Njg3NSwieSI6MzE4LjgyNDY4ODY5MDE0MDN9LHsieCI6OTk4LjA2MjUsInkiOjM0Mi4wMjUwMDAwMDAzNzI1M30seyJ4IjoxMDY2LjMyODEyNSwieSI6MzQyLjAyNTAwMDAwMDM3MjUzfV0=" data-look="classic" marker-end="url(#mermaid-1778921820314_flowchart-v2-pointEnd)"/><path d="M881.022,320L900.529,338.504C920.036,357.008,959.049,394.017,989.667,412.599C1020.284,431.182,1042.506,431.339,1053.617,431.418L1064.727,431.497" id="mermaid-1778921820314-L_PDP_ShareSheet_0" class="edge-thickness-normal edge-pattern-solid edge-thickness-normal edge-pattern-solid flowchart-link" style=";" data-edge="true" data-et="edge" data-id="L_PDP_ShareSheet_0" data-points="W3sieCI6ODgxLjAyMjI4MDc0NTQ0MDMsInkiOjMyMH0seyJ4Ijo5OTguMDYyNSwieSI6NDMxLjAyNTAwMDAwMDM3MjUzfSx7IngiOjEwNjguNzI3MjI2MjU3MzIxMywieSI6NDMxLjUyNTAwMDAwMDM3MjR9XQ==" data-look="classic" marker-end="url(#mermaid-1778921820314_flowchart-v2-pointEnd)"/><path d="M1167.152,60.3L1172.072,58.208C1176.992,56.117,1186.832,51.933,1195.918,49.842C1205.005,47.75,1213.339,47.75,1217.505,47.75L1221.672,47.75" id="mermaid-1778921820314-Store-cyclic-special-1" class="edge-thickness-normal edge-pattern-solid edge-thickness-normal edge-pattern-solid flowchart-link" style=";" data-edge="true" data-et="edge" data-id="Store-cyclic-special-1" data-points="W3sieCI6MTE2Ny4xNTE1MTM0NjE3ODUsInkiOjYwLjMwMDAwMDAwMDc0NTA2fSx7IngiOjExOTYuNjcxODc1LCJ5Ijo0Ny43NX0seyJ4IjoxMjIxLjY3MTg3NSwieSI6NDcuNzV9XQ==" data-look="classic"/><path d="M1221.772,47.75L1238.476,47.75C1255.181,47.75,1288.59,47.75,1321.998,53.589C1355.407,59.428,1388.816,71.105,1405.521,76.944L1422.225,82.783" id="mermaid-1778921820314-Store-cyclic-special-mid" class="edge-thickness-normal edge-pattern-solid edge-thickness-normal edge-pattern-solid flowchart-link" style=";" data-edge="true" data-et="edge" data-id="Store-cyclic-special-mid" data-points="W3sieCI6MTIyMS43NzE4NzUwMDE0OTAxLCJ5Ijo0Ny43NX0seyJ4IjoxMzIxLjk5ODQzNzUwMTQ5MDEsInkiOjQ3Ljc1fSx7IngiOjE0MjIuMjI1MDAwMDAxNDkwMSwieSI6ODIuNzgyNTIzMzM0Mzg5MDd9XQ==" data-look="classic"/><path d="M1422.225,82.8L1405.521,82.8C1388.816,82.8,1355.407,82.8,1321.99,82.8C1288.573,82.8,1255.147,82.8,1234.26,82.8C1213.372,82.8,1205.022,82.8,1197.347,82.8C1189.672,82.8,1182.672,82.8,1179.172,82.8L1175.672,82.8" id="mermaid-1778921820314-Store-cyclic-special-2" class="edge-thickness-normal edge-pattern-solid edge-thickness-normal edge-pattern-solid flowchart-link" style=";" data-edge="true" data-et="edge" data-id="Store-cyclic-special-2" data-points="W3sieCI6MTQyMi4yMjUwMDAwMDE0OTAxLCJ5Ijo4Mi44MDAwMDAwMDA3NDUwNn0seyJ4IjoxMzIxLjk5ODQzNzUwMTQ5MDEsInkiOjgyLjgwMDAwMDAwMDc0NTA2fSx7IngiOjEyMjEuNzIxODc1MDAwNzQ1LCJ5Ijo4Mi44MDAwMDAwMDA3NDUwNn0seyJ4IjoxMTk2LjY3MTg3NSwieSI6ODIuODAwMDAwMDAwNzQ1MDZ9LHsieCI6MTE3MS42NzE4NzUsInkiOjgyLjgwMDAwMDAwMDc0NTA2fV0=" data-look="classic" marker-end="url(#mermaid-1778921820314_flowchart-v2-pointEnd)"/><path d="M1087.064,105.3L1072.231,117.588C1057.397,129.875,1027.73,154.45,995.869,178.847C964.007,203.244,929.952,227.463,912.924,239.572L895.897,251.682" id="mermaid-1778921820314-L_Store_PDP_0" class="edge-thickness-normal edge-pattern-solid edge-thickness-normal edge-pattern-solid flowchart-link" style=";" data-edge="true" data-et="edge" data-id="L_Store_PDP_0" data-points="W3sieCI6MTA4Ny4wNjQyNzE5Njk4ODcyLCJ5IjoxMDUuMzAwMDAwMDAwNzQ1MDZ9LHsieCI6OTk4LjA2MjUsInkiOjE3OS4wMjUwMDAwMDAzNzI1M30seyJ4Ijo4OTIuNjM3MDQzNDQxOTI5LCJ5IjoyNTR9XQ==" data-look="classic" marker-end="url(#mermaid-1778921820314_flowchart-v2-pointEnd)"/></g><g class="edgeLabels"><g class="edgeLabel" transform="translate(150.3828125, 171)"><g class="label" data-id="L_Home_Search_0" transform="translate(-31.8515625, -10.5)"><text x="31.8515625" y="10.5" text-anchor="middle" dominant-baseline="central" font-family="-apple-system, BlinkMacSystemFont, &quot;Segoe UI&quot;, Arial, sans-serif" font-size="13" fill="#0c831f"><tspan x="31.8515625" dy="0em">search bar</tspan></text></g></g><g class="edgeLabel" transform="translate(282.71875, 290.52500000037253)"><g class="label" data-id="L_Home_CategoryDetail_0" transform="translate(-38.21875, -10.5)"><text x="38.21875" y="10.5" text-anchor="middle" dominant-baseline="central" font-family="-apple-system, BlinkMacSystemFont, &quot;Segoe UI&quot;, Arial, sans-serif" font-size="13" fill="#0c831f"><tspan x="38.21875" dy="0em">category tile</tspan></text></g></g><g class="edgeLabel" transform="translate(422.8125, 244.77500000037253)"><g class="label" data-id="L_Home_PDP_0" transform="translate(-39.609375, -10.5)"><text x="39.609375" y="10.5" text-anchor="middle" dominant-baseline="central" font-family="-apple-system, BlinkMacSystemFont, &quot;Segoe UI&quot;, Arial, sans-serif" font-size="13" fill="#0c831f"><tspan x="39.609375" dy="0em">product card</tspan></text></g></g><g class="edgeLabel" transform="translate(558.421875, 18.5)"><g class="label" data-id="L_Home_Store_0" transform="translate(-15.5390625, -10.5)"><text x="15.5390625" y="10.5" text-anchor="middle" dominant-baseline="central" font-family="-apple-system, BlinkMacSystemFont, &quot;Segoe UI&quot;, Arial, sans-serif" font-size="13" fill="#0c831f"><tspan x="15.5390625" dy="0em">store</tspan></text></g></g><g class="edgeLabel" transform="translate(150.3828125, 76)"><g class="label" data-id="L_Home_Notifications_0" transform="translate(-11.171875, -10.5)"><text x="11.171875" y="10.5" text-anchor="middle" dominant-baseline="central" font-family="-apple-system, BlinkMacSystemFont, &quot;Segoe UI&quot;, Arial, sans-serif" font-size="13" fill="#0c831f"><tspan x="11.171875" dy="0em">bell</tspan></text></g></g><g class="edgeLabel" transform="translate(417.08626, 114.67534)"><g class="label" data-id="L_Search_Results_0" transform="translate(-17.5703125, -10.5)"><text x="17.5703125" y="10.5" text-anchor="middle" dominant-baseline="central" font-family="-apple-system, BlinkMacSystemFont, &quot;Segoe UI&quot;, Arial, sans-serif" font-size="13" fill="#0c831f"><tspan x="17.5703125" dy="0em">query</tspan></text></g></g><g class="edgeLabel" transform="translate(691.2734375, 171)"><g class="label" data-id="L_Results_FilterSheet_0" transform="translate(-36.8515625, -10.5)"><text x="36.8515625" y="10.5" text-anchor="middle" dominant-baseline="central" font-family="-apple-system, BlinkMacSystemFont, &quot;Segoe UI&quot;, Arial, sans-serif" font-size="13" fill="#0c831f"><tspan x="36.8515625" dy="0em">filter button</tspan></text></g></g><g class="edgeLabel" transform="translate(660.2344, 271.58514)"><g class="label" data-id="L_Results_PDP_0" transform="translate(-24.34375, -10.5)"><text x="24.34375" y="10.5" text-anchor="middle" dominant-baseline="central" font-family="-apple-system, BlinkMacSystemFont, &quot;Segoe UI&quot;, Arial, sans-serif" font-size="13" fill="#0c831f"><tspan x="24.34375" dy="0em">product</tspan></text></g></g><g class="edgeLabel" transform="translate(409.61262, 193.21421)"><g class="label" data-id="L_Search_Results_2" transform="translate(-35.7421875, -10.5)"><text x="35.7421875" y="10.5" text-anchor="middle" dominant-baseline="central" font-family="-apple-system, BlinkMacSystemFont, &quot;Segoe UI&quot;, Arial, sans-serif" font-size="13" fill="#0c831f"><tspan x="35.7421875" dy="0em">recent term</tspan></text></g></g><g class="edgeLabel"><g class="label" data-id="L_Categories_CategoryDetail_0" transform="translate(0, 0)"><text x="0" y="0" text-anchor="middle" dominant-baseline="central" font-family="-apple-system, BlinkMacSystemFont, &quot;Segoe UI&quot;, Arial, sans-serif" font-size="13" fill="#0c831f"><tspan x="0" dy="0em"/></text></g></g><g class="edgeLabel"><g class="label" data-id="L_CategoryDetail_PDP_0" transform="translate(0, 0)"><text x="0" y="0" text-anchor="middle" dominant-baseline="central" font-family="-apple-system, BlinkMacSystemFont, &quot;Segoe UI&quot;, Arial, sans-serif" font-size="13" fill="#0c831f"><tspan x="0" dy="0em"/></text></g></g><g class="edgeLabel" transform="translate(998.0625, 220.02500000037253)"><g class="label" data-id="L_PDP_Cart_0" transform="translate(-33.71875, -10.5)"><text x="33.71875" y="10.5" text-anchor="middle" dominant-baseline="central" font-family="-apple-system, BlinkMacSystemFont, &quot;Segoe UI&quot;, Arial, sans-serif" font-size="13" fill="#0c831f"><tspan x="33.71875" dy="0em">add to cart</tspan></text></g></g><g class="edgeLabel" transform="translate(1006.50258, 272.06327)"><g class="label" data-id="L_PDP_Cart_2" transform="translate(-26.5078125, -10.5)"><text x="26.5078125" y="10.5" text-anchor="middle" dominant-baseline="central" font-family="-apple-system, BlinkMacSystemFont, &quot;Segoe UI&quot;, Arial, sans-serif" font-size="13" fill="#0c831f"><tspan x="26.5078125" dy="0em">buy now</tspan></text></g></g><g class="edgeLabel" transform="translate(960.41234, 168.38746)"><g class="label" data-id="L_PDP_Store_0" transform="translate(-28.2890625, -10.5)"><text x="28.2890625" y="10.5" text-anchor="middle" dominant-baseline="central" font-family="-apple-system, BlinkMacSystemFont, &quot;Segoe UI&quot;, Arial, sans-serif" font-size="13" fill="#0c831f"><tspan x="28.2890625" dy="0em">store link</tspan></text></g></g><g class="edgeLabel" transform="translate(998.0625, 342.02500000037253)"><g class="label" data-id="L_PDP_Wishlist_0" transform="translate(-15.9921875, -10.5)"><text x="15.9921875" y="10.5" text-anchor="middle" dominant-baseline="central" font-family="-apple-system, BlinkMacSystemFont, &quot;Segoe UI&quot;, Arial, sans-serif" font-size="13" fill="#0c831f"><tspan x="15.9921875" dy="0em">heart</tspan></text></g></g><g class="edgeLabel" transform="translate(998.0625, 431.02500000037253)"><g class="label" data-id="L_PDP_ShareSheet_0" transform="translate(-16.59375, -10.5)"><text x="16.59375" y="10.5" text-anchor="middle" dominant-baseline="central" font-family="-apple-system, BlinkMacSystemFont, &quot;Segoe UI&quot;, Arial, sans-serif" font-size="13" fill="#0c831f"><tspan x="16.59375" dy="0em">share</tspan></text></g></g><g class="edgeLabel"><g class="label" data-id="Store-cyclic-special-1" transform="translate(0, 0)"><text x="0" y="0" text-anchor="middle" dominant-baseline="central" font-family="-apple-system, BlinkMacSystemFont, &quot;Segoe UI&quot;, Arial, sans-serif" font-size="13" fill="#0c831f"><tspan x="0" dy="0em"/></text></g></g><g class="edgeLabel" transform="translate(1321.9984375014901, 47.75)"><g class="label" data-id="Store-cyclic-special-mid" transform="translate(-75.2265625, -10.5)"><text x="75.2265625" y="10.5" text-anchor="middle" dominant-baseline="central" font-family="-apple-system, BlinkMacSystemFont, &quot;Segoe UI&quot;, Arial, sans-serif" font-size="13" fill="#0c831f"><tspan x="75.2265625" dy="0em">about products featured</tspan></text></g></g><g class="edgeLabel"><g class="label" data-id="Store-cyclic-special-2" transform="translate(0, 0)"><text x="0" y="0" text-anchor="middle" dominant-baseline="central" font-family="-apple-system, BlinkMacSystemFont, &quot;Segoe UI&quot;, Arial, sans-serif" font-size="13" fill="#0c831f"><tspan x="0" dy="0em"/></text></g></g><g class="edgeLabel" transform="translate(998.0625, 179.02500000037253)"><g class="label" data-id="L_Store_PDP_0" transform="translate(-24.34375, -10.5)"><text x="24.34375" y="10.5" text-anchor="middle" dominant-baseline="central" font-family="-apple-system, BlinkMacSystemFont, &quot;Segoe UI&quot;, Arial, sans-serif" font-size="13" fill="#0c831f"><tspan x="24.34375" dy="0em">product</tspan></text></g></g></g><g class="nodes"><g class="node default screen" id="mermaid-1778921820314-flowchart-Home-0" data-look="classic" transform="translate(50.765625, 111.02500000037253)"><rect class="basic label-container" style="fill:#ffffff !important;stroke:#11ab3a !important;stroke-width:1.5px !important" x="-42.765625" y="-22.5" width="85.53125" height="45"/><g class="label" style="" transform="translate(-18.765625, -10.5)"><rect/><text x="18.765625" y="10.5" text-anchor="middle" dominant-baseline="central" font-family="-apple-system, BlinkMacSystemFont, &quot;Segoe UI&quot;, Arial, sans-serif" font-size="13" fill="#0c831f"><tspan x="18.765625" dy="0em">Home</tspan></text></g></g><g class="node default screen" id="mermaid-1778921820314-flowchart-Search-1" data-look="classic" transform="translate(282.71875, 171)"><rect class="basic label-container" style="fill:#ffffff !important;stroke:#11ab3a !important;stroke-width:1.5px !important" x="-44.5703125" y="-22.5" width="89.140625" height="45"/><g class="label" style="" transform="translate(-20.5703125, -10.5)"><rect/><text x="20.5703125" y="10.5" text-anchor="middle" dominant-baseline="central" font-family="-apple-system, BlinkMacSystemFont, &quot;Segoe UI&quot;, Arial, sans-serif" font-size="13" fill="#0c831f"><tspan x="20.5703125" dy="0em">Search</tspan></text></g></g><g class="node default screen" id="mermaid-1778921820314-flowchart-CategoryDetail-3" data-look="classic" transform="translate(558.421875, 332.75)"><rect class="basic label-container" style="fill:#ffffff !important;stroke:#11ab3a !important;stroke-width:1.5px !important" x="-71" y="-22.5" width="142" height="45"/><g class="label" style="" transform="translate(-47, -10.5)"><rect/><text x="47" y="10.5" text-anchor="middle" dominant-baseline="central" font-family="-apple-system, BlinkMacSystemFont, &quot;Segoe UI&quot;, Arial, sans-serif" font-size="13" fill="#0c831f"><tspan x="47" dy="0em">Category detail</tspan></text></g></g><g class="node default screen" id="mermaid-1778921820314-flowchart-PDP-5" data-look="classic" transform="translate(846.234375, 287)"><rect class="basic label-container" style="fill:#ffffff !important;stroke:#11ab3a !important;stroke-width:1.5px !important" x="-87.8125" y="-33" width="175.625" height="66"/><g class="label" style="" transform="translate(-63.8125, -21)"><rect/><text x="63.8125" y="21" text-anchor="middle" dominant-baseline="central" font-family="-apple-system, BlinkMacSystemFont, &quot;Segoe UI&quot;, Arial, sans-serif" font-size="13" fill="#0c831f"><tspan x="63.8125" dy="-0.6em">Product detail</tspan><tspan x="63.8125" dy="1.2em">gallery reviews share</tspan></text></g></g><g class="node default screen" id="mermaid-1778921820314-flowchart-Store-7" data-look="classic" transform="translate(1114.2265625, 82.80000000074506)"><rect class="basic label-container" style="fill:#ffffff !important;stroke:#11ab3a !important;stroke-width:1.5px !important" x="-57.4453125" y="-22.5" width="114.890625" height="45"/><g class="label" style="" transform="translate(-33.4453125, -10.5)"><rect/><text x="33.4453125" y="10.5" text-anchor="middle" dominant-baseline="central" font-family="-apple-system, BlinkMacSystemFont, &quot;Segoe UI&quot;, Arial, sans-serif" font-size="13" fill="#0c831f"><tspan x="33.4453125" dy="0em">Store page</tspan></text></g></g><g class="node default screen" id="mermaid-1778921820314-flowchart-Notifications-9" data-look="classic" transform="translate(282.71875, 76)"><rect class="basic label-container" style="fill:#ffffff !important;stroke:#11ab3a !important;stroke-width:1.5px !important" x="-63.1875" y="-22.5" width="126.375" height="45"/><g class="label" style="" transform="translate(-39.1875, -10.5)"><rect/><text x="39.1875" y="10.5" text-anchor="middle" dominant-baseline="central" font-family="-apple-system, BlinkMacSystemFont, &quot;Segoe UI&quot;, Arial, sans-serif" font-size="13" fill="#0c831f"><tspan x="39.1875" dy="0em">Notifications</tspan></text></g></g><g class="node default screen" id="mermaid-1778921820314-flowchart-Results-11" data-look="classic" transform="translate(558.421875, 171)"><rect class="basic label-container" style="fill:#ffffff !important;stroke:#11ab3a !important;stroke-width:1.5px !important" x="-66.5546875" y="-22.5" width="133.109375" height="45"/><g class="label" style="" transform="translate(-42.5546875, -10.5)"><rect/><text x="42.5546875" y="10.5" text-anchor="middle" dominant-baseline="central" font-family="-apple-system, BlinkMacSystemFont, &quot;Segoe UI&quot;, Arial, sans-serif" font-size="13" fill="#0c831f"><tspan x="42.5546875" dy="0em">Search results</tspan></text></g></g><g class="node default ext" id="mermaid-1778921820314-flowchart-FilterSheet-13" data-look="classic" transform="translate(846.234375, 171)"><rect class="basic label-container" style="fill:#fffbeb !important;stroke:#b07a00 !important" x="-93.109375" y="-33" width="186.21875" height="66"/><g class="label" style="" transform="translate(-69.109375, -21)"><rect/><text x="69.109375" y="21" text-anchor="middle" dominant-baseline="central" font-family="-apple-system, BlinkMacSystemFont, &quot;Segoe UI&quot;, Arial, sans-serif" font-size="13" fill="#0c831f"><tspan x="69.109375" dy="-0.6em">Filter sheet</tspan><tspan x="69.109375" dy="1.2em">sort price rating brand</tspan></text></g></g><g class="node default screen" id="mermaid-1778921820314-flowchart-Categories-18" data-look="classic" transform="translate(282.71875, 388.27500000037253)"><rect class="basic label-container" style="fill:#ffffff !important;stroke:#11ab3a !important;stroke-width:1.5px !important" x="-75.484375" y="-22.5" width="150.96875" height="45"/><g class="label" style="" transform="translate(-51.484375, -10.5)"><rect/><text x="51.484375" y="10.5" text-anchor="middle" dominant-baseline="central" font-family="-apple-system, BlinkMacSystemFont, &quot;Segoe UI&quot;, Arial, sans-serif" font-size="13" fill="#0c831f"><tspan x="51.484375" dy="0em">Categories index</tspan></text></g></g><g class="node default screen" id="mermaid-1778921820314-flowchart-Cart-24" data-look="classic" transform="translate(1114.2265625, 247.02500000037253)"><rect class="basic label-container" style="fill:#ffffff !important;stroke:#11ab3a !important;stroke-width:1.5px !important" x="-36.703125" y="-22.5" width="73.40625" height="45"/><g class="label" style="" transform="translate(-12.703125, -10.5)"><rect/><text x="12.703125" y="10.5" text-anchor="middle" dominant-baseline="central" font-family="-apple-system, BlinkMacSystemFont, &quot;Segoe UI&quot;, Arial, sans-serif" font-size="13" fill="#0c831f"><tspan x="12.703125" dy="0em">Cart</tspan></text></g></g><g class="node default screen" id="mermaid-1778921820314-flowchart-Wishlist-30" data-look="classic" transform="translate(1114.2265625, 342.02500000037253)"><rect class="basic label-container" style="fill:#ffffff !important;stroke:#11ab3a !important;stroke-width:1.5px !important" x="-47.8984375" y="-22.5" width="95.796875" height="45"/><g class="label" style="" transform="translate(-23.8984375, -10.5)"><rect/><text x="23.8984375" y="10.5" text-anchor="middle" dominant-baseline="central" font-family="-apple-system, BlinkMacSystemFont, &quot;Segoe UI&quot;, Arial, sans-serif" font-size="13" fill="#0c831f"><tspan x="23.8984375" dy="0em">Wishlist</tspan></text></g></g><g class="node default ext" id="mermaid-1778921820314-flowchart-ShareSheet-32" data-look="classic" transform="translate(1114.2265625, 431.02500000037253)"><g class="basic label-container outer-path"><path d="M-29.5078125 -16.5 C-8.90157261598167 -16.5, 11.704667268036658 -16.5, 29.5078125 -16.5 C29.5078125 -16.5, 29.5078125 -16.5, 29.5078125 -16.5 C29.899793222416783 -16.487429941176284, 30.291773944833565 -16.474859882352572, 30.564971129681762 -16.46609898038055 C30.946380226155416 -16.429304903555288, 31.327789322629066 -16.392510826730025, 31.617785667794347 -16.36453522808356 C32.01124372558403 -16.300923980612936, 32.40470178337372 -16.237312733142307, 32.66192987357264 -16.19572609035258 C33.04843873313171 -16.107507965364242, 33.43494759269078 -16.019289840375905, 33.693113134506866 -15.960365240143986 C33.902703987112965 -15.898159775255332, 34.11229483971906 -15.835954310366679, 34.70709809738974 -15.659419825676032 C34.96251657064591 -15.565423466455277, 35.217935043902074 -15.471427107234524, 35.69971808050967 -15.294126496209358 C35.93064878910758 -15.191900321829143, 36.16157949770549 -15.08967414744893, 36.66689419543971 -14.865986320389917 C37.0242704797793 -14.679543341760388, 37.381646764118884 -14.493100363130859, 37.60465210806497 -14.376758618035927 C37.81422958834602 -14.249711517875573, 38.02380706862707 -14.12266441771522, 38.50913836997405 -13.828453730715372 C38.77944494894543 -13.639899562608147, 39.04975152791682 -13.45134539450092, 39.37663625310506 -13.223324760821285 C39.7016325299232 -12.964148878572956, 40.02662880674134 -12.70497299632463, 40.203581022578504 -12.56385831309072 C40.41906629435078 -12.368160290695004, 40.63455156612305 -12.17246226829929, 40.98657458495752 -11.852764276612506 C41.16112393970067 -11.672527737071663, 41.33567329444382 -11.49229119753082, 41.7223994517427 -11.092964689311732 C41.86977583881095 -10.919847999107379, 42.0171522258792 -10.746731308903026, 42.40803196072249 -10.287581730669105 C42.538946808256874 -10.112167761560997, 42.66986165579125 -9.936753792452889, 43.04065470084977 -9.439924892015803 C43.16050757652223 -9.255798689979466, 43.280360452194685 -9.071672487943129, 43.61766808958821 -8.553477377123665 C43.72177216758473 -8.368630044959847, 43.82587624558125 -8.183782712796027, 44.136701055154504 -7.631881788973782 C44.31013079269575 -7.27175122816746, 44.48356053023699 -6.911620667361139, 44.59562077976091 -6.678925161519502 C44.70298131234379 -6.413742570365091, 44.81034184492667 -6.14855997921068, 44.99254146382104 -5.6985233979515835 C45.066865156652376 -5.474672277015907, 45.141188849483704 -5.25082115608023, 45.3258320751049 -4.69470517941204 C45.392062912219416 -4.442138292867992, 45.45829374933394 -4.189571406323944, 45.59412305100009 -3.6715954102791892 C45.64290182074017 -3.4211267370605, 45.69168059048025 -3.1706580638418105, 45.796311926338426 -2.6333982680507635 C45.83037240071226 -2.3692319548087606, 45.86443287508609 -2.105065641566758, 45.93156786366177 -1.584379927476752 C45.95155853173175 -1.273009136109998, 45.97154919980173 -0.961638344743244, 45.99933506731135 -0.5288510299323103 C45.99933506731135 -0.20214120114664585, 45.99933506731135 0.12456862763901855, 45.99933506731135 0.5288510299323063 C45.980190045953144 0.8270501911694117, 45.961045024594945 1.125249352406517, 45.93156786366177 1.5843799274767407 C45.90400214692955 1.7981741829854003, 45.87643643019732 2.01196843849406, 45.79631192633843 2.633398268050752 C45.74491920248448 2.897289043184742, 45.69352647863053 3.161179818318731, 45.59412305100009 3.6715954102791857 C45.50327117450732 4.018052990798473, 45.41241929801454 4.364510571317759, 45.3258320751049 4.694705179412029 C45.22787105947231 4.98974815052917, 45.12991004383971 5.284791121646311, 44.99254146382105 5.698523397951573 C44.84683848937661 6.058412561804714, 44.70113551493217 6.418301725657857, 44.59562077976091 6.678925161519498 C44.48044552625881 6.918089039772241, 44.36527027275672 7.157252918024984, 44.136701055154504 7.631881788973778 C44.01339127893855 7.850830783114038, 43.89008150272259 8.069779777254297, 43.617668089588214 8.553477377123661 C43.43072892885823 8.840666128198261, 43.243789768128245 9.127854879272864, 43.04065470084977 9.439924892015794 C42.796201887003676 9.767469392460084, 42.55174907315758 10.095013892904376, 42.4080319607225 10.2875817306691 C42.25856396061773 10.463155348562305, 42.10909596051295 10.63872896645551, 41.72239945174271 11.09296468931172 C41.54622995496077 11.274874158523751, 41.37006045817883 11.456783627735783, 40.98657458495753 11.852764276612502 C40.70899462777157 12.104855049365586, 40.4314146705856 12.35694582211867, 40.20358102257852 12.563858313090709 C39.96583878036852 12.753451424666416, 39.728096538158525 12.943044536242123, 39.37663625310507 13.223324760821283 C39.141330898000106 13.387463590337855, 38.906025542895144 13.551602419854428, 38.50913836997406 13.828453730715367 C38.196579117414274 14.017928986419161, 37.88401986485449 14.207404242122955, 37.604652108064975 14.376758618035925 C37.4138676216437 14.476290762398605, 37.22308313522244 14.575822906761285, 36.66689419543971 14.865986320389915 C36.30450736552328 15.026404220170553, 35.94212053560685 15.186822119951191, 35.69971808050968 15.294126496209357 C35.46276177570549 15.381328606777371, 35.225805470901285 15.468530717345386, 34.70709809738975 15.659419825676029 C34.490315480974694 15.723759768312844, 34.273532864559634 15.78809971094966, 33.69311313450689 15.960365240143982 C33.296361013869 16.050921322630032, 32.89960889323112 16.141477405116085, 32.661929873572646 16.19572609035258 C32.31432406183077 16.251924302271675, 31.966718250088892 16.30812251419077, 31.617785667794358 16.36453522808356 C31.23366867200019 16.401590532699547, 30.849551676206023 16.438645837315537, 30.564971129681762 16.46609898038055 C30.339757473926984 16.473321143968818, 30.1145438181722 16.480543307557085, 29.507812500000004 16.5 C29.507812500000004 16.5, 29.507812500000004 16.5, 29.5078125 16.5 C8.698411526681856 16.5, -12.110989446636289 16.5, -29.507812499999996 16.5 C-29.845975886758985 16.48915575838174, -30.184139273517978 16.478311516763483, -30.564971129681755 16.46609898038055 C-30.83803657753826 16.439756685035082, -31.11110202539477 16.413414389689613, -31.61778566779435 16.36453522808356 C-31.968432765903824 16.30784532457008, -32.3190798640133 16.251155421056602, -32.66192987357264 16.19572609035258 C-32.905805387675805 16.140063095694988, -33.149680901778964 16.0844001010374, -33.693113134506866 15.960365240143986 C-33.923055860183275 15.892119446157226, -34.152998585859685 15.823873652170466, -34.70709809738973 15.659419825676036 C-35.05261875432978 15.53226502996416, -35.398139411269824 15.405110234252284, -35.699718080509676 15.294126496209358 C-35.995336269234336 15.163265093262952, -36.29095445795899 15.032403690316546, -36.66689419543971 14.865986320389919 C-37.03171310452362 14.675660529198508, -37.39653201360752 14.485334738007097, -37.60465210806497 14.376758618035929 C-37.86644386708617 14.218058915258132, -38.128235626107376 14.059359212480334, -38.50913836997404 13.828453730715378 C-38.7150112843212 13.684845697761626, -38.920884198668354 13.541237664807873, -39.37663625310506 13.223324760821287 C-39.67381612832962 12.986331718618311, -39.97099600355417 12.749338676415334, -40.203581022578504 12.563858313090721 C-40.49389784742736 12.300200254125246, -40.78421467227623 12.03654219515977, -40.986574584957516 11.852764276612513 C-41.26395954976372 11.566341526720963, -41.54134451456993 11.279918776829414, -41.72239945174271 11.092964689311726 C-41.93613202412148 10.841902248067735, -42.14986459650024 10.590839806823743, -42.40803196072249 10.287581730669107 C-42.577976284667486 10.059871818829226, -42.74792060861248 9.832161906989347, -43.04065470084977 9.439924892015805 C-43.18435619408374 9.219160809154486, -43.32805768731772 8.998396726293166, -43.61766808958821 8.553477377123672 C-43.73280899809204 8.349033034793848, -43.847949906595865 8.144588692464026, -44.136701055154504 7.631881788973784 C-44.30259657083602 7.287396201065713, -44.468492086517536 6.9429106131576415, -44.59562077976091 6.678925161519504 C-44.71602900028 6.381514528902757, -44.8364372207991 6.084103896286011, -44.99254146382104 5.698523397951585 C-45.099933901007496 5.375074487807174, -45.20732633819395 5.0516255776627625, -45.3258320751049 4.694705179412035 C-45.38754762004032 4.459357058886899, -45.44926316497575 4.224008938361762, -45.59412305100009 3.6715954102791915 C-45.64713284638282 3.3994013146131077, -45.700142641765545 3.1272072189470235, -45.796311926338426 2.6333982680507653 C-45.83036660049289 2.3692769401648315, -45.86442127464734 2.1051556122788972, -45.93156786366177 1.5843799274767614 C-45.950650635565815 1.2871503517350604, -45.96973340746985 0.9899207759933594, -45.99933506731135 0.5288510299323123 C-45.99933506731135 0.28317933741471124, -45.99933506731135 0.03750764489711028, -45.99933506731135 -0.5288510299323043 C-45.979384352926836 -0.8395995103979526, -45.959433638542315 -1.1503479908636007, -45.93156786366177 -1.5843799274767387 C-45.890887928936436 -1.8998854680447106, -45.850207994211104 -2.2153910086126825, -45.79631192633843 -2.6333982680507573 C-45.752031390329726 -2.860769461760874, -45.70775085432101 -3.08814065547099, -45.59412305100009 -3.671595410279184 C-45.53858933686214 -3.8833695307511436, -45.483055622724194 -4.095143651223103, -45.325832075104906 -4.694705179412027 C-45.217493877122564 -5.0210025703871235, -45.10915567914022 -5.34729996136222, -44.99254146382105 -5.698523397951565 C-44.87779740289273 -5.981943446870001, -44.76305334196442 -6.265363495788437, -44.59562077976091 -6.678925161519495 C-44.44330342447253 -6.995215408845122, -44.29098606918415 -7.311505656170749, -44.136701055154504 -7.631881788973776 C-44.00443685056822 -7.866730277419753, -43.87217264598193 -8.101578765865732, -43.61766808958821 -8.553477377123667 C-43.46923595721134 -8.781508992062957, -43.320803824834464 -9.009540607002245, -43.04065470084977 -9.4399248920158 C-42.88484825599294 -9.648691333864823, -42.72904181113611 -9.857457775713847, -42.4080319607225 -10.2875817306691 C-42.25292858038761 -10.469774986842822, -42.09782520005272 -10.651968243016542, -41.72239945174272 -11.09296468931172 C-41.4666987744666 -11.356996632015344, -41.210998097190476 -11.621028574718967, -40.98657458495754 -11.852764276612497 C-40.81393610321374 -12.009549977968293, -40.64129762146994 -12.166335679324089, -40.20358102257852 -12.563858313090707 C-39.8826835902811 -12.819765475908595, -39.561786157983676 -13.075672638726482, -39.37663625310507 -13.223324760821281 C-39.08461674394084 -13.427024929093438, -38.792597234776615 -13.630725097365593, -38.50913836997406 -13.828453730715365 C-38.20839008201863 -14.010769110267063, -37.9076417940632 -14.193084489818762, -37.604652108064975 -14.376758618035923 C-37.36592565252862 -14.501302056977648, -37.127199196992265 -14.625845495919373, -36.66689419543971 -14.865986320389915 C-36.36281210482757 -15.000594441629184, -36.05873001421542 -15.135202562868454, -35.69971808050968 -15.294126496209355 C-35.40566562739135 -15.402340517147982, -35.11161317427301 -15.510554538086609, -34.70709809738975 -15.659419825676029 C-34.41411498608927 -15.74637567521028, -34.12113187478878 -15.83333152474453, -33.69311313450689 -15.96036524014398 C-33.343796114048736 -16.040094570556963, -32.994479093590584 -16.119823900969948, -32.661929873572646 -16.195726090352576 C-32.371399700169476 -16.242696755693256, -32.0808695267663 -16.289667421033936, -31.61778566779436 -16.36453522808356 C-31.358681524749578 -16.389530693144767, -31.099577381704794 -16.414526158205973, -30.564971129681766 -16.46609898038055 C-30.206774878973516 -16.477585636954057, -29.848578628265265 -16.489072293527563, -29.507812500000004 -16.5 C-29.507812500000004 -16.5, -29.5078125 -16.5, -29.5078125 -16.5" stroke="none" stroke-width="0" fill="#fffbeb" style="fill:#fffbeb !important;stroke:#b07a00 !important"/><path d="M-29.5078125 -16.5 C-8.875291461254864 -16.5, 11.757229577490271 -16.5, 29.5078125 -16.5 M-29.5078125 -16.5 C-12.753167597133224 -16.5, 4.001477305733552 -16.5, 29.5078125 -16.5 M29.5078125 -16.5 C29.5078125 -16.5, 29.5078125 -16.5, 29.5078125 -16.5 M29.5078125 -16.5 C29.5078125 -16.5, 29.5078125 -16.5, 29.5078125 -16.5 M29.5078125 -16.5 C29.758669397049523 -16.49195550757495, 30.00952629409905 -16.483911015149904, 30.564971129681762 -16.46609898038055 M29.5078125 -16.5 C29.830909990980263 -16.48963889233538, 30.15400748196053 -16.479277784670757, 30.564971129681762 -16.46609898038055 M30.564971129681762 -16.46609898038055 C30.87834937527338 -16.435867757920807, 31.191727620865002 -16.405636535461067, 31.617785667794347 -16.36453522808356 M30.564971129681762 -16.46609898038055 C30.93246430297944 -16.43064735592773, 31.299957476277118 -16.395195731474903, 31.617785667794347 -16.36453522808356 M31.617785667794347 -16.36453522808356 C31.86715399546558 -16.32421929074594, 32.116522323136806 -16.28390335340832, 32.66192987357264 -16.19572609035258 M31.617785667794347 -16.36453522808356 C31.999938635528675 -16.302751699900803, 32.38209160326301 -16.24096817171804, 32.66192987357264 -16.19572609035258 M32.66192987357264 -16.19572609035258 C32.96387747872 -16.12680851986996, 33.26582508386737 -16.05789094938734, 33.693113134506866 -15.960365240143986 M32.66192987357264 -16.19572609035258 C32.93287200837514 -16.13388531614657, 33.20381414317764 -16.072044541940564, 33.693113134506866 -15.960365240143986 M33.693113134506866 -15.960365240143986 C33.9991315658757 -15.869540576037242, 34.30514999724453 -15.7787159119305, 34.70709809738974 -15.659419825676032 M33.693113134506866 -15.960365240143986 C34.04310093702274 -15.856490697480737, 34.39308873953862 -15.75261615481749, 34.70709809738974 -15.659419825676032 M34.70709809738974 -15.659419825676032 C34.93021469765088 -15.577310854312687, 35.15333129791203 -15.495201882949342, 35.69971808050967 -15.294126496209358 M34.70709809738974 -15.659419825676032 C34.98546699684814 -15.55697749746144, 35.263835896306546 -15.454535169246851, 35.69971808050967 -15.294126496209358 M35.69971808050967 -15.294126496209358 C35.92213785248444 -15.195667861004244, 36.1445576244592 -15.097209225799128, 36.66689419543971 -14.865986320389917 M35.69971808050967 -15.294126496209358 C35.966366128548735 -15.176089315175775, 36.233014176587794 -15.05805213414219, 36.66689419543971 -14.865986320389917 M36.66689419543971 -14.865986320389917 C36.96868917253505 -14.708540074148187, 37.270484149630384 -14.551093827906458, 37.60465210806497 -14.376758618035927 M36.66689419543971 -14.865986320389917 C36.9136022534963 -14.737278884525848, 37.160310311552884 -14.60857144866178, 37.60465210806497 -14.376758618035927 M37.60465210806497 -14.376758618035927 C37.94260825947939 -14.17188761299771, 38.28056441089382 -13.967016607959492, 38.50913836997405 -13.828453730715372 M37.60465210806497 -14.376758618035927 C37.925445927408724 -14.182291519556006, 38.24623974675248 -13.987824421076088, 38.50913836997405 -13.828453730715372 M38.50913836997405 -13.828453730715372 C38.78584096125121 -13.63543798130255, 39.06254355252836 -13.442422231889728, 39.37663625310506 -13.223324760821285 M38.50913836997405 -13.828453730715372 C38.828697439672176 -13.60554315718313, 39.148256509370306 -13.382632583650887, 39.37663625310506 -13.223324760821285 M39.37663625310506 -13.223324760821285 C39.57642768296865 -13.06399641217831, 39.77621911283223 -12.904668063535336, 40.203581022578504 -12.56385831309072 M39.37663625310506 -13.223324760821285 C39.604209603791055 -13.041841069630403, 39.83178295447704 -12.860357378439522, 40.203581022578504 -12.56385831309072 M40.203581022578504 -12.56385831309072 C40.44508157116086 -12.344533904622592, 40.686582119743214 -12.125209496154465, 40.98657458495752 -11.852764276612506 M40.203581022578504 -12.56385831309072 C40.487521612326084 -12.30599098213829, 40.771462202073664 -12.048123651185863, 40.98657458495752 -11.852764276612506 M40.98657458495752 -11.852764276612506 C41.18752399684317 -11.645267510587038, 41.388473408728814 -11.437770744561568, 41.7223994517427 -11.092964689311732 M40.98657458495752 -11.852764276612506 C41.19272668914925 -11.63989530363203, 41.39887879334096 -11.427026330651557, 41.7223994517427 -11.092964689311732 M41.7223994517427 -11.092964689311732 C41.91724838851302 -10.864084040962727, 42.11209732528334 -10.635203392613723, 42.40803196072249 -10.287581730669105 M41.7223994517427 -11.092964689311732 C41.96038535790754 -10.813412902148828, 42.19837126407238 -10.533861114985925, 42.40803196072249 -10.287581730669105 M42.40803196072249 -10.287581730669105 C42.645715227436796 -9.96910780666299, 42.883398494151095 -9.650633882656876, 43.04065470084977 -9.439924892015803 M42.40803196072249 -10.287581730669105 C42.660796538334615 -9.948900223995592, 42.91356111594675 -9.610218717322077, 43.04065470084977 -9.439924892015803 M43.04065470084977 -9.439924892015803 C43.196436248327025 -9.200602601888043, 43.35221779580427 -8.961280311760284, 43.61766808958821 -8.553477377123665 M43.04065470084977 -9.439924892015803 C43.20523731639081 -9.187081797924389, 43.36981993193184 -8.934238703832975, 43.61766808958821 -8.553477377123665 M43.61766808958821 -8.553477377123665 C43.73138506433683 -8.351561373365143, 43.84510203908545 -8.149645369606624, 44.136701055154504 -7.631881788973782 M43.61766808958821 -8.553477377123665 C43.74861584435297 -8.320966378640808, 43.87956359911773 -8.088455380157953, 44.136701055154504 -7.631881788973782 M44.136701055154504 -7.631881788973782 C44.318809097882244 -7.253730541761716, 44.500917140609985 -6.8755792945496506, 44.59562077976091 -6.678925161519502 M44.136701055154504 -7.631881788973782 C44.27177538980048 -7.351397042953641, 44.40684972444645 -7.0709122969335, 44.59562077976091 -6.678925161519502 M44.59562077976091 -6.678925161519502 C44.72977996244049 -6.347549386509582, 44.86393914512008 -6.01617361149966, 44.99254146382104 -5.6985233979515835 M44.59562077976091 -6.678925161519502 C44.75391171277552 -6.287943496626401, 44.91220264579014 -5.896961831733299, 44.99254146382104 -5.6985233979515835 M44.99254146382104 -5.6985233979515835 C45.06271896218222 -5.487159954153633, 45.1328964605434 -5.275796510355683, 45.3258320751049 -4.69470517941204 M44.99254146382104 -5.6985233979515835 C45.09115448306642 -5.401516695835415, 45.189767502311796 -5.104509993719247, 45.3258320751049 -4.69470517941204 M45.3258320751049 -4.69470517941204 C45.38659576785649 -4.462986883799192, 45.447359460608084 -4.231268588186344, 45.59412305100009 -3.6715954102791892 M45.3258320751049 -4.69470517941204 C45.382533643267536 -4.4784775253928, 45.43923521143018 -4.262249871373561, 45.59412305100009 -3.6715954102791892 M45.59412305100009 -3.6715954102791892 C45.64796339414592 -3.3951366273859103, 45.70180373729175 -3.1186778444926313, 45.796311926338426 -2.6333982680507635 M45.59412305100009 -3.6715954102791892 C45.64726913996634 -3.398701475867385, 45.700415228932584 -3.125807541455581, 45.796311926338426 -2.6333982680507635 M45.796311926338426 -2.6333982680507635 C45.83735933901796 -2.31504264103674, 45.8784067516975 -1.996687014022717, 45.93156786366177 -1.584379927476752 M45.796311926338426 -2.6333982680507635 C45.82342207621249 -2.4231372991321525, 45.85053222608655 -2.2128763302135415, 45.93156786366177 -1.584379927476752 M45.93156786366177 -1.584379927476752 C45.95271683055677 -1.25496769694831, 45.97386579745177 -0.9255554664198675, 45.99933506731135 -0.5288510299323103 M45.93156786366177 -1.584379927476752 C45.95422763221618 -1.2314357416058317, 45.97688740077059 -0.8784915557349116, 45.99933506731135 -0.5288510299323103 M45.99933506731135 -0.5288510299323103 C45.99933506731135 -0.21166273131137303, 45.99933506731135 0.1055255673095642, 45.99933506731135 0.5288510299323063 M45.99933506731135 -0.5288510299323103 C45.99933506731135 -0.16693048703093938, 45.99933506731135 0.1949900558704315, 45.99933506731135 0.5288510299323063 M45.99933506731135 0.5288510299323063 C45.975140718344356 0.9056975444201818, 45.95094636937736 1.2825440589080572, 45.93156786366177 1.5843799274767407 M45.99933506731135 0.5288510299323063 C45.98547338720892 0.7447578864744027, 45.9716117071065 0.9606647430164991, 45.93156786366177 1.5843799274767407 M45.93156786366177 1.5843799274767407 C45.89623427773097 1.858420242550292, 45.860900691800175 2.132460557623843, 45.79631192633843 2.633398268050752 M45.93156786366177 1.5843799274767407 C45.89156066934808 1.8946678262596248, 45.85155347503439 2.2049557250425087, 45.79631192633843 2.633398268050752 M45.79631192633843 2.633398268050752 C45.75326669729916 2.8544264215550306, 45.71022146825989 3.075454575059309, 45.59412305100009 3.6715954102791857 M45.79631192633843 2.633398268050752 C45.735154542297344 2.9474285094840558, 45.67399715825625 3.2614587509173596, 45.59412305100009 3.6715954102791857 M45.59412305100009 3.6715954102791857 C45.51183377707152 3.9854000761657242, 45.42954450314296 4.299204742052263, 45.3258320751049 4.694705179412029 M45.59412305100009 3.6715954102791857 C45.519298958227566 3.9569321049877613, 45.44447486545504 4.242268799696337, 45.3258320751049 4.694705179412029 M45.3258320751049 4.694705179412029 C45.21751457728755 5.020940224788288, 45.109197079470206 5.347175270164547, 44.99254146382105 5.698523397951573 M45.3258320751049 4.694705179412029 C45.22828309548107 4.988507163719787, 45.130734115857244 5.2823091480275455, 44.99254146382105 5.698523397951573 M44.99254146382105 5.698523397951573 C44.8732550992468 5.99316302469494, 44.75396873467255 6.287802651438309, 44.59562077976091 6.678925161519498 M44.99254146382105 5.698523397951573 C44.90235364531016 5.921289053336332, 44.81216582679926 6.14405470872109, 44.59562077976091 6.678925161519498 M44.59562077976091 6.678925161519498 C44.43960060703844 7.002904388474604, 44.28358043431598 7.32688361542971, 44.136701055154504 7.631881788973778 M44.59562077976091 6.678925161519498 C44.43224331489855 7.018181963023929, 44.26886585003619 7.357438764528362, 44.136701055154504 7.631881788973778 M44.136701055154504 7.631881788973778 C44.00752307411918 7.861250374991, 43.87834509308385 8.090618961008222, 43.617668089588214 8.553477377123661 M44.136701055154504 7.631881788973778 C44.00216450933328 7.8707650493818955, 43.86762796351204 8.109648309790012, 43.617668089588214 8.553477377123661 M43.617668089588214 8.553477377123661 C43.398721093212984 8.889838759056682, 43.17977409683776 9.2262001409897, 43.04065470084977 9.439924892015794 M43.617668089588214 8.553477377123661 C43.42566168363651 8.848450777604677, 43.23365527768482 9.143424178085693, 43.04065470084977 9.439924892015794 M43.04065470084977 9.439924892015794 C42.91035826480494 9.61451024606635, 42.78006182876011 9.789095600116909, 42.4080319607225 10.2875817306691 M43.04065470084977 9.439924892015794 C42.875591784066394 9.661094162964448, 42.710528867283024 9.8822634339131, 42.4080319607225 10.2875817306691 M42.4080319607225 10.2875817306691 C42.193368284485274 10.539737899486546, 41.97870460824805 10.791894068303993, 41.72239945174271 11.09296468931172 M42.4080319607225 10.2875817306691 C42.224830517504216 10.502780570330724, 42.04162907428593 10.717979409992349, 41.72239945174271 11.09296468931172 M41.72239945174271 11.09296468931172 C41.46965981954889 11.35393910986155, 41.216920187355065 11.614913530411378, 40.98657458495753 11.852764276612502 M41.72239945174271 11.09296468931172 C41.5467969739612 11.274288664852678, 41.3711944961797 11.455612640393635, 40.98657458495753 11.852764276612502 M40.98657458495753 11.852764276612502 C40.71551910599265 12.098929690873433, 40.444463627027766 12.345095105134364, 40.20358102257852 12.563858313090709 M40.98657458495753 11.852764276612502 C40.81213744992224 12.011183467297872, 40.63770031488695 12.169602657983242, 40.20358102257852 12.563858313090709 M40.20358102257852 12.563858313090709 C39.90305494981014 12.80351985878883, 39.60252887704176 13.043181404486951, 39.37663625310507 13.223324760821283 M40.20358102257852 12.563858313090709 C40.03725908110551 12.696495635402691, 39.8709371396325 12.829132957714673, 39.37663625310507 13.223324760821283 M39.37663625310507 13.223324760821283 C39.06826814641472 13.438429003008284, 38.75990003972436 13.653533245195286, 38.50913836997406 13.828453730715367 M39.37663625310507 13.223324760821283 C39.11614508396652 13.405032123931369, 38.85565391482797 13.586739487041452, 38.50913836997406 13.828453730715367 M38.50913836997406 13.828453730715367 C38.205372281302225 14.012598518795917, 37.901606192630396 14.196743306876465, 37.604652108064975 14.376758618035925 M38.50913836997406 13.828453730715367 C38.20673804070573 14.011770587419422, 37.90433771143739 14.195087444123477, 37.604652108064975 14.376758618035925 M37.604652108064975 14.376758618035925 C37.363401538625624 14.502618885584072, 37.122150969186265 14.628479153132218, 36.66689419543971 14.865986320389915 M37.604652108064975 14.376758618035925 C37.33765973728112 14.516048366857087, 37.07066736649726 14.65533811567825, 36.66689419543971 14.865986320389915 M36.66689419543971 14.865986320389915 C36.320995863422176 15.019105251264621, 35.97509753140464 15.172224182139328, 35.69971808050968 15.294126496209357 M36.66689419543971 14.865986320389915 C36.413754820123856 14.978043612729476, 36.160615444807995 15.090100905069036, 35.69971808050968 15.294126496209357 M35.69971808050968 15.294126496209357 C35.457753789148285 15.383171592123741, 35.21578949778689 15.472216688038124, 34.70709809738975 15.659419825676029 M35.69971808050968 15.294126496209357 C35.429146668762826 15.393699276866911, 35.158575257015976 15.493272057524464, 34.70709809738975 15.659419825676029 M34.70709809738975 15.659419825676029 C34.311046941239795 15.776965729906395, 33.914995785089836 15.894511634136762, 33.69311313450689 15.960365240143982 M34.70709809738975 15.659419825676029 C34.39125782756738 15.753159559879904, 34.075417557745 15.846899294083778, 33.69311313450689 15.960365240143982 M33.69311313450689 15.960365240143982 C33.384628448912025 16.030774856580308, 33.076143763317155 16.101184473016634, 32.661929873572646 16.19572609035258 M33.69311313450689 15.960365240143982 C33.343167258874225 16.040238102646885, 32.99322138324157 16.120110965149784, 32.661929873572646 16.19572609035258 M32.661929873572646 16.19572609035258 C32.27979466870653 16.25750674677256, 31.89765946384042 16.31928740319254, 31.617785667794358 16.36453522808356 M32.661929873572646 16.19572609035258 C32.264467924081025 16.25998465598293, 31.867005974589404 16.324243221613283, 31.617785667794358 16.36453522808356 M31.617785667794358 16.36453522808356 C31.218311751778426 16.403071996323945, 30.818837835762498 16.441608764564325, 30.564971129681762 16.46609898038055 M31.617785667794358 16.36453522808356 C31.290616104499797 16.39609688237562, 30.96344654120524 16.42765853666768, 30.564971129681762 16.46609898038055 M30.564971129681762 16.46609898038055 C30.322255244475848 16.473882406401295, 30.079539359269933 16.481665832422035, 29.507812500000004 16.5 M30.564971129681762 16.46609898038055 C30.294747671754344 16.474764520718228, 30.024524213826925 16.48343006105591, 29.507812500000004 16.5 M29.507812500000004 16.5 C29.507812500000004 16.5, 29.5078125 16.5, 29.5078125 16.5 M29.507812500000004 16.5 C29.507812500000004 16.5, 29.5078125 16.5, 29.5078125 16.5 M29.5078125 16.5 C12.758804036059875 16.5, -3.9902044278802506 16.5, -29.507812499999996 16.5 M29.5078125 16.5 C9.480877261944748 16.5, -10.546057976110504 16.5, -29.507812499999996 16.5 M-29.507812499999996 16.5 C-29.874004557575937 16.48825693346314, -30.24019661515188 16.47651386692628, -30.564971129681755 16.46609898038055 M-29.507812499999996 16.5 C-29.868789896453798 16.488424157495604, -30.2297672929076 16.47684831499121, -30.564971129681755 16.46609898038055 M-30.564971129681755 16.46609898038055 C-30.905120303066408 16.433285198713367, -31.24526947645106 16.40047141704618, -31.61778566779435 16.36453522808356 M-30.564971129681755 16.46609898038055 C-30.867895405678375 16.436876239794902, -31.170819681674992 16.40765349920925, -31.61778566779435 16.36453522808356 M-31.61778566779435 16.36453522808356 C-32.026629201283235 16.298436576218034, -32.43547273477213 16.232337924352507, -32.66192987357264 16.19572609035258 M-31.61778566779435 16.36453522808356 C-31.93954293140778 16.31251600896739, -32.26130019502121 16.260496789851217, -32.66192987357264 16.19572609035258 M-32.66192987357264 16.19572609035258 C-32.9263685460521 16.135369688982745, -33.19080721853157 16.075013287612915, -33.693113134506866 15.960365240143986 M-32.66192987357264 16.19572609035258 C-32.93508242577589 16.133380802799174, -33.208234977979146 16.071035515245764, -33.693113134506866 15.960365240143986 M-33.693113134506866 15.960365240143986 C-33.93238863948587 15.889349526248973, -34.17166414446488 15.818333812353961, -34.70709809738973 15.659419825676036 M-33.693113134506866 15.960365240143986 C-34.04768294560619 15.855130781384624, -34.40225275670552 15.749896322625263, -34.70709809738973 15.659419825676036 M-34.70709809738973 15.659419825676036 C-35.00233434344793 15.550770157992678, -35.29757058950612 15.442120490309323, -35.699718080509676 15.294126496209358 M-34.70709809738973 15.659419825676036 C-34.96347197795406 15.565071867734192, -35.219845858518376 15.47072390979235, -35.699718080509676 15.294126496209358 M-35.699718080509676 15.294126496209358 C-35.97467040621746 15.172413257789474, -36.24962273192525 15.05070001936959, -36.66689419543971 14.865986320389919 M-35.699718080509676 15.294126496209358 C-36.058155918177086 15.135456698154671, -36.416593755844495 14.976786900099984, -36.66689419543971 14.865986320389919 M-36.66689419543971 14.865986320389919 C-37.010305529417444 14.686828847419191, -37.35371686339518 14.507671374448465, -37.60465210806497 14.376758618035929 M-36.66689419543971 14.865986320389919 C-36.98339291116606 14.700869143122583, -37.29989162689241 14.53575196585525, -37.60465210806497 14.376758618035929 M-37.60465210806497 14.376758618035929 C-37.96628091705554 14.15753710885907, -38.327909726046116 13.938315599682214, -38.50913836997404 13.828453730715378 M-37.60465210806497 14.376758618035929 C-37.8573679681674 14.223560778518594, -38.11008382826983 14.07036293900126, -38.50913836997404 13.828453730715378 M-38.50913836997404 13.828453730715378 C-38.75060229954596 13.660018946251046, -38.99206622911789 13.491584161786715, -39.37663625310506 13.223324760821287 M-38.50913836997404 13.828453730715378 C-38.70141180320618 13.694332107075413, -38.89368523643832 13.560210483435448, -39.37663625310506 13.223324760821287 M-39.37663625310506 13.223324760821287 C-39.57476915090617 13.065319047362744, -39.77290204870729 12.907313333904199, -40.203581022578504 12.563858313090721 M-39.37663625310506 13.223324760821287 C-39.54677377999684 13.087644610674827, -39.716911306888626 12.951964460528368, -40.203581022578504 12.563858313090721 M-40.203581022578504 12.563858313090721 C-40.4358606974903 12.352908058119246, -40.6681403724021 12.141957803147772, -40.986574584957516 11.852764276612513 M-40.203581022578504 12.563858313090721 C-40.51487693948661 12.281147597793394, -40.82617285639473 11.998436882496067, -40.986574584957516 11.852764276612513 M-40.986574584957516 11.852764276612513 C-41.22606899925601 11.605466630992229, -41.4655634135545 11.358168985371945, -41.72239945174271 11.092964689311726 M-40.986574584957516 11.852764276612513 C-41.141112095832064 11.693191608868943, -41.295649606706604 11.533618941125376, -41.72239945174271 11.092964689311726 M-41.72239945174271 11.092964689311726 C-41.98417145869863 10.785472394692137, -42.24594346565456 10.477980100072546, -42.40803196072249 10.287581730669107 M-41.72239945174271 11.092964689311726 C-41.981903942243314 10.788135948545898, -42.24140843274392 10.48330720778007, -42.40803196072249 10.287581730669107 M-42.40803196072249 10.287581730669107 C-42.549683773526766 10.097781206256998, -42.69133558633104 9.90798068184489, -43.04065470084977 9.439924892015805 M-42.40803196072249 10.287581730669107 C-42.655801250354315 9.955593454809101, -42.90357053998614 9.623605178949095, -43.04065470084977 9.439924892015805 M-43.04065470084977 9.439924892015805 C-43.16069495282787 9.255510829656417, -43.28073520480597 9.07109676729703, -43.61766808958821 8.553477377123672 M-43.04065470084977 9.439924892015805 C-43.16656273077469 9.246496347011098, -43.292470760699615 9.05306780200639, -43.61766808958821 8.553477377123672 M-43.61766808958821 8.553477377123672 C-43.76170077712054 8.297732755518872, -43.905733464652876 8.041988133914073, -44.136701055154504 7.631881788973784 M-43.61766808958821 8.553477377123672 C-43.79452238169985 8.239454673040456, -43.97137667381149 7.925431968957238, -44.136701055154504 7.631881788973784 M-44.136701055154504 7.631881788973784 C-44.26013502235108 7.375568515026286, -44.383568989547655 7.119255241078788, -44.59562077976091 6.678925161519504 M-44.136701055154504 7.631881788973784 C-44.30368437770453 7.285137346827921, -44.47066770025455 6.9383929046820585, -44.59562077976091 6.678925161519504 M-44.59562077976091 6.678925161519504 C-44.711571323182824 6.392525077516112, -44.82752186660474 6.106124993512719, -44.99254146382104 5.698523397951585 M-44.59562077976091 6.678925161519504 C-44.72418560000248 6.361367569891119, -44.85275042024405 6.0438099782627335, -44.99254146382104 5.698523397951585 M-44.99254146382104 5.698523397951585 C-45.12085126515687 5.312074719718636, -45.249161066492704 4.925626041485686, -45.3258320751049 4.694705179412035 M-44.99254146382104 5.698523397951585 C-45.08539990812639 5.418848558687766, -45.17825835243175 5.139173719423947, -45.3258320751049 4.694705179412035 M-45.3258320751049 4.694705179412035 C-45.39232870690525 4.441124702534768, -45.4588253387056 4.187544225657502, -45.59412305100009 3.6715954102791915 M-45.3258320751049 4.694705179412035 C-45.418476073691956 4.341413460636602, -45.51112007227902 3.988121741861169, -45.59412305100009 3.6715954102791915 M-45.59412305100009 3.6715954102791915 C-45.65635934524151 3.3520251929949483, -45.71859563948293 3.0324549757107055, -45.796311926338426 2.6333982680507653 M-45.59412305100009 3.6715954102791915 C-45.64406973969851 3.4151297200492152, -45.69401642839692 3.1586640298192386, -45.796311926338426 2.6333982680507653 M-45.796311926338426 2.6333982680507653 C-45.833919722232 2.341719629599514, -45.87152751812557 2.0500409911482635, -45.93156786366177 1.5843799274767614 M-45.796311926338426 2.6333982680507653 C-45.83887067339609 2.3033210300467415, -45.88142942045374 1.9732437920427175, -45.93156786366177 1.5843799274767614 M-45.93156786366177 1.5843799274767614 C-45.949552003745424 1.304262429137229, -45.96753614382908 1.0241449307976964, -45.99933506731135 0.5288510299323123 M-45.93156786366177 1.5843799274767614 C-45.95579537662691 1.2070168569482482, -45.98002288959205 0.829653786419735, -45.99933506731135 0.5288510299323123 M-45.99933506731135 0.5288510299323123 C-45.99933506731135 0.2652034884037794, -45.99933506731135 0.0015559468752465166, -45.99933506731135 -0.5288510299323043 M-45.99933506731135 0.5288510299323123 C-45.99933506731135 0.30923246079220873, -45.99933506731135 0.0896138916521052, -45.99933506731135 -0.5288510299323043 M-45.99933506731135 -0.5288510299323043 C-45.97350445886055 -0.9311836066452923, -45.94767385040976 -1.3335161833582805, -45.93156786366177 -1.5843799274767387 M-45.99933506731135 -0.5288510299323043 C-45.981635738504664 -0.8045323627374638, -45.963936409697986 -1.0802136955426231, -45.93156786366177 -1.5843799274767387 M-45.93156786366177 -1.5843799274767387 C-45.898062335609836 -1.844242186632656, -45.8645568075579 -2.104104445788573, -45.79631192633843 -2.6333982680507573 M-45.93156786366177 -1.5843799274767387 C-45.89759244772703 -1.8478865442618744, -45.86361703179229 -2.11139316104701, -45.79631192633843 -2.6333982680507573 M-45.79631192633843 -2.6333982680507573 C-45.751804862924665 -2.8619326321092653, -45.7072977995109 -3.0904669961677733, -45.59412305100009 -3.671595410279184 M-45.79631192633843 -2.6333982680507573 C-45.71711575220961 -3.040053884084919, -45.63791957808079 -3.4467095001190806, -45.59412305100009 -3.671595410279184 M-45.59412305100009 -3.671595410279184 C-45.53577402259233 -3.894105544226861, -45.47742499418457 -4.116615678174538, -45.325832075104906 -4.694705179412027 M-45.59412305100009 -3.671595410279184 C-45.529660393420826 -3.9174194619214404, -45.46519773584156 -4.163243513563697, -45.325832075104906 -4.694705179412027 M-45.325832075104906 -4.694705179412027 C-45.20789806728007 -5.049903620748042, -45.089964059455234 -5.405102062084057, -44.99254146382105 -5.698523397951565 M-45.325832075104906 -4.694705179412027 C-45.20644991951632 -5.054265211081449, -45.087067763927735 -5.41382524275087, -44.99254146382105 -5.698523397951565 M-44.99254146382105 -5.698523397951565 C-44.87106423881408 -5.998574492321161, -44.7495870138071 -6.298625586690758, -44.59562077976091 -6.678925161519495 M-44.99254146382105 -5.698523397951565 C-44.83605979271382 -6.085036150953729, -44.67957812160658 -6.471548903955894, -44.59562077976091 -6.678925161519495 M-44.59562077976091 -6.678925161519495 C-44.4317578655323 -7.019190009019894, -44.267894951303695 -7.359454856520294, -44.136701055154504 -7.631881788973776 M-44.59562077976091 -6.678925161519495 C-44.42108589091272 -7.041350592661131, -44.24655100206453 -7.403776023802768, -44.136701055154504 -7.631881788973776 M-44.136701055154504 -7.631881788973776 C-43.97060809987046 -7.926796649816079, -43.80451514458642 -8.221711510658382, -43.61766808958821 -8.553477377123667 M-44.136701055154504 -7.631881788973776 C-44.00397604881423 -7.867548477595187, -43.871251042473965 -8.103215166216597, -43.61766808958821 -8.553477377123667 M-43.61766808958821 -8.553477377123667 C-43.400530064211324 -8.887059693826505, -43.18339203883444 -9.22064201052934, -43.04065470084977 -9.4399248920158 M-43.61766808958821 -8.553477377123667 C-43.43198713471127 -8.838733186132405, -43.24630617983434 -9.123988995141145, -43.04065470084977 -9.4399248920158 M-43.04065470084977 -9.4399248920158 C-42.85376784804781 -9.690336249027887, -42.66688099524585 -9.940747606039974, -42.4080319607225 -10.2875817306691 M-43.04065470084977 -9.4399248920158 C-42.87530381142839 -9.661480020064534, -42.709952922007005 -9.883035148113269, -42.4080319607225 -10.2875817306691 M-42.4080319607225 -10.2875817306691 C-42.23066925695873 -10.495922054733764, -42.053306553194965 -10.70426237879843, -41.72239945174272 -11.09296468931172 M-42.4080319607225 -10.2875817306691 C-42.16233078635149 -10.576196310878165, -41.91662961198048 -10.864810891087231, -41.72239945174272 -11.09296468931172 M-41.72239945174272 -11.09296468931172 C-41.487834597208504 -11.335172159751005, -41.25326974267429 -11.57737963019029, -40.98657458495754 -11.852764276612497 M-41.72239945174272 -11.09296468931172 C-41.46336407464283 -11.360439983367328, -41.20432869754295 -11.627915277422934, -40.98657458495754 -11.852764276612497 M-40.98657458495754 -11.852764276612497 C-40.7714317909586 -12.04815126975593, -40.55628899695967 -12.243538262899362, -40.20358102257852 -12.563858313090707 M-40.98657458495754 -11.852764276612497 C-40.70318488842298 -12.110131300924689, -40.41979519188843 -12.36749832523688, -40.20358102257852 -12.563858313090707 M-40.20358102257852 -12.563858313090707 C-40.03178938939012 -12.700857568991104, -39.859997756201714 -12.837856824891501, -39.37663625310507 -13.223324760821281 M-40.20358102257852 -12.563858313090707 C-39.94860665132779 -12.767193589010187, -39.69363228007706 -12.970528864929667, -39.37663625310507 -13.223324760821281 M-39.37663625310507 -13.223324760821281 C-39.06247339244949 -13.442471172523568, -38.748310531793905 -13.661617584225855, -38.50913836997406 -13.828453730715365 M-39.37663625310507 -13.223324760821281 C-39.175257934491995 -13.363797558358849, -38.97387961587893 -13.504270355896416, -38.50913836997406 -13.828453730715365 M-38.50913836997406 -13.828453730715365 C-38.234269011482105 -13.995081151144834, -37.95939965299016 -14.161708571574303, -37.604652108064975 -14.376758618035923 M-38.50913836997406 -13.828453730715365 C-38.31329485321698 -13.94717522147776, -38.1174513364599 -14.065896712240153, -37.604652108064975 -14.376758618035923 M-37.604652108064975 -14.376758618035923 C-37.29477929377443 -14.538419066768288, -36.9849064794839 -14.700079515500653, -36.66689419543971 -14.865986320389915 M-37.604652108064975 -14.376758618035923 C-37.408242644564055 -14.479225309338089, -37.211833181063135 -14.581692000640254, -36.66689419543971 -14.865986320389915 M-36.66689419543971 -14.865986320389915 C-36.39005660708044 -14.988534108661282, -36.11321901872117 -15.11108189693265, -35.69971808050968 -15.294126496209355 M-36.66689419543971 -14.865986320389915 C-36.33107492508741 -15.014643549650165, -35.995255654735104 -15.163300778910415, -35.69971808050968 -15.294126496209355 M-35.69971808050968 -15.294126496209355 C-35.4308399169041 -15.393076145898709, -35.16196175329851 -15.492025795588061, -34.70709809738975 -15.659419825676029 M-35.69971808050968 -15.294126496209355 C-35.39061690298987 -15.40787858683661, -35.081515725470055 -15.521630677463865, -34.70709809738975 -15.659419825676029 M-34.70709809738975 -15.659419825676029 C-34.359935071465856 -15.762455989474333, -34.01277204554196 -15.865492153272637, -33.69311313450689 -15.96036524014398 M-34.70709809738975 -15.659419825676029 C-34.332715371071494 -15.770534653672255, -33.958332644753234 -15.881649481668482, -33.69311313450689 -15.96036524014398 M-33.69311313450689 -15.96036524014398 C-33.311300960934105 -16.04751137720469, -32.92948878736132 -16.134657514265395, -32.661929873572646 -16.195726090352576 M-33.69311313450689 -15.96036524014398 C-33.36326279892784 -16.0356514267653, -33.03341246334879 -16.110937613386618, -32.661929873572646 -16.195726090352576 M-32.661929873572646 -16.195726090352576 C-32.409946076442566 -16.236464876509036, -32.157962279312486 -16.277203662665496, -31.61778566779436 -16.36453522808356 M-32.661929873572646 -16.195726090352576 C-32.28688577855014 -16.25636031112542, -31.911841683527644 -16.316994531898263, -31.61778566779436 -16.36453522808356 M-31.61778566779436 -16.36453522808356 C-31.280377945801483 -16.397084545232058, -30.942970223808608 -16.429633862380555, -30.564971129681766 -16.46609898038055 M-31.61778566779436 -16.36453522808356 C-31.205726372719088 -16.404286092705664, -30.793667077643814 -16.44403695732777, -30.564971129681766 -16.46609898038055 M-30.564971129681766 -16.46609898038055 C-30.187233317443376 -16.478212296796986, -29.809495505204985 -16.490325613213425, -29.507812500000004 -16.5 M-30.564971129681766 -16.46609898038055 C-30.293091138145687 -16.474817642526812, -30.021211146609605 -16.483536304673073, -29.507812500000004 -16.5 M-29.507812500000004 -16.5 C-29.507812500000004 -16.5, -29.5078125 -16.5, -29.5078125 -16.5 M-29.507812500000004 -16.5 C-29.507812500000004 -16.5, -29.5078125 -16.5, -29.5078125 -16.5" stroke="#b07a00" stroke-width="1.3" fill="none" stroke-dasharray="0 0" style="fill:#fffbeb !important;stroke:#b07a00 !important"/></g><g class="label" style="" transform="translate(-35.8828125, -10.5)"><rect/><text x="35.8828125" y="10.5" text-anchor="middle" dominant-baseline="central" font-family="-apple-system, BlinkMacSystemFont, &quot;Segoe UI&quot;, Arial, sans-serif" font-size="13" fill="#0c831f"><tspan x="35.8828125" dy="0em">Share sheet</tspan></text></g></g><g class="label edgeLabel" id="Store---Store---1" transform="translate(1221.721875000745, 47.75)"><rect width="0.1" height="0.1"/><g class="label" style="" transform="translate(0, 0)"><rect/><text x="0" y="0" text-anchor="middle" dominant-baseline="central" font-family="-apple-system, BlinkMacSystemFont, &quot;Segoe UI&quot;, Arial, sans-serif" font-size="13" fill="#0c831f"><tspan x="0" dy="0em"/></text></g></g><g class="label edgeLabel" id="Store---Store---2" transform="translate(1422.2750000022352, 82.80000000074506)"><rect width="0.1" height="0.1"/><g class="label" style="" transform="translate(0, 0)"><rect/><text x="0" y="0" text-anchor="middle" dominant-baseline="central" font-family="-apple-system, BlinkMacSystemFont, &quot;Segoe UI&quot;, Arial, sans-serif" font-size="13" fill="#0c831f"><tspan x="0" dy="0em"/></text></g></g></g></g></g><defs><filter id="mermaid-1778921820314-drop-shadow" height="130%" width="130%"><feDropShadow dx="4" dy="4" stdDeviation="0" flood-opacity="0.06" flood-color="#000000"/></filter></defs><defs><filter id="mermaid-1778921820314-drop-shadow-small" height="150%" width="150%"><feDropShadow dx="2" dy="2" stdDeviation="0" flood-opacity="0.06" flood-color="#000000"/></filter></defs><linearGradient id="mermaid-1778921820314-gradient" gradientUnits="objectBoundingBox" x1="0%" y1="0%" x2="100%" y2="0%"><stop offset="0%" stop-color="#11ab3a" stop-opacity="1"/><stop offset="100%" stop-color="hsl(24.7058823529, 40.9523809524%, 85.8823529412%)" stop-opacity="1"/></linearGradient></svg>