<svg id="mermaid-1778921823946" width="1656.4468994140625" xmlns="http://www.w3.org/2000/svg" xmlns:xlink="http://www.w3.org/1999/xlink" class="flowchart" height="552.0999755859375" viewBox="0 0 1656.4468994140625 552.0999755859375" role="graphics-document document" aria-roledescription="flowchart-v2"><style>#mermaid-1778921823946{font-family:-apple-system,BlinkMacSystemFont,"Segoe UI",Arial,sans-serif;font-size:14px;fill:#0c831f;}@keyframes edge-animation-frame{from{stroke-dashoffset:0;}}@keyframes dash{to{stroke-dashoffset:0;}}#mermaid-1778921823946 .edge-animation-slow{stroke-dasharray:9,5!important;stroke-dashoffset:900;animation:dash 50s linear infinite;stroke-linecap:round;}#mermaid-1778921823946 .edge-animation-fast{stroke-dasharray:9,5!important;stroke-dashoffset:900;animation:dash 20s linear infinite;stroke-linecap:round;}#mermaid-1778921823946 .error-icon{fill:#fafbfc;}#mermaid-1778921823946 .error-text{fill:#050403;stroke:#050403;}#mermaid-1778921823946 .edge-thickness-normal{stroke-width:1px;}#mermaid-1778921823946 .edge-thickness-thick{stroke-width:3.5px;}#mermaid-1778921823946 .edge-pattern-solid{stroke-dasharray:0;}#mermaid-1778921823946 .edge-thickness-invisible{stroke-width:0;fill:none;}#mermaid-1778921823946 .edge-pattern-dashed{stroke-dasharray:3;}#mermaid-1778921823946 .edge-pattern-dotted{stroke-dasharray:2;}#mermaid-1778921823946 .marker{fill:#5a6478;stroke:#5a6478;}#mermaid-1778921823946 .marker.cross{stroke:#5a6478;}#mermaid-1778921823946 svg{font-family:-apple-system,BlinkMacSystemFont,"Segoe UI",Arial,sans-serif;font-size:14px;}#mermaid-1778921823946 p{margin:0;}#mermaid-1778921823946 .label{font-family:-apple-system,BlinkMacSystemFont,"Segoe UI",Arial,sans-serif;color:#0c831f;}#mermaid-1778921823946 .cluster-label text{fill:#050403;}#mermaid-1778921823946 .cluster-label span{color:#050403;}#mermaid-1778921823946 .cluster-label span p{background-color:transparent;}#mermaid-1778921823946 .label text,#mermaid-1778921823946 span{fill:#0c831f;color:#0c831f;}#mermaid-1778921823946 .node rect,#mermaid-1778921823946 .node circle,#mermaid-1778921823946 .node ellipse,#mermaid-1778921823946 .node polygon,#mermaid-1778921823946 .node path{fill:#ecfdf3;stroke:#11ab3a;stroke-width:1px;}#mermaid-1778921823946 .rough-node .label text,#mermaid-1778921823946 .node .label text,#mermaid-1778921823946 .image-shape .label,#mermaid-1778921823946 .icon-shape .label{text-anchor:middle;}#mermaid-1778921823946 .node .katex path{fill:#000;stroke:#000;stroke-width:1px;}#mermaid-1778921823946 .rough-node .label,#mermaid-1778921823946 .node .label,#mermaid-1778921823946 .image-shape .label,#mermaid-1778921823946 .icon-shape .label{text-align:center;}#mermaid-1778921823946 .node.clickable{cursor:pointer;}#mermaid-1778921823946 .root .anchor path{fill:#5a6478!important;stroke-width:0;stroke:#5a6478;}#mermaid-1778921823946 .arrowheadPath{fill:#0b0b0b;}#mermaid-1778921823946 .edgePath .path{stroke:#5a6478;stroke-width:1px;}#mermaid-1778921823946 .flowchart-link{stroke:#5a6478;fill:none;}#mermaid-1778921823946 .edgeLabel{background-color:hsl(24.7058823529, 80.9523809524%, 95.8823529412%);text-align:center;}#mermaid-1778921823946 .edgeLabel p{background-color:hsl(24.7058823529, 80.9523809524%, 95.8823529412%);}#mermaid-1778921823946 .edgeLabel rect{opacity:0.5;background-color:hsl(24.7058823529, 80.9523809524%, 95.8823529412%);fill:hsl(24.7058823529, 80.9523809524%, 95.8823529412%);}#mermaid-1778921823946 .labelBkg{background-color:rgba(253, 243.0000000001, 236.0000000001, 0.5);}#mermaid-1778921823946 .cluster rect{fill:#fafbfc;stroke:hsl(210, 0%, 88.431372549%);stroke-width:1px;}#mermaid-1778921823946 .cluster text{fill:#050403;}#mermaid-1778921823946 .cluster span{color:#050403;}#mermaid-1778921823946 div.mermaidTooltip{position:absolute;text-align:center;max-width:200px;padding:2px;font-family:-apple-system,BlinkMacSystemFont,"Segoe UI",Arial,sans-serif;font-size:12px;background:#fafbfc;border:1px solid hsl(210, 0%, 88.431372549%);border-radius:2px;pointer-events:none;z-index:100;}#mermaid-1778921823946 .flowchartTitleText{text-anchor:middle;font-size:18px;fill:#0c831f;}#mermaid-1778921823946 rect.text{fill:none;stroke-width:0;}#mermaid-1778921823946 .icon-shape,#mermaid-1778921823946 .image-shape{background-color:hsl(24.7058823529, 80.9523809524%, 95.8823529412%);text-align:center;}#mermaid-1778921823946 .icon-shape p,#mermaid-1778921823946 .image-shape p{background-color:hsl(24.7058823529, 80.9523809524%, 95.8823529412%);padding:2px;}#mermaid-1778921823946 .icon-shape .label rect,#mermaid-1778921823946 .image-shape .label rect{opacity:0.5;background-color:hsl(24.7058823529, 80.9523809524%, 95.8823529412%);fill:hsl(24.7058823529, 80.9523809524%, 95.8823529412%);}#mermaid-1778921823946 .label-icon{display:inline-block;height:1em;overflow:visible;vertical-align:-0.125em;}#mermaid-1778921823946 .node .label-icon path{fill:currentColor;stroke:revert;stroke-width:revert;}#mermaid-1778921823946 .node .neo-node{stroke:#11ab3a;}#mermaid-1778921823946 [data-look="neo"].node rect,#mermaid-1778921823946 [data-look="neo"].cluster rect,#mermaid-1778921823946 [data-look="neo"].node polygon{stroke:url(#mermaid-1778921823946-gradient);filter:drop-shadow( 1px 2px 2px rgba(185,185,185,1));}#mermaid-1778921823946 [data-look="neo"].node path{stroke:url(#mermaid-1778921823946-gradient);stroke-width:1px;}#mermaid-1778921823946 [data-look="neo"].node .outer-path{filter:drop-shadow( 1px 2px 2px rgba(185,185,185,1));}#mermaid-1778921823946 [data-look="neo"].node .neo-line path{stroke:#11ab3a;filter:none;}#mermaid-1778921823946 [data-look="neo"].node circle{stroke:url(#mermaid-1778921823946-gradient);filter:drop-shadow( 1px 2px 2px rgba(185,185,185,1));}#mermaid-1778921823946 [data-look="neo"].node circle .state-start{fill:#000000;}#mermaid-1778921823946 [data-look="neo"].icon-shape .icon{fill:url(#mermaid-1778921823946-gradient);filter:drop-shadow( 1px 2px 2px rgba(185,185,185,1));}#mermaid-1778921823946 [data-look="neo"].icon-shape .icon-neo path{stroke:url(#mermaid-1778921823946-gradient);filter:drop-shadow( 1px 2px 2px rgba(185,185,185,1));}#mermaid-1778921823946 :root{--mermaid-font-family:"trebuchet ms",verdana,arial,sans-serif;}#mermaid-1778921823946 .screen&gt;*{fill:rgb(255, 255, 255)!important;stroke:rgb(17, 171, 58)!important;stroke-width:1.5px!important;}#mermaid-1778921823946 .screen span{fill:rgb(255, 255, 255)!important;stroke:rgb(17, 171, 58)!important;stroke-width:1.5px!important;}#mermaid-1778921823946 .payment&gt;*{fill:rgb(254, 242, 242)!important;stroke:rgb(220, 38, 38)!important;}#mermaid-1778921823946 .payment span{fill:rgb(254, 242, 242)!important;stroke:rgb(220, 38, 38)!important;}#mermaid-1778921823946 .external&gt;*{fill:rgb(255, 251, 235)!important;stroke:rgb(176, 122, 0)!important;}#mermaid-1778921823946 .external span{fill:rgb(255, 251, 235)!important;stroke:rgb(176, 122, 0)!important;}</style><g><marker id="mermaid-1778921823946_flowchart-v2-pointEnd" class="marker flowchart-v2" viewBox="0 0 10 10" refX="5" refY="5" markerUnits="userSpaceOnUse" markerWidth="8" markerHeight="8" orient="auto"><path d="M 0 0 L 10 5 L 0 10 z" class="arrowMarkerPath" style="stroke-width: 1; stroke-dasharray: 1, 0;"/></marker><marker id="mermaid-1778921823946_flowchart-v2-pointStart" class="marker flowchart-v2" viewBox="0 0 10 10" refX="4.5" refY="5" markerUnits="userSpaceOnUse" markerWidth="8" markerHeight="8" orient="auto"><path d="M 0 5 L 10 10 L 10 0 z" class="arrowMarkerPath" style="stroke-width: 1; stroke-dasharray: 1, 0;"/></marker><marker id="mermaid-1778921823946_flowchart-v2-pointEnd-margin" class="marker flowchart-v2" viewBox="0 0 11.5 14" refX="11.5" refY="7" markerUnits="userSpaceOnUse" markerWidth="10.5" markerHeight="14" orient="auto"><path d="M 0 0 L 11.5 7 L 0 14 z" class="arrowMarkerPath" style="stroke-width: 0; stroke-dasharray: 1, 0;"/></marker><marker id="mermaid-1778921823946_flowchart-v2-pointStart-margin" class="marker flowchart-v2" viewBox="0 0 11.5 14" refX="1" refY="7" markerUnits="userSpaceOnUse" markerWidth="11.5" markerHeight="14" orient="auto"><polygon points="0,7 11.5,14 11.5,0" class="arrowMarkerPath" style="stroke-width: 0; stroke-dasharray: 1, 0;"/></marker><marker id="mermaid-1778921823946_flowchart-v2-circleEnd" class="marker flowchart-v2" viewBox="0 0 10 10" refX="11" refY="5" markerUnits="userSpaceOnUse" markerWidth="11" markerHeight="11" orient="auto"><circle cx="5" cy="5" r="5" class="arrowMarkerPath" style="stroke-width: 1; stroke-dasharray: 1, 0;"/></marker><marker id="mermaid-1778921823946_flowchart-v2-circleStart" class="marker flowchart-v2" viewBox="0 0 10 10" refX="-1" refY="5" markerUnits="userSpaceOnUse" markerWidth="11" markerHeight="11" orient="auto"><circle cx="5" cy="5" r="5" class="arrowMarkerPath" style="stroke-width: 1; stroke-dasharray: 1, 0;"/></marker><marker id="mermaid-1778921823946_flowchart-v2-circleEnd-margin" class="marker flowchart-v2" viewBox="0 0 10 10" refY="5" refX="12.25" markerUnits="userSpaceOnUse" markerWidth="14" markerHeight="14" orient="auto"><circle cx="5" cy="5" r="5" class="arrowMarkerPath" style="stroke-width: 0; stroke-dasharray: 1, 0;"/></marker><marker id="mermaid-1778921823946_flowchart-v2-circleStart-margin" class="marker flowchart-v2" viewBox="0 0 10 10" refX="-2" refY="5" markerUnits="userSpaceOnUse" markerWidth="14" markerHeight="14" orient="auto"><circle cx="5" cy="5" r="5" class="arrowMarkerPath" style="stroke-width: 0; stroke-dasharray: 1, 0;"/></marker><marker id="mermaid-1778921823946_flowchart-v2-crossEnd" class="marker cross flowchart-v2" viewBox="0 0 11 11" refX="12" refY="5.2" markerUnits="userSpaceOnUse" markerWidth="11" markerHeight="11" orient="auto"><path d="M 1,1 l 9,9 M 10,1 l -9,9" class="arrowMarkerPath" style="stroke-width: 2; stroke-dasharray: 1, 0;"/></marker><marker id="mermaid-1778921823946_flowchart-v2-crossStart" class="marker cross flowchart-v2" viewBox="0 0 11 11" refX="-1" refY="5.2" markerUnits="userSpaceOnUse" markerWidth="11" markerHeight="11" orient="auto"><path d="M 1,1 l 9,9 M 10,1 l -9,9" class="arrowMarkerPath" style="stroke-width: 2; stroke-dasharray: 1, 0;"/></marker><marker id="mermaid-1778921823946_flowchart-v2-crossEnd-margin" class="marker cross flowchart-v2" viewBox="0 0 15 15" refX="17.7" refY="7.5" markerUnits="userSpaceOnUse" markerWidth="12" markerHeight="12" orient="auto"><path d="M 1,1 L 14,14 M 1,14 L 14,1" class="arrowMarkerPath" style="stroke-width: 2.5;"/></marker><marker id="mermaid-1778921823946_flowchart-v2-crossStart-margin" class="marker cross flowchart-v2" viewBox="0 0 15 15" refX="-3.5" refY="7.5" markerUnits="userSpaceOnUse" markerWidth="12" markerHeight="12" orient="auto"><path d="M 1,1 L 14,14 M 1,14 L 14,1" class="arrowMarkerPath" style="stroke-width: 2.5; stroke-dasharray: 1, 0;"/></marker><g class="root"><g class="clusters"/><g class="edgePaths"><path d="M182.297,83.75L191.132,83.75C199.966,83.75,217.635,83.75,234.638,83.75C251.641,83.75,267.977,83.75,276.145,83.75L284.313,83.75" id="mermaid-1778921823946-L_Cart_CheckoutAddr_0" class="edge-thickness-normal edge-pattern-solid edge-thickness-normal edge-pattern-solid flowchart-link" style=";" data-edge="true" data-et="edge" data-id="L_Cart_CheckoutAddr_0" data-points="W3sieCI6MTgyLjI5Njg3NSwieSI6ODMuNzV9LHsieCI6MjM1LjMwNDY4NzUsInkiOjgzLjc1fSx7IngiOjI4OC4zMTI1LCJ5Ijo4My43NX1d" data-look="classic" marker-end="url(#mermaid-1778921823946_flowchart-v2-pointEnd)"/><path d="M424.516,59.5L433.174,56.417C441.833,53.333,459.151,47.167,478.84,44.083C498.529,41,520.589,41,531.618,41L542.648,41" id="mermaid-1778921823946-L_CheckoutAddr_NewAddress_0" class="edge-thickness-normal edge-pattern-solid edge-thickness-normal edge-pattern-solid flowchart-link" style=";" data-edge="true" data-et="edge" data-id="L_CheckoutAddr_NewAddress_0" data-points="W3sieCI6NDI0LjUxNTYyNSwieSI6NTkuNDk5ODY5ODUwOTc5Mzd9LHsieCI6NDc2LjQ2ODc1LCJ5Ijo0MX0seyJ4Ijo1NDYuNjQ4NDM3NSwieSI6NDF9XQ==" data-look="classic" marker-end="url(#mermaid-1778921823946_flowchart-v2-pointEnd)"/><path d="M546.648,72.18L534.952,76.65C523.255,81.12,499.862,90.06,480.168,93.514C460.474,96.968,444.479,94.936,436.481,93.921L428.484,92.905" id="mermaid-1778921823946-L_NewAddress_CheckoutAddr_0" class="edge-thickness-normal edge-pattern-solid edge-thickness-normal edge-pattern-solid flowchart-link" style=";" data-edge="true" data-et="edge" data-id="L_NewAddress_CheckoutAddr_0" data-points="W3sieCI6NTQ2LjY0ODQzNzUsInkiOjcyLjE3OTU1MzE3NjE1NTY2fSx7IngiOjQ3Ni40Njg3NSwieSI6OTl9LHsieCI6NDI0LjUxNTYyNSwieSI6OTIuNDAwNjMxMjIyNzUwMDV9XQ==" data-look="classic" marker-end="url(#mermaid-1778921823946_flowchart-v2-pointEnd)"/><path d="M410.5,116.75L421.495,123.458C432.49,130.167,454.479,143.583,473.466,150.292C492.453,157,508.438,157,516.43,157L524.422,157" id="mermaid-1778921823946-L_CheckoutAddr_CheckoutReview_0" class="edge-thickness-normal edge-pattern-solid edge-thickness-normal edge-pattern-solid flowchart-link" style=";" data-edge="true" data-et="edge" data-id="L_CheckoutAddr_CheckoutReview_0" data-points="W3sieCI6NDEwLjUwMDEzMzMxOTExMjY1LCJ5IjoxMTYuNzV9LHsieCI6NDc2LjQ2ODc1LCJ5IjoxNTd9LHsieCI6NTI4LjQyMTg3NSwieSI6MTU3fV0=" data-look="classic" marker-end="url(#mermaid-1778921823946_flowchart-v2-pointEnd)"/><path d="M728.047,140.533L734.603,139.451C741.159,138.37,754.271,136.207,766.716,135.125C779.161,134.043,790.94,134.043,796.829,134.043L802.719,134.043" id="mermaid-1778921823946-L_CheckoutReview_OrderSuccess_0" class="edge-thickness-normal edge-pattern-solid edge-thickness-normal edge-pattern-solid flowchart-link" style=";" data-edge="true" data-et="edge" data-id="L_CheckoutReview_OrderSuccess_0" data-points="W3sieCI6NzI4LjA0Njg3NSwieSI6MTQwLjUzMjk4MDQ5MDI2MzZ9LHsieCI6NzY3LjM4MjgxMjUsInkiOjEzNC4wNDMzNTU5NDE3NzI0Nn0seyJ4Ijo4MDYuNzE4NzUsInkiOjEzNC4wNDMzNTU5NDE3NzI0Nn1d" data-look="classic" marker-end="url(#mermaid-1778921823946_flowchart-v2-pointEnd)"/><path d="M682.928,124L697.004,115.507C711.08,107.014,739.231,90.029,771.005,81.536C802.779,73.043,838.174,73.043,876.587,73.043C915,73.043,956.43,73.043,1001.538,73.043C1046.646,73.043,1095.432,73.043,1146.771,73.043C1198.109,73.043,1252,73.043,1299.7,77.881C1347.399,82.718,1388.908,92.392,1409.663,97.23L1430.417,102.067" id="mermaid-1778921823946-L_CheckoutReview_RazorpayWV_0" class="edge-thickness-normal edge-pattern-solid edge-thickness-normal edge-pattern-solid flowchart-link" style=";" data-edge="true" data-et="edge" data-id="L_CheckoutReview_RazorpayWV_0" data-points="W3sieCI6NjgyLjkyODA2MjMwNzQwNzMsInkiOjEyNH0seyJ4Ijo3NjcuMzgyODEyNSwieSI6NzMuMDQzMzU1OTQxNzcyNDZ9LHsieCI6ODczLjU3MDMxMjUsInkiOjczLjA0MzM1NTk0MTc3MjQ2fSx7IngiOjk5Ny44NTkzNzUsInkiOjczLjA0MzM1NTk0MTc3MjQ2fSx7IngiOjExNDQuMjE4NzUsInkiOjczLjA0MzM1NTk0MTc3MjQ2fSx7IngiOjEzMDUuODkwNjI1LCJ5Ijo3My4wNDMzNTU5NDE3NzI0Nn0seyJ4IjoxNDM0LjMxMjUsInkiOjEwMi45NzQ3NTMyOTgzNDQzMX1d" data-look="classic" marker-end="url(#mermaid-1778921823946_flowchart-v2-pointEnd)"/><path d="M1434.313,115.982L1412.909,118.992C1391.505,122.002,1348.698,128.023,1300.349,131.033C1252,134.043,1198.109,134.043,1146.771,134.043C1095.432,134.043,1046.646,134.043,1013.346,134.043C980.047,134.043,962.234,134.043,953.328,134.043L944.422,134.043" id="mermaid-1778921823946-L_RazorpayWV_OrderSuccess_0" class="edge-thickness-normal edge-pattern-solid edge-thickness-normal edge-pattern-solid flowchart-link" style=";" data-edge="true" data-et="edge" data-id="L_RazorpayWV_OrderSuccess_0" data-points="W3sieCI6MTQzNC4zMTI1LCJ5IjoxMTUuOTgxNzQxMjg0NzUxMjV9LHsieCI6MTMwNS44OTA2MjUsInkiOjEzNC4wNDMzNTU5NDE3NzI0Nn0seyJ4IjoxMTQ0LjIxODc1LCJ5IjoxMzQuMDQzMzU1OTQxNzcyNDZ9LHsieCI6OTk3Ljg1OTM3NSwieSI6MTM0LjA0MzM1NTk0MTc3MjQ2fSx7IngiOjk0MC40MjE4NzUsInkiOjEzNC4wNDMzNTU5NDE3NzI0Nn1d" data-look="classic" marker-end="url(#mermaid-1778921823946_flowchart-v2-pointEnd)"/><path d="M1434.313,130.259L1412.909,142.049C1391.505,153.839,1348.698,177.42,1300.349,189.21C1252,201,1198.109,201,1146.771,201C1095.432,201,1046.646,201,1001.538,201C956.43,201,915,201,876.587,201C838.174,201,802.779,201,779.16,199.128C755.542,197.256,743.701,193.512,737.781,191.64L731.861,189.768" id="mermaid-1778921823946-L_RazorpayWV_CheckoutReview_0" class="edge-thickness-normal edge-pattern-solid edge-thickness-normal edge-pattern-solid flowchart-link" style=";" data-edge="true" data-et="edge" data-id="L_RazorpayWV_CheckoutReview_0" data-points="W3sieCI6MTQzNC4zMTI1LCJ5IjoxMzAuMjU4ODYwMzgxMDcwNzV9LHsieCI6MTMwNS44OTA2MjUsInkiOjIwMX0seyJ4IjoxMTQ0LjIxODc1LCJ5IjoyMDF9LHsieCI6OTk3Ljg1OTM3NSwieSI6MjAxfSx7IngiOjg3My41NzAzMTI1LCJ5IjoyMDF9LHsieCI6NzY3LjM4MjgxMjUsInkiOjIwMX0seyJ4Ijo3MjguMDQ2ODc1LCJ5IjoxODguNTYxNjE5MjI0MDc1fV0=" data-look="classic" marker-end="url(#mermaid-1778921823946_flowchart-v2-pointEnd)"/><path d="M892.567,156.543L910.116,177.328C927.665,198.112,962.762,239.681,995.828,270.723C1028.893,301.765,1059.927,322.279,1075.444,332.537L1090.961,342.794" id="mermaid-1778921823946-L_OrderSuccess_OrderDetail_0" class="edge-thickness-normal edge-pattern-solid edge-thickness-normal edge-pattern-solid flowchart-link" style=";" data-edge="true" data-et="edge" data-id="L_OrderSuccess_OrderDetail_0" data-points="W3sieCI6ODkyLjU2NzQ0MzUzNDAwMzEsInkiOjE1Ni41NDMzNTU5NDE3NzI0Nn0seyJ4Ijo5OTcuODU5Mzc1LCJ5IjoyODEuMjV9LHsieCI6MTA5NC4yOTc3MjI4NjgyMTcsInkiOjM0NX1d" data-look="classic" marker-end="url(#mermaid-1778921823946_flowchart-v2-pointEnd)"/><path d="M929.125,393.25L940.581,393.25C952.036,393.25,974.948,393.25,995.313,392.322C1015.679,391.393,1033.499,389.537,1042.409,388.608L1051.318,387.68" id="mermaid-1778921823946-L_OrdersList_OrderDetail_0" class="edge-thickness-normal edge-pattern-solid edge-thickness-normal edge-pattern-solid flowchart-link" style=";" data-edge="true" data-et="edge" data-id="L_OrdersList_OrderDetail_0" data-points="W3sieCI6OTI5LjEyNSwieSI6MzkzLjI1fSx7IngiOjk5Ny44NTkzNzUsInkiOjM5My4yNX0seyJ4IjoxMDU1LjI5Njg3NSwieSI6Mzg3LjI2NTI2NjM2MDYyNzd9XQ==" data-look="classic" marker-end="url(#mermaid-1778921823946_flowchart-v2-pointEnd)"/><path d="M1184.93,411L1205.09,427.342C1225.25,443.683,1265.57,476.367,1312.927,492.708C1360.283,509.05,1414.675,509.05,1441.871,509.05L1469.067,509.05" id="mermaid-1778921823946-OrderDetail-cyclic-special-1" class="edge-thickness-normal edge-pattern-solid edge-thickness-normal edge-pattern-solid flowchart-link" style=";" data-edge="true" data-et="edge" data-id="OrderDetail-cyclic-special-1" data-points="W3sieCI6MTE4NC45Mjk3MTQzMjYzNjE0LCJ5Ijo0MTF9LHsieCI6MTMwNS44OTA2MjUsInkiOjUwOS4wNTAwMDAwMDA3NDUwNn0seyJ4IjoxNDY5LjA2NzE4NzQ5OTI1NSwieSI6NTA5LjA1MDAwMDAwMDc0NTA2fV0=" data-look="classic"/><path d="M1469.167,509.05L1491.63,509.05C1514.093,509.05,1559.019,509.05,1588.874,512.638C1618.729,516.225,1633.513,523.4,1640.905,526.988L1648.297,530.576" id="mermaid-1778921823946-OrderDetail-cyclic-special-mid" class="edge-thickness-normal edge-pattern-solid edge-thickness-normal edge-pattern-solid flowchart-link" style=";" data-edge="true" data-et="edge" data-id="OrderDetail-cyclic-special-mid" data-points="W3sieCI6MTQ2OS4xNjcxODc1MDA3NDUsInkiOjUwOS4wNTAwMDAwMDA3NDUwNn0seyJ4IjoxNjAzLjk0NTMxMjUsInkiOjUwOS4wNTAwMDAwMDA3NDUwNn0seyJ4IjoxNjQ4LjI5Njg3NSwieSI6NTMwLjU3NTczMjgzNzEwNjZ9XQ==" data-look="classic"/><path d="M1648.297,530.615L1640.905,532.863C1633.513,535.11,1618.729,539.605,1588.866,541.853C1559.003,544.1,1514.06,544.1,1464.384,544.1C1414.708,544.1,1360.299,544.1,1311.968,522.394C1263.637,500.689,1221.383,457.278,1200.256,435.572L1179.129,413.866" id="mermaid-1778921823946-OrderDetail-cyclic-special-2" class="edge-thickness-normal edge-pattern-solid edge-thickness-normal edge-pattern-solid flowchart-link" style=";" data-edge="true" data-et="edge" data-id="OrderDetail-cyclic-special-2" data-points="W3sieCI6MTY0OC4yOTY4NzUsInkiOjUzMC42MTUyMDIxNjk0MzI5fSx7IngiOjE2MDMuOTQ1MzEyNSwieSI6NTQ0LjEwMDAwMDAwMTQ5MDF9LHsieCI6MTQ2OS4xMTcxODc1LCJ5Ijo1NDQuMTAwMDAwMDAxNDkwMX0seyJ4IjoxMzA1Ljg5MDYyNSwieSI6NTQ0LjEwMDAwMDAwMTQ5MDF9LHsieCI6MTE3Ni4zMzg5OTAwNjU5MzcsInkiOjQxMX1d" data-look="classic" marker-end="url(#mermaid-1778921823946_flowchart-v2-pointEnd)"/><path d="M1163.658,345L1187.363,304.757C1211.069,264.514,1258.48,184.029,1302.923,144.745C1347.366,105.46,1388.841,107.377,1409.579,108.335L1430.317,109.294" id="mermaid-1778921823946-L_OrderDetail_RazorpayWV_0" class="edge-thickness-normal edge-pattern-solid edge-thickness-normal edge-pattern-solid flowchart-link" style=";" data-edge="true" data-et="edge" data-id="L_OrderDetail_RazorpayWV_0" data-points="W3sieCI6MTE2My42NTc3ODM0MTU2NjgsInkiOjM0NX0seyJ4IjoxMzA1Ljg5MDYyNSwieSI6MTAzLjU0MzM1NTk0MTc3MjQ2fSx7IngiOjE0MzQuMzEyNSwieSI6MTA5LjQ3ODI0NzI5MTU0Nzc3fV0=" data-look="classic" marker-end="url(#mermaid-1778921823946_flowchart-v2-pointEnd)"/><path d="M1180.636,345L1201.512,326.083C1222.388,307.167,1264.139,269.333,1302.468,250.497C1340.797,231.661,1375.704,231.821,1393.157,231.901L1410.61,231.982" id="mermaid-1778921823946-L_OrderDetail_Invoice_0" class="edge-thickness-normal edge-pattern-solid edge-thickness-normal edge-pattern-solid flowchart-link" style=";" data-edge="true" data-et="edge" data-id="L_OrderDetail_Invoice_0" data-points="W3sieCI6MTE4MC42MzYzMDU0NjA3NTEsInkiOjM0NX0seyJ4IjoxMzA1Ljg5MDYyNSwieSI6MjMxLjV9LHsieCI6MTQxNC42MTAwMzg3NTczMjQyLCJ5IjoyMzJ9XQ==" data-look="classic" marker-end="url(#mermaid-1778921823946_flowchart-v2-pointEnd)"/><path d="M1233.141,346.374L1245.266,342.062C1257.391,337.749,1281.641,329.125,1309.889,324.812C1338.138,320.5,1370.385,320.5,1386.509,320.5L1402.633,320.5" id="mermaid-1778921823946-L_OrderDetail_Review_0" class="edge-thickness-normal edge-pattern-solid edge-thickness-normal edge-pattern-solid flowchart-link" style=";" data-edge="true" data-et="edge" data-id="L_OrderDetail_Review_0" data-points="W3sieCI6MTIzMy4xNDA2MjUsInkiOjM0Ni4zNzQxNjY0MjUwNTA3Nn0seyJ4IjoxMzA1Ljg5MDYyNSwieSI6MzIwLjV9LHsieCI6MTQwNi42MzI4MTI1LCJ5IjozMjAuNX1d" data-look="classic" marker-end="url(#mermaid-1778921823946_flowchart-v2-pointEnd)"/><path d="M1233.141,404.401L1245.266,408.001C1257.391,411.6,1281.641,418.8,1305.224,422.4C1328.807,426,1351.724,426,1363.182,426L1374.641,426" id="mermaid-1778921823946-L_OrderDetail_ReturnCreate_0" class="edge-thickness-normal edge-pattern-solid edge-thickness-normal edge-pattern-solid flowchart-link" style=";" data-edge="true" data-et="edge" data-id="L_OrderDetail_ReturnCreate_0" data-points="W3sieCI6MTIzMy4xNDA2MjUsInkiOjQwNC40MDA2OTU4NTM4NzA3fSx7IngiOjEzMDUuODkwNjI1LCJ5Ijo0MjZ9LHsieCI6MTM3OC42NDA2MjUsInkiOjQyNn1d" data-look="classic" marker-end="url(#mermaid-1778921823946_flowchart-v2-pointEnd)"/></g><g class="edgeLabels"><g class="edgeLabel" transform="translate(235.3046875, 83.75)"><g class="label" data-id="L_Cart_CheckoutAddr_0" transform="translate(-28.0078125, -10.5)"><text x="28.0078125" y="10.5" text-anchor="middle" dominant-baseline="central" font-family="-apple-system, BlinkMacSystemFont, &quot;Segoe UI&quot;, Arial, sans-serif" font-size="13" fill="#0c831f"><tspan x="28.0078125" dy="0em">checkout</tspan></text></g></g><g class="edgeLabel" transform="translate(476.46875, 41)"><g class="label" data-id="L_CheckoutAddr_NewAddress_0" transform="translate(-26.40625, -10.5)"><text x="26.40625" y="10.5" text-anchor="middle" dominant-baseline="central" font-family="-apple-system, BlinkMacSystemFont, &quot;Segoe UI&quot;, Arial, sans-serif" font-size="13" fill="#0c831f"><tspan x="26.40625" dy="0em">add new</tspan></text></g></g><g class="edgeLabel"><g class="label" data-id="L_NewAddress_CheckoutAddr_0" transform="translate(0, 0)"><text x="0" y="0" text-anchor="middle" dominant-baseline="central" font-family="-apple-system, BlinkMacSystemFont, &quot;Segoe UI&quot;, Arial, sans-serif" font-size="13" fill="#0c831f"><tspan x="0" dy="0em"/></text></g></g><g class="edgeLabel" transform="translate(476.46875, 157)"><g class="label" data-id="L_CheckoutAddr_CheckoutReview_0" transform="translate(-26.953125, -10.5)"><text x="26.953125" y="10.5" text-anchor="middle" dominant-baseline="central" font-family="-apple-system, BlinkMacSystemFont, &quot;Segoe UI&quot;, Arial, sans-serif" font-size="13" fill="#0c831f"><tspan x="26.953125" dy="0em">continue</tspan></text></g></g><g class="edgeLabel" transform="translate(767.3828125, 134.04335594177246)"><g class="label" data-id="L_CheckoutReview_OrderSuccess_0" transform="translate(-14.3359375, -10.5)"><text x="14.3359375" y="10.5" text-anchor="middle" dominant-baseline="central" font-family="-apple-system, BlinkMacSystemFont, &quot;Segoe UI&quot;, Arial, sans-serif" font-size="13" fill="#0c831f"><tspan x="14.3359375" dy="0em">COD</tspan></text></g></g><g class="edgeLabel" transform="translate(997.859375, 73.04335594177246)"><g class="label" data-id="L_CheckoutReview_RazorpayWV_0" transform="translate(-28.515625, -10.5)"><text x="28.515625" y="10.5" text-anchor="middle" dominant-baseline="central" font-family="-apple-system, BlinkMacSystemFont, &quot;Segoe UI&quot;, Arial, sans-serif" font-size="13" fill="#0c831f"><tspan x="28.515625" dy="0em">Razorpay</tspan></text></g></g><g class="edgeLabel" transform="translate(1144.21875, 134.04335594177246)"><g class="label" data-id="L_RazorpayWV_OrderSuccess_0" transform="translate(-23, -10.5)"><text x="23" y="10.5" text-anchor="middle" dominant-baseline="central" font-family="-apple-system, BlinkMacSystemFont, &quot;Segoe UI&quot;, Arial, sans-serif" font-size="13" fill="#0c831f"><tspan x="23" dy="0em">success</tspan></text></g></g><g class="edgeLabel" transform="translate(997.859375, 201)"><g class="label" data-id="L_RazorpayWV_CheckoutReview_0" transform="translate(-16.9296875, -10.5)"><text x="16.9296875" y="10.5" text-anchor="middle" dominant-baseline="central" font-family="-apple-system, BlinkMacSystemFont, &quot;Segoe UI&quot;, Arial, sans-serif" font-size="13" fill="#0c831f"><tspan x="16.9296875" dy="0em">failed</tspan></text></g></g><g class="edgeLabel" transform="translate(982.50305, 263.06213)"><g class="label" data-id="L_OrderSuccess_OrderDetail_0" transform="translate(-32.4375, -10.5)"><text x="32.4375" y="10.5" text-anchor="middle" dominant-baseline="central" font-family="-apple-system, BlinkMacSystemFont, &quot;Segoe UI&quot;, Arial, sans-serif" font-size="13" fill="#0c831f"><tspan x="32.4375" dy="0em">view order</tspan></text></g></g><g class="edgeLabel"><g class="label" data-id="L_OrdersList_OrderDetail_0" transform="translate(0, 0)"><text x="0" y="0" text-anchor="middle" dominant-baseline="central" font-family="-apple-system, BlinkMacSystemFont, &quot;Segoe UI&quot;, Arial, sans-serif" font-size="13" fill="#0c831f"><tspan x="0" dy="0em"/></text></g></g><g class="edgeLabel"><g class="label" data-id="OrderDetail-cyclic-special-1" transform="translate(0, 0)"><text x="0" y="0" text-anchor="middle" dominant-baseline="central" font-family="-apple-system, BlinkMacSystemFont, &quot;Segoe UI&quot;, Arial, sans-serif" font-size="13" fill="#0c831f"><tspan x="0" dy="0em"/></text></g></g><g class="edgeLabel" transform="translate(1603.9453125, 509.05000000074506)"><g class="label" data-id="OrderDetail-cyclic-special-mid" transform="translate(-19.3515625, -10.5)"><text x="19.3515625" y="10.5" text-anchor="middle" dominant-baseline="central" font-family="-apple-system, BlinkMacSystemFont, &quot;Segoe UI&quot;, Arial, sans-serif" font-size="13" fill="#0c831f"><tspan x="19.3515625" dy="0em">cancel</tspan></text></g></g><g class="edgeLabel"><g class="label" data-id="OrderDetail-cyclic-special-2" transform="translate(0, 0)"><text x="0" y="0" text-anchor="middle" dominant-baseline="central" font-family="-apple-system, BlinkMacSystemFont, &quot;Segoe UI&quot;, Arial, sans-serif" font-size="13" fill="#0c831f"><tspan x="0" dy="0em"/></text></g></g><g class="edgeLabel" transform="translate(1267.39918, 168.88701)"><g class="label" data-id="L_OrderDetail_RazorpayWV_0" transform="translate(-43.296875, -10.5)"><text x="43.296875" y="10.5" text-anchor="middle" dominant-baseline="central" font-family="-apple-system, BlinkMacSystemFont, &quot;Segoe UI&quot;, Arial, sans-serif" font-size="13" fill="#0c831f"><tspan x="43.296875" dy="0em">retry payment</tspan></text></g></g><g class="edgeLabel" transform="translate(1305.890625, 231.5)"><g class="label" data-id="L_OrderDetail_Invoice_0" transform="translate(-21.703125, -10.5)"><text x="21.703125" y="10.5" text-anchor="middle" dominant-baseline="central" font-family="-apple-system, BlinkMacSystemFont, &quot;Segoe UI&quot;, Arial, sans-serif" font-size="13" fill="#0c831f"><tspan x="21.703125" dy="0em">invoice</tspan></text></g></g><g class="edgeLabel" transform="translate(1305.890625, 320.5)"><g class="label" data-id="L_OrderDetail_Review_0" transform="translate(-27.703125, -10.5)"><text x="27.703125" y="10.5" text-anchor="middle" dominant-baseline="central" font-family="-apple-system, BlinkMacSystemFont, &quot;Segoe UI&quot;, Arial, sans-serif" font-size="13" fill="#0c831f"><tspan x="27.703125" dy="0em">rate item</tspan></text></g></g><g class="edgeLabel" transform="translate(1305.890625, 426)"><g class="label" data-id="L_OrderDetail_ReturnCreate_0" transform="translate(-47.75, -10.5)"><text x="47.75" y="10.5" text-anchor="middle" dominant-baseline="central" font-family="-apple-system, BlinkMacSystemFont, &quot;Segoe UI&quot;, Arial, sans-serif" font-size="13" fill="#0c831f"><tspan x="47.75" dy="0em">return / replace</tspan></text></g></g></g><g class="nodes"><g class="node default screen" id="mermaid-1778921823946-flowchart-Cart-0" data-look="classic" transform="translate(95.1484375, 83.75)"><rect class="basic label-container" style="fill:#ffffff !important;stroke:#11ab3a !important;stroke-width:1.5px !important" x="-87.1484375" y="-33" width="174.296875" height="66"/><g class="label" style="" transform="translate(-63.1484375, -21)"><rect/><text x="63.1484375" y="21" text-anchor="middle" dominant-baseline="central" font-family="-apple-system, BlinkMacSystemFont, &quot;Segoe UI&quot;, Arial, sans-serif" font-size="13" fill="#0c831f"><tspan x="63.1484375" dy="-0.6em">Cart</tspan><tspan x="63.1484375" dy="1.2em">quantity savings ETA</tspan></text></g></g><g class="node default screen" id="mermaid-1778921823946-flowchart-CheckoutAddr-2" data-look="classic" transform="translate(356.4140625, 83.75)"><rect class="basic label-container" style="fill:#ffffff !important;stroke:#11ab3a !important;stroke-width:1.5px !important" x="-68.1015625" y="-33" width="136.203125" height="66"/><g class="label" style="" transform="translate(-44.1015625, -21)"><rect/><text x="44.1015625" y="21" text-anchor="middle" dominant-baseline="central" font-family="-apple-system, BlinkMacSystemFont, &quot;Segoe UI&quot;, Arial, sans-serif" font-size="13" fill="#0c831f"><tspan x="44.1015625" dy="-0.6em">Step 1</tspan><tspan x="44.1015625" dy="1.2em">Select address</tspan></text></g></g><g class="node default screen" id="mermaid-1778921823946-flowchart-NewAddress-4" data-look="classic" transform="translate(628.234375, 41)"><rect class="basic label-container" style="fill:#ffffff !important;stroke:#11ab3a !important;stroke-width:1.5px !important" x="-81.5859375" y="-33" width="163.171875" height="66"/><g class="label" style="" transform="translate(-57.5859375, -21)"><rect/><text x="57.5859375" y="21" text-anchor="middle" dominant-baseline="central" font-family="-apple-system, BlinkMacSystemFont, &quot;Segoe UI&quot;, Arial, sans-serif" font-size="13" fill="#0c831f"><tspan x="57.5859375" dy="-0.6em">New address form</tspan><tspan x="57.5859375" dy="1.2em">+ pincode auto-fill</tspan></text></g></g><g class="node default screen" id="mermaid-1778921823946-flowchart-CheckoutReview-8" data-look="classic" transform="translate(628.234375, 157)"><rect class="basic label-container" style="fill:#ffffff !important;stroke:#11ab3a !important;stroke-width:1.5px !important" x="-99.8125" y="-33" width="199.625" height="66"/><g class="label" style="" transform="translate(-75.8125, -21)"><rect/><text x="75.8125" y="21" text-anchor="middle" dominant-baseline="central" font-family="-apple-system, BlinkMacSystemFont, &quot;Segoe UI&quot;, Arial, sans-serif" font-size="13" fill="#0c831f"><tspan x="75.8125" dy="-0.6em">Step 2</tspan><tspan x="75.8125" dy="1.2em">Review coupon payment</tspan></text></g></g><g class="node default screen" id="mermaid-1778921823946-flowchart-OrderSuccess-10" data-look="classic" transform="translate(873.5703125, 134.04335594177246)"><rect class="basic label-container" style="fill:#ffffff !important;stroke:#11ab3a !important;stroke-width:1.5px !important" x="-66.8515625" y="-22.5" width="133.703125" height="45"/><g class="label" style="" transform="translate(-42.8515625, -10.5)"><rect/><text x="42.8515625" y="10.5" text-anchor="middle" dominant-baseline="central" font-family="-apple-system, BlinkMacSystemFont, &quot;Segoe UI&quot;, Arial, sans-serif" font-size="13" fill="#0c831f"><tspan x="42.8515625" dy="0em">Order success</tspan></text></g></g><g class="node default payment" id="mermaid-1778921823946-flowchart-RazorpayWV-12" data-look="classic" transform="translate(1469.1171875, 111.08671188354492)"><path d="M0,8.942191890806905 a34.8046875,8.942191890806905 0,0,0 69.609375,0 a34.8046875,8.942191890806905 0,0,0 -69.609375,0 l0,62.9421918908069 a34.8046875,8.942191890806905 0,0,0 69.609375,0 l0,-62.9421918908069" class="basic label-container outer-path" style="fill:#fef2f2 !important;stroke:#dc2626 !important" transform="translate(-34.8046875, -40.41328783621036)"/><g class="label" style="" transform="translate(-28.8046875, -13)"><rect/><text x="28.8046875" y="21" text-anchor="middle" dominant-baseline="central" font-family="-apple-system, BlinkMacSystemFont, &quot;Segoe UI&quot;, Arial, sans-serif" font-size="13" fill="#0c831f"><tspan x="28.8046875" dy="-0.6em">Razorpay</tspan><tspan x="28.8046875" dy="1.2em">WebView</tspan></text></g></g><g class="node default screen" id="mermaid-1778921823946-flowchart-OrderDetail-18" data-look="classic" transform="translate(1144.21875, 378)"><rect class="basic label-container" style="fill:#ffffff !important;stroke:#11ab3a !important;stroke-width:1.5px !important" x="-88.921875" y="-33" width="177.84375" height="66"/><g class="label" style="" transform="translate(-64.921875, -21)"><rect/><text x="64.921875" y="21" text-anchor="middle" dominant-baseline="central" font-family="-apple-system, BlinkMacSystemFont, &quot;Segoe UI&quot;, Arial, sans-serif" font-size="13" fill="#0c831f"><tspan x="64.921875" dy="-0.6em">Order detail</tspan><tspan x="64.921875" dy="1.2em">timeline tracker price</tspan></text></g></g><g class="node default screen" id="mermaid-1778921823946-flowchart-OrdersList-19" data-look="classic" transform="translate(873.5703125, 393.25)"><rect class="basic label-container" style="fill:#ffffff !important;stroke:#11ab3a !important;stroke-width:1.5px !important" x="-55.5546875" y="-22.5" width="111.109375" height="45"/><g class="label" style="" transform="translate(-31.5546875, -10.5)"><rect/><text x="31.5546875" y="10.5" text-anchor="middle" dominant-baseline="central" font-family="-apple-system, BlinkMacSystemFont, &quot;Segoe UI&quot;, Arial, sans-serif" font-size="13" fill="#0c831f"><tspan x="31.5546875" dy="0em">Orders list</tspan></text></g></g><g class="node default external" id="mermaid-1778921823946-flowchart-Invoice-26" data-look="classic" transform="translate(1469.1171875, 231.5)"><g class="basic label-container outer-path"><path d="M-38.515625 -16.5 C-17.996503846690686 -16.5, 2.5226173066186277 -16.5, 38.515625 -16.5 C38.515625 -16.5, 38.515625 -16.5, 38.515625 -16.5 C38.744622283578344 -16.492656502831814, 38.97361956715669 -16.48531300566363, 39.57278362968176 -16.46609898038055 C39.93390529700134 -16.431262007446577, 40.29502696432092 -16.396425034512603, 40.625598167794344 -16.36453522808356 C40.934659731282814 -16.314568551306966, 41.243721294771284 -16.26460187453037, 41.66974237357264 -16.19572609035258 C42.025429387502605 -16.114542850497745, 42.381116401432564 -16.033359610642915, 42.700925634506866 -15.960365240143986 C42.99294229632253 -15.873696227743833, 43.2849589581382 -15.78702721534368, 43.71491059738974 -15.659419825676032 C44.0058459411819 -15.552352929783678, 44.29678128497407 -15.445286033891325, 44.70753058050967 -15.294126496209358 C45.01590897727697 -15.157616527680597, 45.32428737404427 -15.021106559151836, 45.67470669543971 -14.865986320389917 C46.027100953029226 -14.68214246192476, 46.379495210618735 -14.498298603459606, 46.61246460806497 -14.376758618035927 C46.86854870027735 -14.221518936419612, 47.124632792489734 -14.066279254803298, 47.51695086997405 -13.828453730715372 C47.754705166662205 -13.662606625563336, 47.992459463350365 -13.4967595204113, 48.38444875310506 -13.223324760821285 C48.63491140391926 -13.023587461888013, 48.88537405473347 -12.823850162954741, 49.211393522578504 -12.56385831309072 C49.47827356120891 -12.321484923265462, 49.74515359983931 -12.079111533440205, 49.99438708495752 -11.852764276612506 C50.20881381432398 -11.631351073779753, 50.42324054369044 -11.409937870947, 50.7302119517427 -11.092964689311732 C50.90582865218442 -10.886675320099554, 51.081445352626126 -10.680385950887379, 51.41584446072249 -10.287581730669105 C51.571725281995676 -10.078715631198001, 51.727606103268855 -9.8698495317269, 52.04846720084977 -9.439924892015803 C52.26335736162901 -9.109795898971106, 52.478247522408246 -8.77966690592641, 52.62548058958821 -8.553477377123665 C52.76025385100787 -8.314173804200482, 52.89502711242753 -8.0748702312773, 53.144513555154504 -7.631881788973782 C53.31027311229243 -7.287678521890531, 53.476032669430346 -6.94347525480728, 53.60343327976091 -6.678925161519502 C53.75861939143339 -6.2956124653690955, 53.91380550310588 -5.912299769218689, 54.00035396382104 -5.6985233979515835 C54.109038717188646 -5.371182237372163, 54.21772347055626 -5.043841076792743, 54.3336445751049 -4.69470517941204 C54.44091761079503 -4.285626601897793, 54.54819064648517 -3.876548024383545, 54.60193555100009 -3.6715954102791892 C54.67743117914068 -3.283941315783909, 54.75292680728127 -2.896287221288628, 54.804124426338426 -2.6333982680507635 C54.83202360700459 -2.4170177321203887, 54.85992278767075 -2.200637196190014, 54.93938036366177 -1.584379927476752 C54.953359618974105 -1.3666417421353703, 54.96733887428643 -1.1489035567939885, 55.00714756731135 -0.5288510299323103 C55.00714756731135 -0.11509939908767142, 55.00714756731135 0.2986522317569674, 55.00714756731135 0.5288510299323063 C54.98952017154351 0.8034119475941428, 54.97189277577567 1.0779728652559792, 54.93938036366177 1.5843799274767407 C54.88703799238546 1.9903370229255328, 54.83469562110915 2.3962941183743247, 54.80412442633843 2.633398268050752 C54.74967306506769 2.9129944998767234, 54.695221703796946 3.192590731702695, 54.60193555100009 3.6715954102791857 C54.53743412032432 3.9175673205427857, 54.47293268964855 4.163539230806386, 54.3336445751049 4.694705179412029 C54.205353537730566 5.081097343582582, 54.077062500356234 5.467489507753134, 54.00035396382105 5.698523397951573 C53.850450990091375 6.0687866412406954, 53.70054801636171 6.439049884529818, 53.60343327976091 6.678925161519498 C53.44300827148517 7.012051123749357, 53.28258326320943 7.345177085979217, 53.144513555154504 7.631881788973778 C53.0134700548194 7.864562793412067, 52.8824265544843 8.097243797850355, 52.625480589588214 8.553477377123661 C52.447984828473786 8.826158530480907, 52.27048906735936 9.098839683838154, 52.04846720084977 9.439924892015794 C51.90209595340339 9.636049028898983, 51.75572470595701 9.832173165782173, 51.4158444607225 10.2875817306691 C51.206768651151265 10.533174073342051, 50.99769284158003 10.778766416015001, 50.73021195174271 11.09296468931172 C50.507689576249014 11.322737311435754, 50.285167200755325 11.552509933559787, 49.99438708495753 11.852764276612502 C49.755333338560206 12.06986656407502, 49.51627959216288 12.286968851537539, 49.21139352257852 12.563858313090709 C48.885118949033014 12.824053602962202, 48.55884437548752 13.084248892833697, 48.38444875310507 13.223324760821283 C48.17679166348173 13.368177357211994, 47.9691345738584 13.513029953602706, 47.51695086997406 13.828453730715367 C47.18309926925656 14.030836533000095, 46.84924766853906 14.233219335284822, 46.612464608064975 14.376758618035925 C46.26019833998763 14.560535704454562, 45.90793207191028 14.7443127908732, 45.67470669543971 14.865986320389915 C45.29162488897809 15.03556527239244, 44.908543082516466 15.205144224394965, 44.70753058050968 15.294126496209357 C44.33988671953251 15.429422835511554, 43.97224285855533 15.56471917481375, 43.71491059738975 15.659419825676029 C43.49840088897953 15.723678770649533, 43.2818911805693 15.787937715623038, 42.70092563450689 15.960365240143982 C42.41597605525007 16.025403122139572, 42.13102647599325 16.090441004135158, 41.669742373572646 16.19572609035258 C41.34747598974194 16.247827620077196, 41.02520960591122 16.299929149801812, 40.62559816779436 16.36453522808356 C40.32410278923695 16.39362012465175, 40.02260741067955 16.42270502121994, 39.572783629681766 16.46609898038055 C39.15491458706267 16.479499227244595, 38.737045544443575 16.49289947410864, 38.515625 16.5 C38.515625 16.5, 38.515625 16.5, 38.515625 16.5 C15.865480426763195 16.5, -6.7846641464736095 16.5, -38.515625 16.5 C-38.80701460938423 16.490655702382515, -39.09840421876846 16.48131140476503, -39.57278362968176 16.46609898038055 C-39.79066346686108 16.445080374526704, -40.00854330404041 16.424061768672857, -40.62559816779435 16.36453522808356 C-40.99608016493817 16.304638571916147, -41.36656216208199 16.244741915748733, -41.66974237357264 16.19572609035258 C-41.906561583025145 16.14167365118481, -42.14338079247766 16.08762121201704, -42.700925634506866 15.960365240143986 C-43.09339965732627 15.84388101030937, -43.48587368014569 15.727396780474757, -43.71491059738973 15.659419825676036 C-44.079111462960086 15.52539054051025, -44.443312328530446 15.391361255344462, -44.707530580509676 15.294126496209358 C-44.90820011401939 15.205296046374825, -45.1088696475291 15.116465596540289, -45.67470669543971 14.865986320389919 C-45.95782257338042 14.718284948212624, -46.24093845132113 14.57058357603533, -46.61246460806497 14.376758618035929 C-46.96355219442412 14.163927259965337, -47.314639780783274 13.951095901894748, -47.51695086997404 13.828453730715378 C-47.76811223533064 13.653254434842882, -48.01927360068725 13.478055138970387, -48.38444875310506 13.223324760821287 C-48.63344004100945 13.024760834653978, -48.882431328913846 12.826196908486668, -49.211393522578504 12.563858313090721 C-49.456431436589035 12.341321362934286, -49.70146935059957 12.118784412777849, -49.994387084957516 11.852764276612513 C-50.22350250778445 11.61618379181766, -50.45261793061138 11.379603307022807, -50.73021195174271 11.092964689311726 C-50.988957216651464 10.789027778127249, -51.24770248156021 10.48509086694277, -51.41584446072249 10.287581730669107 C-51.6013612498481 10.039006134167968, -51.786878038973704 9.790430537666829, -52.04846720084977 9.439924892015805 C-52.256543110303824 9.120264418889285, -52.464619019757876 8.800603945762765, -52.62548058958821 8.553477377123672 C-52.8216171135613 8.205217117832742, -53.0177536375344 7.856956858541813, -53.144513555154504 7.631881788973784 C-53.3073506720117 7.293747031663659, -53.470187788868905 6.955612274353534, -53.60343327976091 6.678925161519504 C-53.755280366131856 6.303859922419563, -53.9071274525028 5.928794683319622, -54.00035396382104 5.698523397951585 C-54.11262192435375 5.360390188297392, -54.22488988488647 5.022256978643197, -54.3336445751049 4.694705179412035 C-54.396589873921485 4.454667474359309, -54.45953517273808 4.214629769306583, -54.60193555100009 3.6715954102791915 C-54.6480934709471 3.4345842468311183, -54.69425139089412 3.197573083383045, -54.804124426338426 2.6333982680507653 C-54.84561069747635 2.31163894149586, -54.88709696861428 1.9898796149409543, -54.93938036366177 1.5843799274767614 C-54.96461776855308 1.191286975027971, -54.9898551734444 0.7981940225791807, -55.00714756731135 0.5288510299323123 C-55.00714756731135 0.12359530546687852, -55.00714756731135 -0.2816604189985552, -55.00714756731135 -0.5288510299323043 C-54.98746690798132 -0.8353931849398051, -54.96778624865129 -1.141935339947306, -54.93938036366177 -1.5843799274767387 C-54.902104379276274 -1.8734851013949747, -54.86482839489077 -2.1625902753132107, -54.80412442633843 -2.6333982680507573 C-54.75368931586813 -2.89237190085139, -54.703254205397826 -3.151345533652023, -54.60193555100009 -3.671595410279184 C-54.50509585979542 -4.040887123430257, -54.408256168590746 -4.41017883658133, -54.333644575104906 -4.694705179412027 C-54.26006413413712 -4.916317744155817, -54.18648369316932 -5.137930308899608, -54.00035396382105 -5.698523397951565 C-53.866511152074565 -6.029117730640103, -53.73266834032809 -6.359712063328641, -53.60343327976091 -6.678925161519495 C-53.47606852034647 -6.943400809612861, -53.34870376093203 -7.2078764577062255, -53.144513555154504 -7.631881788973776 C-52.95113071603808 -7.975252601960866, -52.75774787692165 -8.318623414947956, -52.62548058958821 -8.553477377123667 C-52.46150853542365 -8.805382484982129, -52.29753648125909 -9.057287592840591, -52.04846720084977 -9.4399248920158 C-51.845606793035294 -9.711739357523854, -51.642746385220825 -9.983553823031908, -51.4158444607225 -10.2875817306691 C-51.24409423055844 -10.48932932388475, -51.07234400039439 -10.6910769171004, -50.73021195174272 -11.09296468931172 C-50.448443640031044 -11.383913604762638, -50.16667532831938 -11.674862520213555, -49.99438708495754 -11.852764276612497 C-49.68229169015715 -12.136201056578562, -49.37019629535676 -12.419637836544625, -49.21139352257852 -12.563858313090707 C-48.90991616635078 -12.80427848203295, -48.60843881012304 -13.044698650975192, -48.38444875310507 -13.223324760821281 C-48.199311675208065 -13.3524683719073, -48.01417459731106 -13.48161198299332, -47.51695086997406 -13.828453730715365 C-47.26469208536706 -13.981374488381297, -47.01243330076005 -14.13429524604723, -46.612464608064975 -14.376758618035923 C-46.270009717555595 -14.55541711506184, -45.92755482704622 -14.734075612087757, -45.67470669543971 -14.865986320389915 C-45.421439172098786 -14.978100340058798, -45.168171648757856 -15.09021435972768, -44.70753058050968 -15.294126496209355 C-44.50227900563127 -15.369660973089369, -44.29702743075286 -15.445195449969383, -43.71491059738975 -15.659419825676029 C-43.49114928448843 -15.725831008798043, -43.267387971587105 -15.792242191920055, -42.70092563450689 -15.96036524014398 C-42.385770699072935 -16.03229729757863, -42.07061576363898 -16.104229355013278, -41.669742373572646 -16.195726090352576 C-41.39851651563119 -16.23957578367661, -41.12729065768973 -16.28342547700064, -40.62559816779436 -16.36453522808356 C-40.41500323429552 -16.38485106804073, -40.204408300796686 -16.4051669079979, -39.572783629681766 -16.46609898038055 C-39.31439697741971 -16.474384937399485, -39.05601032515765 -16.482670894418423, -38.51562500000001 -16.5 C-38.51562500000001 -16.5, -38.515625 -16.5, -38.515625 -16.5" stroke="none" stroke-width="0" fill="#fffbeb" style="fill:#fffbeb !important;stroke:#b07a00 !important"/><path d="M-38.515625 -16.5 C-12.009450970101483 -16.5, 14.496723059797034 -16.5, 38.515625 -16.5 M-38.515625 -16.5 C-19.1958945750157 -16.5, 0.12383584996860009 -16.5, 38.515625 -16.5 M38.515625 -16.5 C38.515625 -16.5, 38.515625 -16.5, 38.515625 -16.5 M38.515625 -16.5 C38.515625 -16.5, 38.515625 -16.5, 38.515625 -16.5 M38.515625 -16.5 C38.877386521856494 -16.488399012120148, 39.239148043712994 -16.476798024240296, 39.57278362968176 -16.46609898038055 M38.515625 -16.5 C38.7926926571696 -16.491114979514048, 39.06976031433921 -16.4822299590281, 39.57278362968176 -16.46609898038055 M39.57278362968176 -16.46609898038055 C39.99108445152956 -16.425746003177235, 40.40938527337736 -16.38539302597392, 40.625598167794344 -16.36453522808356 M39.57278362968176 -16.46609898038055 C39.81052222173065 -16.443164624328084, 40.048260813779535 -16.420230268275613, 40.625598167794344 -16.36453522808356 M40.625598167794344 -16.36453522808356 C40.90228184437724 -16.3198031569676, 41.17896552096014 -16.275071085851632, 41.66974237357264 -16.19572609035258 M40.625598167794344 -16.36453522808356 C40.97838177229533 -16.307499910785555, 41.331165376796314 -16.25046459348755, 41.66974237357264 -16.19572609035258 M41.66974237357264 -16.19572609035258 C41.97136764672429 -16.126882090044568, 42.27299291987594 -16.05803808973656, 42.700925634506866 -15.960365240143986 M41.66974237357264 -16.19572609035258 C41.87669338848802 -16.148490871679723, 42.08364440340341 -16.10125565300687, 42.700925634506866 -15.960365240143986 M42.700925634506866 -15.960365240143986 C42.91598727312715 -15.896536074683063, 43.131048911747435 -15.832706909222141, 43.71491059738974 -15.659419825676032 M42.700925634506866 -15.960365240143986 C43.05164012113009 -15.856275021452118, 43.40235460775332 -15.752184802760253, 43.71491059738974 -15.659419825676032 M43.71491059738974 -15.659419825676032 C44.081200831122125 -15.52462163371271, 44.44749106485452 -15.389823441749387, 44.70753058050967 -15.294126496209358 M43.71491059738974 -15.659419825676032 C44.01858879843193 -15.547663440521989, 44.32226699947412 -15.435907055367945, 44.70753058050967 -15.294126496209358 M44.70753058050967 -15.294126496209358 C44.91947942960379 -15.200303027954615, 45.13142827869791 -15.10647955969987, 45.67470669543971 -14.865986320389917 M44.70753058050967 -15.294126496209358 C45.08587939131931 -15.12664270098264, 45.46422820212895 -14.95915890575592, 45.67470669543971 -14.865986320389917 M45.67470669543971 -14.865986320389917 C45.872391522368005 -14.7628542728046, 46.0700763492963 -14.659722225219282, 46.61246460806497 -14.376758618035927 M45.67470669543971 -14.865986320389917 C45.988298247282444 -14.702385808658539, 46.30188979912517 -14.53878529692716, 46.61246460806497 -14.376758618035927 M46.61246460806497 -14.376758618035927 C46.82829518993967 -14.245920850942198, 47.04412577181437 -14.115083083848468, 47.51695086997405 -13.828453730715372 M46.61246460806497 -14.376758618035927 C46.88041545027608 -14.214325242833617, 47.1483662924872 -14.051891867631308, 47.51695086997405 -13.828453730715372 M47.51695086997405 -13.828453730715372 C47.69580390085768 -13.70369359879387, 47.87465693174131 -13.578933466872371, 48.38444875310506 -13.223324760821285 M47.51695086997405 -13.828453730715372 C47.828894056720884 -13.610855667443694, 48.140837243467715 -13.393257604172016, 48.38444875310506 -13.223324760821285 M48.38444875310506 -13.223324760821285 C48.70775253852035 -12.965498595427643, 49.031056323935644 -12.707672430034002, 49.211393522578504 -12.56385831309072 M48.38444875310506 -13.223324760821285 C48.62516675087668 -13.031358563373367, 48.86588474864829 -12.83939236592545, 49.211393522578504 -12.56385831309072 M49.211393522578504 -12.56385831309072 C49.46910992270427 -12.32980709729879, 49.72682632283003 -12.09575588150686, 49.99438708495752 -11.852764276612506 M49.211393522578504 -12.56385831309072 C49.491854212411766 -12.30915133516737, 49.77231490224503 -12.05444435724402, 49.99438708495752 -11.852764276612506 M49.99438708495752 -11.852764276612506 C50.233777091051756 -11.60557444103519, 50.47316709714599 -11.358384605457875, 50.7302119517427 -11.092964689311732 M49.99438708495752 -11.852764276612506 C50.25828264046521 -11.580270449322779, 50.52217819597289 -11.307776622033051, 50.7302119517427 -11.092964689311732 M50.7302119517427 -11.092964689311732 C50.91457681717055 -10.876399227722155, 51.098941682598394 -10.659833766132579, 51.41584446072249 -10.287581730669105 M50.7302119517427 -11.092964689311732 C50.966960979299046 -10.814865810142756, 51.20371000685539 -10.536766930973782, 51.41584446072249 -10.287581730669105 M51.41584446072249 -10.287581730669105 C51.61224949133184 -10.024416882518963, 51.80865452194118 -9.76125203436882, 52.04846720084977 -9.439924892015803 M51.41584446072249 -10.287581730669105 C51.66487123948022 -9.953908533940004, 51.91389801823795 -9.6202353372109, 52.04846720084977 -9.439924892015803 M52.04846720084977 -9.439924892015803 C52.240637708774635 -9.144699386836448, 52.4328082166995 -8.849473881657094, 52.62548058958821 -8.553477377123665 M52.04846720084977 -9.439924892015803 C52.19831034143581 -9.209725589558483, 52.348153482021836 -8.979526287101162, 52.62548058958821 -8.553477377123665 M52.62548058958821 -8.553477377123665 C52.747517288802655 -8.336788860112618, 52.869553988017095 -8.120100343101573, 53.144513555154504 -7.631881788973782 M52.62548058958821 -8.553477377123665 C52.77084331366172 -8.29537114095919, 52.91620603773524 -8.037264904794714, 53.144513555154504 -7.631881788973782 M53.144513555154504 -7.631881788973782 C53.298929361328774 -7.311234063483949, 53.45334516750304 -6.990586337994117, 53.60343327976091 -6.678925161519502 M53.144513555154504 -7.631881788973782 C53.31198476128821 -7.284124246127364, 53.47945596742192 -6.936366703280946, 53.60343327976091 -6.678925161519502 M53.60343327976091 -6.678925161519502 C53.72341924324532 -6.382557511942209, 53.84340520672973 -6.086189862364916, 54.00035396382104 -5.6985233979515835 M53.60343327976091 -6.678925161519502 C53.71417588657832 -6.405388781617853, 53.82491849339572 -6.131852401716205, 54.00035396382104 -5.6985233979515835 M54.00035396382104 -5.6985233979515835 C54.0996694999143 -5.3994008270204645, 54.19898503600755 -5.1002782560893465, 54.3336445751049 -4.69470517941204 M54.00035396382104 -5.6985233979515835 C54.084724146278624 -5.444413850952374, 54.169094328736215 -5.190304303953165, 54.3336445751049 -4.69470517941204 M54.3336445751049 -4.69470517941204 C54.411062217684126 -4.399478155238899, 54.48847986026336 -4.104251131065758, 54.60193555100009 -3.6715954102791892 M54.3336445751049 -4.69470517941204 C54.43401822793775 -4.311936938944056, 54.534391880770606 -3.9291686984760723, 54.60193555100009 -3.6715954102791892 M54.60193555100009 -3.6715954102791892 C54.660880474040816 -3.3689256884789467, 54.71982539708154 -3.066255966678704, 54.804124426338426 -2.6333982680507635 M54.60193555100009 -3.6715954102791892 C54.65251975218502 -3.4118562281692513, 54.70310395336996 -3.152117046059313, 54.804124426338426 -2.6333982680507635 M54.804124426338426 -2.6333982680507635 C54.8350760712246 -2.3933434224072276, 54.866027716110764 -2.153288576763692, 54.93938036366177 -1.584379927476752 M54.804124426338426 -2.6333982680507635 C54.848512945015436 -2.289129682696327, 54.892901463692446 -1.94486109734189, 54.93938036366177 -1.584379927476752 M54.93938036366177 -1.584379927476752 C54.95451033928617 -1.3487183444301736, 54.96964031491058 -1.113056761383595, 55.00714756731135 -0.5288510299323103 M54.93938036366177 -1.584379927476752 C54.95529045846361 -1.3365673585407216, 54.97120055326545 -1.0887547896046914, 55.00714756731135 -0.5288510299323103 M55.00714756731135 -0.5288510299323103 C55.00714756731135 -0.14523330595863004, 55.00714756731135 0.23838441801505017, 55.00714756731135 0.5288510299323063 M55.00714756731135 -0.5288510299323103 C55.00714756731135 -0.2015733594710309, 55.00714756731135 0.12570431099024848, 55.00714756731135 0.5288510299323063 M55.00714756731135 0.5288510299323063 C54.98420142948109 0.8862556484276944, 54.96125529165083 1.2436602669230825, 54.93938036366177 1.5843799274767407 M55.00714756731135 0.5288510299323063 C54.987376628074195 0.8367993673659329, 54.96760568883703 1.1447477047995596, 54.93938036366177 1.5843799274767407 M54.93938036366177 1.5843799274767407 C54.89014268125824 1.966257669118395, 54.84090499885471 2.3481354107600496, 54.80412442633843 2.633398268050752 M54.93938036366177 1.5843799274767407 C54.89206697357073 1.9513332379372195, 54.84475358347969 2.3182865483976984, 54.80412442633843 2.633398268050752 M54.80412442633843 2.633398268050752 C54.72631480906369 3.032934207688113, 54.64850519178895 3.4324701473254744, 54.60193555100009 3.6715954102791857 M54.80412442633843 2.633398268050752 C54.76054520720226 2.857168347843756, 54.71696598806609 3.080938427636761, 54.60193555100009 3.6715954102791857 M54.60193555100009 3.6715954102791857 C54.53761494913745 3.9168777419066267, 54.4732943472748 4.162160073534068, 54.3336445751049 4.694705179412029 M54.60193555100009 3.6715954102791857 C54.512174336442385 4.013893824144171, 54.42241312188469 4.3561922380091564, 54.3336445751049 4.694705179412029 M54.3336445751049 4.694705179412029 C54.222949018136056 5.028102560060319, 54.11225346116722 5.361499940708608, 54.00035396382105 5.698523397951573 M54.3336445751049 4.694705179412029 C54.224050892139054 5.024783891123079, 54.11445720917321 5.354862602834128, 54.00035396382105 5.698523397951573 M54.00035396382105 5.698523397951573 C53.89764286727952 5.952221792193111, 53.79493177073799 6.205920186434649, 53.60343327976091 6.678925161519498 M54.00035396382105 5.698523397951573 C53.87560418078126 6.006657773932821, 53.75085439774148 6.3147921499140685, 53.60343327976091 6.678925161519498 M53.60343327976091 6.678925161519498 C53.43657232581955 7.0254155026311995, 53.26971137187819 7.371905843742901, 53.144513555154504 7.631881788973778 M53.60343327976091 6.678925161519498 C53.44933275085268 6.9989182070205365, 53.29523222194446 7.318911252521576, 53.144513555154504 7.631881788973778 M53.144513555154504 7.631881788973778 C53.00332007564533 7.882585109232481, 52.86212659613615 8.133288429491184, 52.625480589588214 8.553477377123661 M53.144513555154504 7.631881788973778 C52.95655645629562 7.965618650717821, 52.76859935743674 8.299355512461865, 52.625480589588214 8.553477377123661 M52.625480589588214 8.553477377123661 C52.48987323325745 8.76180669212157, 52.354265876926675 8.970136007119482, 52.04846720084977 9.439924892015794 M52.625480589588214 8.553477377123661 C52.43035193190958 8.853247394699242, 52.23522327423093 9.153017412274822, 52.04846720084977 9.439924892015794 M52.04846720084977 9.439924892015794 C51.92144546521175 9.610122445852575, 51.79442372957372 9.780319999689356, 51.4158444607225 10.2875817306691 M52.04846720084977 9.439924892015794 C51.796818401941984 9.777111356875027, 51.545169603034196 10.114297821734258, 51.4158444607225 10.2875817306691 M51.4158444607225 10.2875817306691 C51.21234904469111 10.526619025556766, 51.00885362865972 10.765656320444432, 50.73021195174271 11.09296468931172 M51.4158444607225 10.2875817306691 C51.14733483662125 10.602988413768859, 50.87882521252 10.91839509686862, 50.73021195174271 11.09296468931172 M50.73021195174271 11.09296468931172 C50.5552805822624 11.273595690432677, 50.380349212782086 11.45422669155363, 49.99438708495753 11.852764276612502 M50.73021195174271 11.09296468931172 C50.445036169579375 11.38743209776251, 50.15986038741604 11.681899506213298, 49.99438708495753 11.852764276612502 M49.99438708495753 11.852764276612502 C49.725894913473 12.096601762841178, 49.45740274198847 12.340439249069854, 49.21139352257852 12.563858313090709 M49.99438708495753 11.852764276612502 C49.694262274547135 12.125329688559885, 49.39413746413674 12.397895100507268, 49.21139352257852 12.563858313090709 M49.21139352257852 12.563858313090709 C48.96643296678743 12.759207837659945, 48.72147241099634 12.954557362229183, 48.38444875310507 13.223324760821283 M49.21139352257852 12.563858313090709 C49.03918535030412 12.701189747827614, 48.866977178029735 12.83852118256452, 48.38444875310507 13.223324760821283 M48.38444875310507 13.223324760821283 C48.09666641561013 13.42406926156115, 47.808884078115184 13.624813762301017, 47.51695086997406 13.828453730715367 M48.38444875310507 13.223324760821283 C48.112438448556375 13.413067374138148, 47.84042814400769 13.602809987455013, 47.51695086997406 13.828453730715367 M47.51695086997406 13.828453730715367 C47.321053827655874 13.947207668987458, 47.12515678533768 14.065961607259547, 46.612464608064975 14.376758618035925 M47.51695086997406 13.828453730715367 C47.30765306022591 13.955331292955151, 47.09835525047776 14.082208855194935, 46.612464608064975 14.376758618035925 M46.612464608064975 14.376758618035925 C46.42398320553069 14.475089245009961, 46.2355018029964 14.573419871983997, 45.67470669543971 14.865986320389915 M46.612464608064975 14.376758618035925 C46.33202236984049 14.523065154085815, 46.05158013161599 14.669371690135705, 45.67470669543971 14.865986320389915 M45.67470669543971 14.865986320389915 C45.43554585727369 14.971855728991816, 45.196385019107666 15.077725137593717, 44.70753058050968 15.294126496209357 M45.67470669543971 14.865986320389915 C45.41970903312613 14.978866221259242, 45.164711370812554 15.09174612212857, 44.70753058050968 15.294126496209357 M44.70753058050968 15.294126496209357 C44.343054250828786 15.428257154714183, 43.97857792114789 15.562387813219011, 43.71491059738975 15.659419825676029 M44.70753058050968 15.294126496209357 C44.38215581342361 15.413867418228408, 44.05678104633753 15.533608340247461, 43.71491059738975 15.659419825676029 M43.71491059738975 15.659419825676029 C43.508170245174114 15.720779277011378, 43.301429892958474 15.782138728346727, 42.70092563450689 15.960365240143982 M43.71491059738975 15.659419825676029 C43.50369616973184 15.722107159117744, 43.292481742073925 15.784794492559458, 42.70092563450689 15.960365240143982 M42.70092563450689 15.960365240143982 C42.40234056314228 16.028515334233273, 42.10375549177767 16.096665428322563, 41.669742373572646 16.19572609035258 M42.70092563450689 15.960365240143982 C42.449606297637665 16.01772723877244, 42.19828696076844 16.075089237400903, 41.669742373572646 16.19572609035258 M41.669742373572646 16.19572609035258 C41.45490103674611 16.230459971571243, 41.24005969991957 16.265193852789906, 40.62559816779436 16.36453522808356 M41.669742373572646 16.19572609035258 C41.32327245262182 16.251740660257543, 40.976802531671005 16.307755230162506, 40.62559816779436 16.36453522808356 M40.62559816779436 16.36453522808356 C40.305022280046536 16.39546079842568, 39.98444639229871 16.4263863687678, 39.572783629681766 16.46609898038055 M40.62559816779436 16.36453522808356 C40.23879207214831 16.401849946928145, 39.851985976502256 16.43916466577273, 39.572783629681766 16.46609898038055 M39.572783629681766 16.46609898038055 C39.19909126114214 16.478082567291548, 38.82539889260251 16.49006615420254, 38.515625 16.5 M39.572783629681766 16.46609898038055 C39.329829076124994 16.473890060030765, 39.08687452256823 16.48168113968098, 38.515625 16.5 M38.515625 16.5 C38.515625 16.5, 38.515625 16.5, 38.515625 16.5 M38.515625 16.5 C38.515625 16.5, 38.515625 16.5, 38.515625 16.5 M38.515625 16.5 C9.220558666169168 16.5, -20.074507667661663 16.5, -38.515625 16.5 M38.515625 16.5 C17.042316694651053 16.5, -4.430991610697895 16.5, -38.515625 16.5 M-38.515625 16.5 C-38.84466491836814 16.489448330255282, -39.17370483673628 16.478896660510564, -39.57278362968176 16.46609898038055 M-38.515625 16.5 C-38.92329218823902 16.48692690674922, -39.330959376478035 16.47385381349844, -39.57278362968176 16.46609898038055 M-39.57278362968176 16.46609898038055 C-39.86201103808483 16.438197560138757, -40.151238446487895 16.410296139896964, -40.62559816779435 16.36453522808356 M-39.57278362968176 16.46609898038055 C-39.86293523585699 16.438108403891185, -40.153086842032224 16.410117827401823, -40.62559816779435 16.36453522808356 M-40.62559816779435 16.36453522808356 C-40.945344285371135 16.31284115546192, -41.26509040294792 16.26114708284028, -41.66974237357264 16.19572609035258 M-40.62559816779435 16.36453522808356 C-41.0320862324665 16.29881739014939, -41.438574297138636 16.233099552215222, -41.66974237357264 16.19572609035258 M-41.66974237357264 16.19572609035258 C-41.991693499763336 16.12224284672699, -42.31364462595404 16.048759603101406, -42.700925634506866 15.960365240143986 M-41.66974237357264 16.19572609035258 C-42.075359425871135 16.10314664506408, -42.48097647816962 16.01056719977558, -42.700925634506866 15.960365240143986 M-42.700925634506866 15.960365240143986 C-43.09981363675114 15.841977374883735, -43.49870163899543 15.723589509623483, -43.71491059738973 15.659419825676036 M-42.700925634506866 15.960365240143986 C-42.91944939339712 15.895508535559976, -43.13797315228737 15.830651830975967, -43.71491059738973 15.659419825676036 M-43.71491059738973 15.659419825676036 C-43.94684740450857 15.574064936655963, -44.178784211627395 15.488710047635891, -44.707530580509676 15.294126496209358 M-43.71491059738973 15.659419825676036 C-44.10511798172745 15.515819901202235, -44.49532536606517 15.372219976728436, -44.707530580509676 15.294126496209358 M-44.707530580509676 15.294126496209358 C-44.9079424860979 15.205410090613404, -45.10835439168613 15.116693685017449, -45.67470669543971 14.865986320389919 M-44.707530580509676 15.294126496209358 C-44.90978935584794 15.204592536160508, -45.11204813118621 15.115058576111656, -45.67470669543971 14.865986320389919 M-45.67470669543971 14.865986320389919 C-45.95057523064092 14.722065882277676, -46.226443765842134 14.578145444165433, -46.61246460806497 14.376758618035929 M-45.67470669543971 14.865986320389919 C-45.888256882515314 14.754577324577998, -46.10180706959092 14.643168328766077, -46.61246460806497 14.376758618035929 M-46.61246460806497 14.376758618035929 C-46.79818979564979 14.26417091787966, -46.983914983234605 14.151583217723392, -47.51695086997404 13.828453730715378 M-46.61246460806497 14.376758618035929 C-46.9023877245987 14.201005521015833, -47.192310841132425 14.025252423995736, -47.51695086997404 13.828453730715378 M-47.51695086997404 13.828453730715378 C-47.78926668040079 13.638498009723113, -48.06158249082755 13.448542288730849, -48.38444875310506 13.223324760821287 M-47.51695086997404 13.828453730715378 C-47.74565601779179 13.668918920083996, -47.974361165609544 13.509384109452617, -48.38444875310506 13.223324760821287 M-48.38444875310506 13.223324760821287 C-48.66482721690847 12.999730397122336, -48.94520568071189 12.776136033423388, -49.211393522578504 12.563858313090721 M-48.38444875310506 13.223324760821287 C-48.696104020125446 12.97478797886749, -49.00775928714583 12.726251196913694, -49.211393522578504 12.563858313090721 M-49.211393522578504 12.563858313090721 C-49.38331266187478 12.407725899513006, -49.555231801171054 12.25159348593529, -49.994387084957516 11.852764276612513 M-49.211393522578504 12.563858313090721 C-49.44004339673631 12.35620454712476, -49.66869327089411 12.1485507811588, -49.994387084957516 11.852764276612513 M-49.994387084957516 11.852764276612513 C-50.17541970610318 11.665833232225008, -50.35645232724884 11.478902187837503, -50.73021195174271 11.092964689311726 M-49.994387084957516 11.852764276612513 C-50.28236901674166 11.555399288289072, -50.57035094852581 11.258034299965631, -50.73021195174271 11.092964689311726 M-50.73021195174271 11.092964689311726 C-50.96932597229959 10.812087754792403, -51.208439992856476 10.531210820273078, -51.41584446072249 10.287581730669107 M-50.73021195174271 11.092964689311726 C-50.908576007230664 10.883448120533302, -51.08694006271862 10.673931551754876, -51.41584446072249 10.287581730669107 M-51.41584446072249 10.287581730669107 C-51.650864235567234 9.972676643119101, -51.88588401041198 9.657771555569093, -52.04846720084977 9.439924892015805 M-51.41584446072249 10.287581730669107 C-51.6284767530158 10.002673830196398, -51.84110904530912 9.717765929723688, -52.04846720084977 9.439924892015805 M-52.04846720084977 9.439924892015805 C-52.16558118377186 9.260006364739708, -52.282695166693955 9.08008783746361, -52.62548058958821 8.553477377123672 M-52.04846720084977 9.439924892015805 C-52.18937820510579 9.22344774957583, -52.33028920936181 9.006970607135854, -52.62548058958821 8.553477377123672 M-52.62548058958821 8.553477377123672 C-52.73762612525359 8.354351622582898, -52.849771660918975 8.155225868042123, -53.144513555154504 7.631881788973784 M-52.62548058958821 8.553477377123672 C-52.82919828590587 8.191755978658017, -53.032915982223535 7.830034580192364, -53.144513555154504 7.631881788973784 M-53.144513555154504 7.631881788973784 C-53.32331823024592 7.260590055339296, -53.50212290533733 6.889298321704809, -53.60343327976091 6.678925161519504 M-53.144513555154504 7.631881788973784 C-53.29921836532834 7.310633940495147, -53.45392317550218 6.98938609201651, -53.60343327976091 6.678925161519504 M-53.60343327976091 6.678925161519504 C-53.68919297079711 6.467097066609249, -53.77495266183331 6.255268971698992, -54.00035396382104 5.698523397951585 M-53.60343327976091 6.678925161519504 C-53.72046867376592 6.389845475601694, -53.83750406777094 6.100765789683884, -54.00035396382104 5.698523397951585 M-54.00035396382104 5.698523397951585 C-54.068354799088745 5.493715716587003, -54.136355634356455 5.288908035222422, -54.3336445751049 4.694705179412035 M-54.00035396382104 5.698523397951585 C-54.10946672280518 5.369893152648598, -54.21857948178933 5.041262907345611, -54.3336445751049 4.694705179412035 M-54.3336445751049 4.694705179412035 C-54.41394905621214 4.388469388767855, -54.49425353731938 4.0822335981236755, -54.60193555100009 3.6715954102791915 M-54.3336445751049 4.694705179412035 C-54.40214966332833 4.433465587723055, -54.470654751551756 4.172225996034075, -54.60193555100009 3.6715954102791915 M-54.60193555100009 3.6715954102791915 C-54.67126716089588 3.315592246705249, -54.74059877079167 2.9595890831313074, -54.804124426338426 2.6333982680507653 M-54.60193555100009 3.6715954102791915 C-54.67603200972689 3.291125755009162, -54.750128468453696 2.9106560997391324, -54.804124426338426 2.6333982680507653 M-54.804124426338426 2.6333982680507653 C-54.84069102587927 2.349794942903772, -54.87725762542012 2.066191617756779, -54.93938036366177 1.5843799274767614 M-54.804124426338426 2.6333982680507653 C-54.85535802580772 2.2360405877854834, -54.90659162527701 1.8386829075202014, -54.93938036366177 1.5843799274767614 M-54.93938036366177 1.5843799274767614 C-54.95422734225889 1.3531262515611688, -54.96907432085601 1.1218725756455763, -55.00714756731135 0.5288510299323123 M-54.93938036366177 1.5843799274767614 C-54.96519379743442 1.1823148602390279, -54.99100723120707 0.7802497930012943, -55.00714756731135 0.5288510299323123 M-55.00714756731135 0.5288510299323123 C-55.00714756731135 0.20238013224780232, -55.00714756731135 -0.1240907654367076, -55.00714756731135 -0.5288510299323043 M-55.00714756731135 0.5288510299323123 C-55.00714756731135 0.25156647413346245, -55.00714756731135 -0.02571808166538736, -55.00714756731135 -0.5288510299323043 M-55.00714756731135 -0.5288510299323043 C-54.988444871837075 -0.8201606084882306, -54.96974217636279 -1.1114701870441568, -54.93938036366177 -1.5843799274767387 M-55.00714756731135 -0.5288510299323043 C-54.98602827009039 -0.8578011313386391, -54.96490897286943 -1.1867512327449738, -54.93938036366177 -1.5843799274767387 M-54.93938036366177 -1.5843799274767387 C-54.886804482015165 -1.9921480832457024, -54.834228600368554 -2.399916239014666, -54.80412442633843 -2.6333982680507573 M-54.93938036366177 -1.5843799274767387 C-54.90663638701327 -1.8383357443329582, -54.873892410364775 -2.0922915611891773, -54.80412442633843 -2.6333982680507573 M-54.80412442633843 -2.6333982680507573 C-54.72618684931197 -3.0335912539688943, -54.648249272285504 -3.4337842398870313, -54.60193555100009 -3.671595410279184 M-54.80412442633843 -2.6333982680507573 C-54.75603459293811 -2.8803293987715346, -54.70794475953778 -3.127260529492312, -54.60193555100009 -3.671595410279184 M-54.60193555100009 -3.671595410279184 C-54.51817886586263 -3.9909959510852877, -54.43442218072517 -4.310396491891391, -54.333644575104906 -4.694705179412027 M-54.60193555100009 -3.671595410279184 C-54.54428366202809 -3.891447049416152, -54.4866317730561 -4.11129868855312, -54.333644575104906 -4.694705179412027 M-54.333644575104906 -4.694705179412027 C-54.257405995441054 -4.924323634391462, -54.1811674157772 -5.153942089370898, -54.00035396382105 -5.698523397951565 M-54.333644575104906 -4.694705179412027 C-54.22690729528664 -5.016180859948614, -54.12017001546836 -5.3376565404852, -54.00035396382105 -5.698523397951565 M-54.00035396382105 -5.698523397951565 C-53.90883620008252 -5.924574043761332, -53.81731843634398 -6.1506246895711, -53.60343327976091 -6.678925161519495 M-54.00035396382105 -5.698523397951565 C-53.87365179050887 -6.011480215652508, -53.746949617196705 -6.324437033353451, -53.60343327976091 -6.678925161519495 M-53.60343327976091 -6.678925161519495 C-53.474241222215475 -6.947195233279788, -53.345049164670044 -7.21546530504008, -53.144513555154504 -7.631881788973776 M-53.60343327976091 -6.678925161519495 C-53.478264415097975 -6.938840987176736, -53.35309555043505 -7.1987568128339765, -53.144513555154504 -7.631881788973776 M-53.144513555154504 -7.631881788973776 C-52.99854835642217 -7.891057779902156, -52.852583157689836 -8.150233770830537, -52.62548058958821 -8.553477377123667 M-53.144513555154504 -7.631881788973776 C-52.99200751847295 -7.902671700012656, -52.8395014817914 -8.173461611051536, -52.62548058958821 -8.553477377123667 M-52.62548058958821 -8.553477377123667 C-52.42931662208345 -8.854837908611781, -52.23315265457869 -9.156198440099898, -52.04846720084977 -9.4399248920158 M-52.62548058958821 -8.553477377123667 C-52.397877009987056 -8.903137595509783, -52.170273430385905 -9.2527978138959, -52.04846720084977 -9.4399248920158 M-52.04846720084977 -9.4399248920158 C-51.921167235378064 -9.61049524848245, -51.793867269906364 -9.7810656049491, -51.4158444607225 -10.2875817306691 M-52.04846720084977 -9.4399248920158 C-51.810913734552834 -9.758224895287704, -51.573360268255904 -10.076524898559608, -51.4158444607225 -10.2875817306691 M-51.4158444607225 -10.2875817306691 C-51.16077190286243 -10.587204471171248, -50.905699345002354 -10.886827211673394, -50.73021195174272 -11.09296468931172 M-51.4158444607225 -10.2875817306691 C-51.16847260541091 -10.578158787775406, -50.92110075009933 -10.868735844881712, -50.73021195174272 -11.09296468931172 M-50.73021195174272 -11.09296468931172 C-50.510583367074965 -11.319749234823323, -50.29095478240721 -11.546533780334926, -49.99438708495754 -11.852764276612497 M-50.73021195174272 -11.09296468931172 C-50.51020447808637 -11.320140468811406, -50.290197004430034 -11.547316248311091, -49.99438708495754 -11.852764276612497 M-49.99438708495754 -11.852764276612497 C-49.71851319766159 -12.103305641831597, -49.44263931036566 -12.353847007050696, -49.21139352257852 -12.563858313090707 M-49.99438708495754 -11.852764276612497 C-49.756685002286005 -12.068639018842315, -49.51898291961447 -12.284513761072132, -49.21139352257852 -12.563858313090707 M-49.21139352257852 -12.563858313090707 C-49.00089168723439 -12.731727925088556, -48.79038985189026 -12.899597537086406, -48.38444875310507 -13.223324760821281 M-49.21139352257852 -12.563858313090707 C-49.01956956644766 -12.716832813455218, -48.82774561031679 -12.869807313819729, -48.38444875310507 -13.223324760821281 M-48.38444875310507 -13.223324760821281 C-48.15029928284578 -13.38665729510696, -47.91614981258649 -13.54998982939264, -47.51695086997406 -13.828453730715365 M-48.38444875310507 -13.223324760821281 C-48.15858916125544 -13.38087463479143, -47.93272956940582 -13.53842450876158, -47.51695086997406 -13.828453730715365 M-47.51695086997406 -13.828453730715365 C-47.19293613595863 -14.02487336659745, -46.868921401943204 -14.221293002479536, -46.612464608064975 -14.376758618035923 M-47.51695086997406 -13.828453730715365 C-47.31141083269943 -13.953053309198578, -47.105870795424806 -14.07765288768179, -46.612464608064975 -14.376758618035923 M-46.612464608064975 -14.376758618035923 C-46.27931717017802 -14.550561422990432, -45.94616973229106 -14.724364227944939, -45.67470669543971 -14.865986320389915 M-46.612464608064975 -14.376758618035923 C-46.25338541933875 -14.564090000793197, -45.89430623061253 -14.75142138355047, -45.67470669543971 -14.865986320389915 M-45.67470669543971 -14.865986320389915 C-45.39616527459539 -14.989288344760018, -45.11762385375107 -15.112590369130121, -44.70753058050968 -15.294126496209355 M-45.67470669543971 -14.865986320389915 C-45.334791869202505 -15.016456530750062, -44.9948770429653 -15.16692674111021, -44.70753058050968 -15.294126496209355 M-44.70753058050968 -15.294126496209355 C-44.47035091092978 -15.381410807079591, -44.23317124134988 -15.468695117949826, -43.71491059738975 -15.659419825676029 M-44.70753058050968 -15.294126496209355 C-44.382135681653516 -15.413874826905896, -44.05674078279735 -15.533623157602436, -43.71491059738975 -15.659419825676029 M-43.71491059738975 -15.659419825676029 C-43.3158089888888 -15.77787108815202, -42.916707380387834 -15.896322350628012, -42.70092563450689 -15.96036524014398 M-43.71491059738975 -15.659419825676029 C-43.4080390956209 -15.750497676599641, -43.101167593852054 -15.841575527523252, -42.70092563450689 -15.96036524014398 M-42.70092563450689 -15.96036524014398 C-42.467696915432505 -16.01359817331308, -42.23446819635812 -16.066831106482184, -41.669742373572646 -16.195726090352576 M-42.70092563450689 -15.96036524014398 C-42.48703323838305 -16.00918478378092, -42.27314084225921 -16.05800432741786, -41.669742373572646 -16.195726090352576 M-41.669742373572646 -16.195726090352576 C-41.37556623135949 -16.243286207655544, -41.08139008914633 -16.290846324958512, -40.62559816779436 -16.36453522808356 M-41.669742373572646 -16.195726090352576 C-41.33606392790211 -16.249672633733596, -41.00238548223157 -16.303619177114616, -40.62559816779436 -16.36453522808356 M-40.62559816779436 -16.36453522808356 C-40.41489699168938 -16.38486131713717, -40.204195815584406 -16.405187406190777, -39.572783629681766 -16.46609898038055 M-40.62559816779436 -16.36453522808356 C-40.373285168251705 -16.38887555969866, -40.12097216870906 -16.413215891313765, -39.572783629681766 -16.46609898038055 M-39.572783629681766 -16.46609898038055 C-39.27761992419516 -16.475564305914205, -38.98245621870854 -16.485029631447862, -38.51562500000001 -16.5 M-39.572783629681766 -16.46609898038055 C-39.33301463697394 -16.473787905294657, -39.09324564426612 -16.481476830208766, -38.51562500000001 -16.5 M-38.51562500000001 -16.5 C-38.51562500000001 -16.5, -38.515625 -16.5, -38.515625 -16.5 M-38.51562500000001 -16.5 C-38.51562500000001 -16.5, -38.51562500000001 -16.5, -38.515625 -16.5" stroke="#b07a00" stroke-width="1.3" fill="none" stroke-dasharray="0 0" style="fill:#fffbeb !important;stroke:#b07a00 !important"/></g><g class="label" style="" transform="translate(-44.890625, -10.5)"><rect/><text x="44.890625" y="10.5" text-anchor="middle" dominant-baseline="central" font-family="-apple-system, BlinkMacSystemFont, &quot;Segoe UI&quot;, Arial, sans-serif" font-size="13" fill="#0c831f"><tspan x="44.890625" dy="0em">PDF download</tspan></text></g></g><g class="node default screen" id="mermaid-1778921823946-flowchart-Review-28" data-look="classic" transform="translate(1469.1171875, 320.5)"><rect class="basic label-container" style="fill:#ffffff !important;stroke:#11ab3a !important;stroke-width:1.5px !important" x="-62.484375" y="-22.5" width="124.96875" height="45"/><g class="label" style="" transform="translate(-38.484375, -10.5)"><rect/><text x="38.484375" y="10.5" text-anchor="middle" dominant-baseline="central" font-family="-apple-system, BlinkMacSystemFont, &quot;Segoe UI&quot;, Arial, sans-serif" font-size="13" fill="#0c831f"><tspan x="38.484375" dy="0em">Write review</tspan></text></g></g><g class="node default screen" id="mermaid-1778921823946-flowchart-ReturnCreate-30" data-look="classic" transform="translate(1469.1171875, 426)"><rect class="basic label-container" style="fill:#ffffff !important;stroke:#11ab3a !important;stroke-width:1.5px !important" x="-90.4765625" y="-33" width="180.953125" height="66"/><g class="label" style="" transform="translate(-66.4765625, -21)"><rect/><text x="66.4765625" y="21" text-anchor="middle" dominant-baseline="central" font-family="-apple-system, BlinkMacSystemFont, &quot;Segoe UI&quot;, Arial, sans-serif" font-size="13" fill="#0c831f"><tspan x="66.4765625" dy="-0.6em">Create return</tspan><tspan x="66.4765625" dy="1.2em">reason photos refund</tspan></text></g></g><g class="label edgeLabel" id="OrderDetail---OrderDetail---1" transform="translate(1469.1171875, 509.05000000074506)"><rect width="0.1" height="0.1"/><g class="label" style="" transform="translate(0, 0)"><rect/><text x="0" y="0" text-anchor="middle" dominant-baseline="central" font-family="-apple-system, BlinkMacSystemFont, &quot;Segoe UI&quot;, Arial, sans-serif" font-size="13" fill="#0c831f"><tspan x="0" dy="0em"/></text></g></g><g class="label edgeLabel" id="OrderDetail---OrderDetail---2" transform="translate(1648.346875000745, 530.6000000014901)"><rect width="0.1" height="0.1"/><g class="label" style="" transform="translate(0, 0)"><rect/><text x="0" y="0" text-anchor="middle" dominant-baseline="central" font-family="-apple-system, BlinkMacSystemFont, &quot;Segoe UI&quot;, Arial, sans-serif" font-size="13" fill="#0c831f"><tspan x="0" dy="0em"/></text></g></g></g></g></g><defs><filter id="mermaid-1778921823946-drop-shadow" height="130%" width="130%"><feDropShadow dx="4" dy="4" stdDeviation="0" flood-opacity="0.06" flood-color="#000000"/></filter></defs><defs><filter id="mermaid-1778921823946-drop-shadow-small" height="150%" width="150%"><feDropShadow dx="2" dy="2" stdDeviation="0" flood-opacity="0.06" flood-color="#000000"/></filter></defs><linearGradient id="mermaid-1778921823946-gradient" gradientUnits="objectBoundingBox" x1="0%" y1="0%" x2="100%" y2="0%"><stop offset="0%" stop-color="#11ab3a" stop-opacity="1"/><stop offset="100%" stop-color="hsl(24.7058823529, 40.9523809524%, 85.8823529412%)" stop-opacity="1"/></linearGradient></svg>