<svg id="mermaid-1778921826915" width="865.75" xmlns="http://www.w3.org/2000/svg" xmlns:xlink="http://www.w3.org/1999/xlink" class="flowchart" height="1301.2459716796875" viewBox="0 0 865.75 1301.2459716796875" role="graphics-document document" aria-roledescription="flowchart-v2"><style>#mermaid-1778921826915{font-family:-apple-system,BlinkMacSystemFont,"Segoe UI",Arial,sans-serif;font-size:14px;fill:#0c831f;}@keyframes edge-animation-frame{from{stroke-dashoffset:0;}}@keyframes dash{to{stroke-dashoffset:0;}}#mermaid-1778921826915 .edge-animation-slow{stroke-dasharray:9,5!important;stroke-dashoffset:900;animation:dash 50s linear infinite;stroke-linecap:round;}#mermaid-1778921826915 .edge-animation-fast{stroke-dasharray:9,5!important;stroke-dashoffset:900;animation:dash 20s linear infinite;stroke-linecap:round;}#mermaid-1778921826915 .error-icon{fill:#fafbfc;}#mermaid-1778921826915 .error-text{fill:#050403;stroke:#050403;}#mermaid-1778921826915 .edge-thickness-normal{stroke-width:1px;}#mermaid-1778921826915 .edge-thickness-thick{stroke-width:3.5px;}#mermaid-1778921826915 .edge-pattern-solid{stroke-dasharray:0;}#mermaid-1778921826915 .edge-thickness-invisible{stroke-width:0;fill:none;}#mermaid-1778921826915 .edge-pattern-dashed{stroke-dasharray:3;}#mermaid-1778921826915 .edge-pattern-dotted{stroke-dasharray:2;}#mermaid-1778921826915 .marker{fill:#5a6478;stroke:#5a6478;}#mermaid-1778921826915 .marker.cross{stroke:#5a6478;}#mermaid-1778921826915 svg{font-family:-apple-system,BlinkMacSystemFont,"Segoe UI",Arial,sans-serif;font-size:14px;}#mermaid-1778921826915 p{margin:0;}#mermaid-1778921826915 .label{font-family:-apple-system,BlinkMacSystemFont,"Segoe UI",Arial,sans-serif;color:#0c831f;}#mermaid-1778921826915 .cluster-label text{fill:#050403;}#mermaid-1778921826915 .cluster-label span{color:#050403;}#mermaid-1778921826915 .cluster-label span p{background-color:transparent;}#mermaid-1778921826915 .label text,#mermaid-1778921826915 span{fill:#0c831f;color:#0c831f;}#mermaid-1778921826915 .node rect,#mermaid-1778921826915 .node circle,#mermaid-1778921826915 .node ellipse,#mermaid-1778921826915 .node polygon,#mermaid-1778921826915 .node path{fill:#ecfdf3;stroke:#11ab3a;stroke-width:1px;}#mermaid-1778921826915 .rough-node .label text,#mermaid-1778921826915 .node .label text,#mermaid-1778921826915 .image-shape .label,#mermaid-1778921826915 .icon-shape .label{text-anchor:middle;}#mermaid-1778921826915 .node .katex path{fill:#000;stroke:#000;stroke-width:1px;}#mermaid-1778921826915 .rough-node .label,#mermaid-1778921826915 .node .label,#mermaid-1778921826915 .image-shape .label,#mermaid-1778921826915 .icon-shape .label{text-align:center;}#mermaid-1778921826915 .node.clickable{cursor:pointer;}#mermaid-1778921826915 .root .anchor path{fill:#5a6478!important;stroke-width:0;stroke:#5a6478;}#mermaid-1778921826915 .arrowheadPath{fill:#0b0b0b;}#mermaid-1778921826915 .edgePath .path{stroke:#5a6478;stroke-width:1px;}#mermaid-1778921826915 .flowchart-link{stroke:#5a6478;fill:none;}#mermaid-1778921826915 .edgeLabel{background-color:hsl(24.7058823529, 80.9523809524%, 95.8823529412%);text-align:center;}#mermaid-1778921826915 .edgeLabel p{background-color:hsl(24.7058823529, 80.9523809524%, 95.8823529412%);}#mermaid-1778921826915 .edgeLabel rect{opacity:0.5;background-color:hsl(24.7058823529, 80.9523809524%, 95.8823529412%);fill:hsl(24.7058823529, 80.9523809524%, 95.8823529412%);}#mermaid-1778921826915 .labelBkg{background-color:rgba(253, 243.0000000001, 236.0000000001, 0.5);}#mermaid-1778921826915 .cluster rect{fill:#fafbfc;stroke:hsl(210, 0%, 88.431372549%);stroke-width:1px;}#mermaid-1778921826915 .cluster text{fill:#050403;}#mermaid-1778921826915 .cluster span{color:#050403;}#mermaid-1778921826915 div.mermaidTooltip{position:absolute;text-align:center;max-width:200px;padding:2px;font-family:-apple-system,BlinkMacSystemFont,"Segoe UI",Arial,sans-serif;font-size:12px;background:#fafbfc;border:1px solid hsl(210, 0%, 88.431372549%);border-radius:2px;pointer-events:none;z-index:100;}#mermaid-1778921826915 .flowchartTitleText{text-anchor:middle;font-size:18px;fill:#0c831f;}#mermaid-1778921826915 rect.text{fill:none;stroke-width:0;}#mermaid-1778921826915 .icon-shape,#mermaid-1778921826915 .image-shape{background-color:hsl(24.7058823529, 80.9523809524%, 95.8823529412%);text-align:center;}#mermaid-1778921826915 .icon-shape p,#mermaid-1778921826915 .image-shape p{background-color:hsl(24.7058823529, 80.9523809524%, 95.8823529412%);padding:2px;}#mermaid-1778921826915 .icon-shape .label rect,#mermaid-1778921826915 .image-shape .label rect{opacity:0.5;background-color:hsl(24.7058823529, 80.9523809524%, 95.8823529412%);fill:hsl(24.7058823529, 80.9523809524%, 95.8823529412%);}#mermaid-1778921826915 .label-icon{display:inline-block;height:1em;overflow:visible;vertical-align:-0.125em;}#mermaid-1778921826915 .node .label-icon path{fill:currentColor;stroke:revert;stroke-width:revert;}#mermaid-1778921826915 .node .neo-node{stroke:#11ab3a;}#mermaid-1778921826915 [data-look="neo"].node rect,#mermaid-1778921826915 [data-look="neo"].cluster rect,#mermaid-1778921826915 [data-look="neo"].node polygon{stroke:url(#mermaid-1778921826915-gradient);filter:drop-shadow( 1px 2px 2px rgba(185,185,185,1));}#mermaid-1778921826915 [data-look="neo"].node path{stroke:url(#mermaid-1778921826915-gradient);stroke-width:1px;}#mermaid-1778921826915 [data-look="neo"].node .outer-path{filter:drop-shadow( 1px 2px 2px rgba(185,185,185,1));}#mermaid-1778921826915 [data-look="neo"].node .neo-line path{stroke:#11ab3a;filter:none;}#mermaid-1778921826915 [data-look="neo"].node circle{stroke:url(#mermaid-1778921826915-gradient);filter:drop-shadow( 1px 2px 2px rgba(185,185,185,1));}#mermaid-1778921826915 [data-look="neo"].node circle .state-start{fill:#000000;}#mermaid-1778921826915 [data-look="neo"].icon-shape .icon{fill:url(#mermaid-1778921826915-gradient);filter:drop-shadow( 1px 2px 2px rgba(185,185,185,1));}#mermaid-1778921826915 [data-look="neo"].icon-shape .icon-neo path{stroke:url(#mermaid-1778921826915-gradient);filter:drop-shadow( 1px 2px 2px rgba(185,185,185,1));}#mermaid-1778921826915 :root{--mermaid-font-family:"trebuchet ms",verdana,arial,sans-serif;}#mermaid-1778921826915 .screen&gt;*{fill:rgb(255, 255, 255)!important;stroke:rgb(17, 171, 58)!important;stroke-width:1.5px!important;}#mermaid-1778921826915 .screen span{fill:rgb(255, 255, 255)!important;stroke:rgb(17, 171, 58)!important;stroke-width:1.5px!important;}#mermaid-1778921826915 .group&gt;*{fill:rgb(236, 253, 243)!important;stroke:rgb(12, 131, 31)!important;}#mermaid-1778921826915 .group span{fill:rgb(236, 253, 243)!important;stroke:rgb(12, 131, 31)!important;}#mermaid-1778921826915 .payment&gt;*{fill:rgb(254, 242, 242)!important;stroke:rgb(220, 38, 38)!important;}#mermaid-1778921826915 .payment span{fill:rgb(254, 242, 242)!important;stroke:rgb(220, 38, 38)!important;}</style><g><marker id="mermaid-1778921826915_flowchart-v2-pointEnd" class="marker flowchart-v2" viewBox="0 0 10 10" refX="5" refY="5" markerUnits="userSpaceOnUse" markerWidth="8" markerHeight="8" orient="auto"><path d="M 0 0 L 10 5 L 0 10 z" class="arrowMarkerPath" style="stroke-width: 1; stroke-dasharray: 1, 0;"/></marker><marker id="mermaid-1778921826915_flowchart-v2-pointStart" class="marker flowchart-v2" viewBox="0 0 10 10" refX="4.5" refY="5" markerUnits="userSpaceOnUse" markerWidth="8" markerHeight="8" orient="auto"><path d="M 0 5 L 10 10 L 10 0 z" class="arrowMarkerPath" style="stroke-width: 1; stroke-dasharray: 1, 0;"/></marker><marker id="mermaid-1778921826915_flowchart-v2-pointEnd-margin" class="marker flowchart-v2" viewBox="0 0 11.5 14" refX="11.5" refY="7" markerUnits="userSpaceOnUse" markerWidth="10.5" markerHeight="14" orient="auto"><path d="M 0 0 L 11.5 7 L 0 14 z" class="arrowMarkerPath" style="stroke-width: 0; stroke-dasharray: 1, 0;"/></marker><marker id="mermaid-1778921826915_flowchart-v2-pointStart-margin" class="marker flowchart-v2" viewBox="0 0 11.5 14" refX="1" refY="7" markerUnits="userSpaceOnUse" markerWidth="11.5" markerHeight="14" orient="auto"><polygon points="0,7 11.5,14 11.5,0" class="arrowMarkerPath" style="stroke-width: 0; stroke-dasharray: 1, 0;"/></marker><marker id="mermaid-1778921826915_flowchart-v2-circleEnd" class="marker flowchart-v2" viewBox="0 0 10 10" refX="11" refY="5" markerUnits="userSpaceOnUse" markerWidth="11" markerHeight="11" orient="auto"><circle cx="5" cy="5" r="5" class="arrowMarkerPath" style="stroke-width: 1; stroke-dasharray: 1, 0;"/></marker><marker id="mermaid-1778921826915_flowchart-v2-circleStart" class="marker flowchart-v2" viewBox="0 0 10 10" refX="-1" refY="5" markerUnits="userSpaceOnUse" markerWidth="11" markerHeight="11" orient="auto"><circle cx="5" cy="5" r="5" class="arrowMarkerPath" style="stroke-width: 1; stroke-dasharray: 1, 0;"/></marker><marker id="mermaid-1778921826915_flowchart-v2-circleEnd-margin" class="marker flowchart-v2" viewBox="0 0 10 10" refY="5" refX="12.25" markerUnits="userSpaceOnUse" markerWidth="14" markerHeight="14" orient="auto"><circle cx="5" cy="5" r="5" class="arrowMarkerPath" style="stroke-width: 0; stroke-dasharray: 1, 0;"/></marker><marker id="mermaid-1778921826915_flowchart-v2-circleStart-margin" class="marker flowchart-v2" viewBox="0 0 10 10" refX="-2" refY="5" markerUnits="userSpaceOnUse" markerWidth="14" markerHeight="14" orient="auto"><circle cx="5" cy="5" r="5" class="arrowMarkerPath" style="stroke-width: 0; stroke-dasharray: 1, 0;"/></marker><marker id="mermaid-1778921826915_flowchart-v2-crossEnd" class="marker cross flowchart-v2" viewBox="0 0 11 11" refX="12" refY="5.2" markerUnits="userSpaceOnUse" markerWidth="11" markerHeight="11" orient="auto"><path d="M 1,1 l 9,9 M 10,1 l -9,9" class="arrowMarkerPath" style="stroke-width: 2; stroke-dasharray: 1, 0;"/></marker><marker id="mermaid-1778921826915_flowchart-v2-crossStart" class="marker cross flowchart-v2" viewBox="0 0 11 11" refX="-1" refY="5.2" markerUnits="userSpaceOnUse" markerWidth="11" markerHeight="11" orient="auto"><path d="M 1,1 l 9,9 M 10,1 l -9,9" class="arrowMarkerPath" style="stroke-width: 2; stroke-dasharray: 1, 0;"/></marker><marker id="mermaid-1778921826915_flowchart-v2-crossEnd-margin" class="marker cross flowchart-v2" viewBox="0 0 15 15" refX="17.7" refY="7.5" markerUnits="userSpaceOnUse" markerWidth="12" markerHeight="12" orient="auto"><path d="M 1,1 L 14,14 M 1,14 L 14,1" class="arrowMarkerPath" style="stroke-width: 2.5;"/></marker><marker id="mermaid-1778921826915_flowchart-v2-crossStart-margin" class="marker cross flowchart-v2" viewBox="0 0 15 15" refX="-3.5" refY="7.5" markerUnits="userSpaceOnUse" markerWidth="12" markerHeight="12" orient="auto"><path d="M 1,1 L 14,14 M 1,14 L 14,1" class="arrowMarkerPath" style="stroke-width: 2.5; stroke-dasharray: 1, 0;"/></marker><g class="root"><g class="clusters"/><g class="edgePaths"><path d="M90.938,579.342L106.644,503.701C122.349,428.061,153.761,276.781,175.16,201.14C196.56,125.5,207.948,125.5,213.642,125.5L219.336,125.5" id="mermaid-1778921826915-L_Account_Activity_0" class="edge-thickness-normal edge-pattern-solid edge-thickness-normal edge-pattern-solid flowchart-link" style=";" data-edge="true" data-et="edge" data-id="L_Account_Activity_0" data-points="W3sieCI6OTAuOTM3OTMzMDYzOTM1NTksInkiOjU3OS4zNDE1MjAzMDk0NDgyfSx7IngiOjE4NS4xNzE4NzUsInkiOjEyNS41fSx7IngiOjIyMy4zMzU5Mzc1LCJ5IjoxMjUuNX1d" data-look="classic" marker-end="url(#mermaid-1778921826915_flowchart-v2-pointEnd)"/><path d="M106.664,579.342L119.748,560.217C132.833,541.092,159.002,502.842,177.254,483.717C195.505,464.592,205.839,464.592,211.005,464.592L216.172,464.592" id="mermaid-1778921826915-L_Account_Rewards_0" class="edge-thickness-normal edge-pattern-solid edge-thickness-normal edge-pattern-solid flowchart-link" style=";" data-edge="true" data-et="edge" data-id="L_Account_Rewards_0" data-points="W3sieCI6MTA2LjY2MzUwNzI5Njk1NDMyLCJ5Ijo1NzkuMzQxNTIwMzA5NDQ4Mn0seyJ4IjoxODUuMTcxODc1LCJ5Ijo0NjQuNTkxNTIwMzA5NDQ4MjR9LHsieCI6MjIwLjE3MTg3NSwieSI6NDY0LjU5MTUyMDMwOTQ0ODI0fV0=" data-look="classic" marker-end="url(#mermaid-1778921826915_flowchart-v2-pointEnd)"/><path d="M101.054,645.342L115.074,672.607C129.093,699.872,157.133,754.403,174.652,781.668C192.172,808.933,199.172,808.933,202.672,808.933L206.172,808.933" id="mermaid-1778921826915-L_Account_Prefs_0" class="edge-thickness-normal edge-pattern-solid edge-thickness-normal edge-pattern-solid flowchart-link" style=";" data-edge="true" data-et="edge" data-id="L_Account_Prefs_0" data-points="W3sieCI6MTAxLjA1NDI5ODc2MTIwMzgsInkiOjY0NS4zNDE1MjAzMDk0NDgyfSx7IngiOjE4NS4xNzE4NzUsInkiOjgwOC45MzMwNDA2MTg4OTY1fSx7IngiOjIxMC4xNzE4NzUsInkiOjgwOC45MzMwNDA2MTg4OTY1fV0=" data-look="classic" marker-end="url(#mermaid-1778921826915_flowchart-v2-pointEnd)"/><path d="M90.15,645.342L105.987,731.523C121.824,817.705,153.498,990.069,176.392,1076.251C199.286,1162.433,213.401,1162.433,220.458,1162.433L227.516,1162.433" id="mermaid-1778921826915-L_Account_Help_0" class="edge-thickness-normal edge-pattern-solid edge-thickness-normal edge-pattern-solid flowchart-link" style=";" data-edge="true" data-et="edge" data-id="L_Account_Help_0" data-points="W3sieCI6OTAuMTUwMDg0NjcyNDk4NjEsInkiOjY0NS4zNDE1MjAzMDk0NDgyfSx7IngiOjE4NS4xNzE4NzUsInkiOjExNjIuNDMzMDQwNjE4ODk2NX0seyJ4IjoyMzEuNTE1NjI1LCJ5IjoxMTYyLjQzMzA0MDYxODg5NjV9XQ==" data-look="classic" marker-end="url(#mermaid-1778921826915_flowchart-v2-pointEnd)"/><path d="M290.043,103L300.827,90.917C311.612,78.833,333.181,54.667,354.062,42.583C374.943,30.5,395.135,30.5,405.232,30.5L415.328,30.5" id="mermaid-1778921826915-L_Activity_Orders_0" class="edge-thickness-normal edge-pattern-solid edge-thickness-normal edge-pattern-solid flowchart-link" style=";" data-edge="true" data-et="edge" data-id="L_Activity_Orders_0" data-points="W3sieCI6MjkwLjA0MjU1NzU2NTc4OTUsInkiOjEwM30seyJ4IjozNTQuNzUsInkiOjMwLjV9LHsieCI6NDE5LjMyODEyNSwieSI6MzAuNX1d" data-look="classic" marker-end="url(#mermaid-1778921826915_flowchart-v2-pointEnd)"/><path d="M316.586,125.5L322.947,125.5C329.307,125.5,342.029,125.5,359.721,125.5C377.414,125.5,400.078,125.5,411.41,125.5L422.742,125.5" id="mermaid-1778921826915-L_Activity_Wishlist_0" class="edge-thickness-normal edge-pattern-solid edge-thickness-normal edge-pattern-solid flowchart-link" style=";" data-edge="true" data-et="edge" data-id="L_Activity_Wishlist_0" data-points="W3sieCI6MzE2LjU4NTkzNzUsInkiOjEyNS41fSx7IngiOjM1NC43NSwieSI6MTI1LjV9LHsieCI6NDI2Ljc0MjE4NzUsInkiOjEyNS41fV0=" data-look="classic" marker-end="url(#mermaid-1778921826915_flowchart-v2-pointEnd)"/><path d="M290.043,148L300.827,160.083C311.612,172.167,333.181,196.333,353.615,208.417C374.049,220.5,393.349,220.5,402.999,220.5L412.648,220.5" id="mermaid-1778921826915-L_Activity_Returns_0" class="edge-thickness-normal edge-pattern-solid edge-thickness-normal edge-pattern-solid flowchart-link" style=";" data-edge="true" data-et="edge" data-id="L_Activity_Returns_0" data-points="W3sieCI6MjkwLjA0MjU1NzU2NTc4OTUsInkiOjE0OH0seyJ4IjozNTQuNzUsInkiOjIyMC41fSx7IngiOjQxNi42NDg0Mzc1LCJ5IjoyMjAuNX1d" data-look="classic" marker-end="url(#mermaid-1778921826915_flowchart-v2-pointEnd)"/><path d="M532.633,220.5L549.639,220.5C566.646,220.5,600.659,220.5,630.451,220.5C660.242,220.5,685.813,220.5,698.598,220.5L711.383,220.5" id="mermaid-1778921826915-L_Returns_ReturnDetail_0" class="edge-thickness-normal edge-pattern-solid edge-thickness-normal edge-pattern-solid flowchart-link" style=";" data-edge="true" data-et="edge" data-id="L_Returns_ReturnDetail_0" data-points="W3sieCI6NTMyLjYzMjgxMjUsInkiOjIyMC41fSx7IngiOjYzNC42NzE4NzUsInkiOjIyMC41fSx7IngiOjcxNS4zODI4MTI1LCJ5IjoyMjAuNX1d" data-look="classic" marker-end="url(#mermaid-1778921826915_flowchart-v2-pointEnd)"/><path d="M289.165,442.092L300.096,429.285C311.027,416.478,332.888,390.864,347.319,378.057C361.75,365.25,368.75,365.25,372.25,365.25L375.75,365.25" id="mermaid-1778921826915-L_Rewards_Loyalty_0" class="edge-thickness-normal edge-pattern-solid edge-thickness-normal edge-pattern-solid flowchart-link" style=";" data-edge="true" data-et="edge" data-id="L_Rewards_Loyalty_0" data-points="W3sieCI6Mjg5LjE2NDkzMDk1OTIwMzczLCJ5Ijo0NDIuMDkxNTIwMzA5NDQ4MjR9LHsieCI6MzU0Ljc1LCJ5IjozNjUuMjV9LHsieCI6Mzc5Ljc1LCJ5IjozNjUuMjV9XQ==" data-look="classic" marker-end="url(#mermaid-1778921826915_flowchart-v2-pointEnd)"/><path d="M290.547,487.092L301.248,498.787C311.948,510.482,333.349,533.872,349.096,545.567C364.844,557.262,374.938,557.262,379.984,557.262L385.031,557.262" id="mermaid-1778921826915-L_Rewards_Wallet_0" class="edge-thickness-normal edge-pattern-solid edge-thickness-normal edge-pattern-solid flowchart-link" style=";" data-edge="true" data-et="edge" data-id="L_Rewards_Wallet_0" data-points="W3sieCI6MjkwLjU0NzMwMDQ4MDc4MDUsInkiOjQ4Ny4wOTE1MjAzMDk0NDgyNH0seyJ4IjozNTQuNzUsInkiOjU1Ny4yNjIyODA0NjQxNzI0fSx7IngiOjM4OS4wMzEyNSwieSI6NTU3LjI2MjI4MDQ2NDE3MjR9XQ==" data-look="classic" marker-end="url(#mermaid-1778921826915_flowchart-v2-pointEnd)"/><path d="M569.531,338.864L580.388,335.845C591.245,332.826,612.958,326.788,635.409,323.769C657.859,320.75,681.047,320.75,692.641,320.75L704.234,320.75" id="mermaid-1778921826915-L_Loyalty_RedeemModal_0" class="edge-thickness-normal edge-pattern-solid edge-thickness-normal edge-pattern-solid flowchart-link" style=";" data-edge="true" data-et="edge" data-id="L_Loyalty_RedeemModal_0" data-points="W3sieCI6NTY5LjUzMTI1LCJ5IjozMzguODYzNjk4NDk2Mzg3NH0seyJ4Ijo2MzQuNjcxODc1LCJ5IjozMjAuNzV9LHsieCI6NzA4LjIzNDM3NSwieSI6MzIwLjc1fV0=" data-look="classic" marker-end="url(#mermaid-1778921826915_flowchart-v2-pointEnd)"/><path d="M569.531,391.636L580.388,394.655C591.245,397.674,612.958,403.712,639.583,406.811C666.209,409.91,697.745,410.07,713.514,410.15L729.282,410.23" id="mermaid-1778921826915-L_Loyalty_ShareSheet_0" class="edge-thickness-normal edge-pattern-solid edge-thickness-normal edge-pattern-solid flowchart-link" style=";" data-edge="true" data-et="edge" data-id="L_Loyalty_ShareSheet_0" data-points="W3sieCI6NTY5LjUzMTI1LCJ5IjozOTEuNjM2MzAxNTAzNjEyNn0seyJ4Ijo2MzQuNjcxODc1LCJ5Ijo0MDkuNzV9LHsieCI6NzMzLjI4MTkxMzc1NzMyMSwieSI6NDEwLjI1fV0=" data-look="classic" marker-end="url(#mermaid-1778921826915_flowchart-v2-pointEnd)"/><path d="M560.25,529.888L572.654,525.922C585.057,521.956,609.865,514.024,639.867,510.058C669.87,506.092,705.068,506.092,722.667,506.092L740.266,506.092" id="mermaid-1778921826915-L_Wallet_RazorpayWV_0" class="edge-thickness-normal edge-pattern-solid edge-thickness-normal edge-pattern-solid flowchart-link" style=";" data-edge="true" data-et="edge" data-id="L_Wallet_RazorpayWV_0" data-points="W3sieCI6NTYwLjI1LCJ5Ijo1MjkuODg4MjcxOTgwNjk5MX0seyJ4Ijo2MzQuNjcxODc1LCJ5Ijo1MDYuMDkxNTIwMzA5NDQ4MjR9LHsieCI6NzQ0LjI2NTYyNSwieSI6NTA2LjA5MTUyMDMwOTQ0ODI0fV0=" data-look="classic" marker-end="url(#mermaid-1778921826915_flowchart-v2-pointEnd)"/><path d="M560.25,584.636L572.654,588.602C585.057,592.569,609.865,600.501,636.992,604.467C664.12,608.433,693.568,608.433,708.292,608.433L723.016,608.433" id="mermaid-1778921826915-L_Wallet_KYCNotice_0" class="edge-thickness-normal edge-pattern-solid edge-thickness-normal edge-pattern-solid flowchart-link" style=";" data-edge="true" data-et="edge" data-id="L_Wallet_KYCNotice_0" data-points="W3sieCI6NTYwLjI1LCJ5Ijo1ODQuNjM2Mjg4OTQ3NjQ1N30seyJ4Ijo2MzQuNjcxODc1LCJ5Ijo2MDguNDMzMDQwNjE4ODk2NX0seyJ4Ijo3MjcuMDE1NjI1LCJ5Ijo2MDguNDMzMDQwNjE4ODk2NX1d" data-look="classic" marker-end="url(#mermaid-1778921826915_flowchart-v2-pointEnd)"/><path d="M283.349,786.433L295.249,766.433C307.149,746.433,330.95,706.433,351.216,686.433C371.482,666.433,388.214,666.433,396.579,666.433L404.945,666.433" id="mermaid-1778921826915-L_Prefs_Profile_0" class="edge-thickness-normal edge-pattern-solid edge-thickness-normal edge-pattern-solid flowchart-link" style=";" data-edge="true" data-et="edge" data-id="L_Prefs_Profile_0" data-points="W3sieCI6MjgzLjM0ODY4NDIxMDUyNjMsInkiOjc4Ni40MzMwNDA2MTg4OTY1fSx7IngiOjM1NC43NSwieSI6NjY2LjQzMzA0MDYxODg5NjV9LHsieCI6NDA4Ljk0NTMxMjUsInkiOjY2Ni40MzMwNDA2MTg4OTY1fV0=" data-look="classic" marker-end="url(#mermaid-1778921826915_flowchart-v2-pointEnd)"/><path d="M310.124,786.433L317.562,782.266C324.999,778.1,339.875,769.766,354.16,765.6C368.445,761.433,382.141,761.433,388.988,761.433L395.836,761.433" id="mermaid-1778921826915-L_Prefs_Addresses_0" class="edge-thickness-normal edge-pattern-solid edge-thickness-normal edge-pattern-solid flowchart-link" style=";" data-edge="true" data-et="edge" data-id="L_Prefs_Addresses_0" data-points="W3sieCI6MzEwLjEyNDE3NzYzMTU3ODk2LCJ5Ijo3ODYuNDMzMDQwNjE4ODk2NX0seyJ4IjozNTQuNzUsInkiOjc2MS40MzMwNDA2MTg4OTY1fSx7IngiOjM5OS44MzU5Mzc1LCJ5Ijo3NjEuNDMzMDQwNjE4ODk2NX1d" data-look="classic" marker-end="url(#mermaid-1778921826915_flowchart-v2-pointEnd)"/><path d="M310.124,831.433L317.562,835.6C324.999,839.766,339.875,848.1,352.928,852.266C365.982,856.433,377.214,856.433,382.829,856.433L388.445,856.433" id="mermaid-1778921826915-L_Prefs_Notifications_0" class="edge-thickness-normal edge-pattern-solid edge-thickness-normal edge-pattern-solid flowchart-link" style=";" data-edge="true" data-et="edge" data-id="L_Prefs_Notifications_0" data-points="W3sieCI6MzEwLjEyNDE3NzYzMTU3ODk2LCJ5Ijo4MzEuNDMzMDQwNjE4ODk2NX0seyJ4IjozNTQuNzUsInkiOjg1Ni40MzMwNDA2MTg4OTY1fSx7IngiOjM5Mi40NDUzMTI1LCJ5Ijo4NTYuNDMzMDQwNjE4ODk2NX1d" data-look="classic" marker-end="url(#mermaid-1778921826915_flowchart-v2-pointEnd)"/><path d="M282.43,831.433L294.483,853.183C306.537,874.933,330.643,918.433,349.052,940.183C367.461,961.933,380.172,961.933,386.527,961.933L392.883,961.933" id="mermaid-1778921826915-L_Prefs_Security_0" class="edge-thickness-normal edge-pattern-solid edge-thickness-normal edge-pattern-solid flowchart-link" style=";" data-edge="true" data-et="edge" data-id="L_Prefs_Security_0" data-points="W3sieCI6MjgyLjQyOTkxNzI3OTQxMTc3LCJ5Ijo4MzEuNDMzMDQwNjE4ODk2NX0seyJ4IjozNTQuNzUsInkiOjk2MS45MzMwNDA2MTg4OTY1fSx7IngiOjM5Ni44ODI4MTI1LCJ5Ijo5NjEuOTMzMDQwNjE4ODk2NX1d" data-look="classic" marker-end="url(#mermaid-1778921826915_flowchart-v2-pointEnd)"/><path d="M549.445,761.433L563.65,761.433C577.854,761.433,606.263,761.433,630.658,761.433C655.052,761.433,675.432,761.433,685.622,761.433L695.813,761.433" id="mermaid-1778921826915-L_Addresses_AddrForm_0" class="edge-thickness-normal edge-pattern-solid edge-thickness-normal edge-pattern-solid flowchart-link" style=";" data-edge="true" data-et="edge" data-id="L_Addresses_AddrForm_0" data-points="W3sieCI6NTQ5LjQ0NTMxMjUsInkiOjc2MS40MzMwNDA2MTg4OTY1fSx7IngiOjYzNC42NzE4NzUsInkiOjc2MS40MzMwNDA2MTg4OTY1fSx7IngiOjY5OS44MTI1LCJ5Ijo3NjEuNDMzMDQwNjE4ODk2NX1d" data-look="classic" marker-end="url(#mermaid-1778921826915_flowchart-v2-pointEnd)"/><path d="M290.043,1139.933L300.827,1127.85C311.612,1115.766,333.181,1091.6,352.818,1079.516C372.456,1067.433,390.161,1067.433,399.014,1067.433L407.867,1067.433" id="mermaid-1778921826915-L_Help_Support_0" class="edge-thickness-normal edge-pattern-solid edge-thickness-normal edge-pattern-solid flowchart-link" style=";" data-edge="true" data-et="edge" data-id="L_Help_Support_0" data-points="W3sieCI6MjkwLjA0MjU1NzU2NTc4OTUsInkiOjExMzkuOTMzMDQwNjE4ODk2NX0seyJ4IjozNTQuNzUsInkiOjEwNjcuNDMzMDQwNjE4ODk2NX0seyJ4Ijo0MTEuODY3MTg3NSwieSI6MTA2Ny40MzMwNDA2MTg4OTY1fV0=" data-look="classic" marker-end="url(#mermaid-1778921826915_flowchart-v2-pointEnd)"/><path d="M308.406,1162.433L316.13,1162.433C323.854,1162.433,339.302,1162.433,355.876,1162.433C372.451,1162.433,390.151,1162.433,399.001,1162.433L407.852,1162.433" id="mermaid-1778921826915-L_Help_Settings_0" class="edge-thickness-normal edge-pattern-solid edge-thickness-normal edge-pattern-solid flowchart-link" style=";" data-edge="true" data-et="edge" data-id="L_Help_Settings_0" data-points="W3sieCI6MzA4LjQwNjI1LCJ5IjoxMTYyLjQzMzA0MDYxODg5NjV9LHsieCI6MzU0Ljc1LCJ5IjoxMTYyLjQzMzA0MDYxODg5NjV9LHsieCI6NDExLjg1MTU2MjUsInkiOjExNjIuNDMzMDQwNjE4ODk2NX1d" data-look="classic" marker-end="url(#mermaid-1778921826915_flowchart-v2-pointEnd)"/><path d="M288.728,1184.933L299.731,1198.126C310.735,1211.319,332.743,1237.704,357.753,1250.897C382.763,1264.09,410.776,1264.09,424.783,1264.09L438.789,1264.09" id="mermaid-1778921826915-L_Help_SignOut_0" class="edge-thickness-normal edge-pattern-solid edge-thickness-normal edge-pattern-solid flowchart-link" style=";" data-edge="true" data-et="edge" data-id="L_Help_SignOut_0" data-points="W3sieCI6Mjg4LjcyNzYxMDkzODEyMDM0LCJ5IjoxMTg0LjkzMzA0MDYxODg5NjV9LHsieCI6MzU0Ljc1LCJ5IjoxMjY0LjA4OTUxNzU5MzM4Mzh9LHsieCI6NDQyLjc4OTA2MjUsInkiOjEyNjQuMDg5NTE3NTkzMzgzOH1d" data-look="classic" marker-end="url(#mermaid-1778921826915_flowchart-v2-pointEnd)"/></g><g class="edgeLabels"><g class="edgeLabel"><g class="label" data-id="L_Account_Activity_0" transform="translate(0, 0)"><text x="0" y="0" text-anchor="middle" dominant-baseline="central" font-family="-apple-system, BlinkMacSystemFont, &quot;Segoe UI&quot;, Arial, sans-serif" font-size="13" fill="#0c831f"><tspan x="0" dy="0em"/></text></g></g><g class="edgeLabel"><g class="label" data-id="L_Account_Rewards_0" transform="translate(0, 0)"><text x="0" y="0" text-anchor="middle" dominant-baseline="central" font-family="-apple-system, BlinkMacSystemFont, &quot;Segoe UI&quot;, Arial, sans-serif" font-size="13" fill="#0c831f"><tspan x="0" dy="0em"/></text></g></g><g class="edgeLabel"><g class="label" data-id="L_Account_Prefs_0" transform="translate(0, 0)"><text x="0" y="0" text-anchor="middle" dominant-baseline="central" font-family="-apple-system, BlinkMacSystemFont, &quot;Segoe UI&quot;, Arial, sans-serif" font-size="13" fill="#0c831f"><tspan x="0" dy="0em"/></text></g></g><g class="edgeLabel"><g class="label" data-id="L_Account_Help_0" transform="translate(0, 0)"><text x="0" y="0" text-anchor="middle" dominant-baseline="central" font-family="-apple-system, BlinkMacSystemFont, &quot;Segoe UI&quot;, Arial, sans-serif" font-size="13" fill="#0c831f"><tspan x="0" dy="0em"/></text></g></g><g class="edgeLabel"><g class="label" data-id="L_Activity_Orders_0" transform="translate(0, 0)"><text x="0" y="0" text-anchor="middle" dominant-baseline="central" font-family="-apple-system, BlinkMacSystemFont, &quot;Segoe UI&quot;, Arial, sans-serif" font-size="13" fill="#0c831f"><tspan x="0" dy="0em"/></text></g></g><g class="edgeLabel"><g class="label" data-id="L_Activity_Wishlist_0" transform="translate(0, 0)"><text x="0" y="0" text-anchor="middle" dominant-baseline="central" font-family="-apple-system, BlinkMacSystemFont, &quot;Segoe UI&quot;, Arial, sans-serif" font-size="13" fill="#0c831f"><tspan x="0" dy="0em"/></text></g></g><g class="edgeLabel"><g class="label" data-id="L_Activity_Returns_0" transform="translate(0, 0)"><text x="0" y="0" text-anchor="middle" dominant-baseline="central" font-family="-apple-system, BlinkMacSystemFont, &quot;Segoe UI&quot;, Arial, sans-serif" font-size="13" fill="#0c831f"><tspan x="0" dy="0em"/></text></g></g><g class="edgeLabel" transform="translate(634.671875, 220.5)"><g class="label" data-id="L_Returns_ReturnDetail_0" transform="translate(-17.109375, -10.5)"><text x="17.109375" y="10.5" text-anchor="middle" dominant-baseline="central" font-family="-apple-system, BlinkMacSystemFont, &quot;Segoe UI&quot;, Arial, sans-serif" font-size="13" fill="#0c831f"><tspan x="17.109375" dy="0em">detail</tspan></text></g></g><g class="edgeLabel"><g class="label" data-id="L_Rewards_Loyalty_0" transform="translate(0, 0)"><text x="0" y="0" text-anchor="middle" dominant-baseline="central" font-family="-apple-system, BlinkMacSystemFont, &quot;Segoe UI&quot;, Arial, sans-serif" font-size="13" fill="#0c831f"><tspan x="0" dy="0em"/></text></g></g><g class="edgeLabel"><g class="label" data-id="L_Rewards_Wallet_0" transform="translate(0, 0)"><text x="0" y="0" text-anchor="middle" dominant-baseline="central" font-family="-apple-system, BlinkMacSystemFont, &quot;Segoe UI&quot;, Arial, sans-serif" font-size="13" fill="#0c831f"><tspan x="0" dy="0em"/></text></g></g><g class="edgeLabel" transform="translate(634.671875, 320.75)"><g class="label" data-id="L_Loyalty_RedeemModal_0" transform="translate(-23.5703125, -10.5)"><text x="23.5703125" y="10.5" text-anchor="middle" dominant-baseline="central" font-family="-apple-system, BlinkMacSystemFont, &quot;Segoe UI&quot;, Arial, sans-serif" font-size="13" fill="#0c831f"><tspan x="23.5703125" dy="0em">redeem</tspan></text></g></g><g class="edgeLabel" transform="translate(634.671875, 409.75)"><g class="label" data-id="L_Loyalty_ShareSheet_0" transform="translate(-33.625, -10.5)"><text x="33.625" y="10.5" text-anchor="middle" dominant-baseline="central" font-family="-apple-system, BlinkMacSystemFont, &quot;Segoe UI&quot;, Arial, sans-serif" font-size="13" fill="#0c831f"><tspan x="33.625" dy="0em">share code</tspan></text></g></g><g class="edgeLabel" transform="translate(634.671875, 506.09152030944824)"><g class="label" data-id="L_Wallet_RazorpayWV_0" transform="translate(-34.8671875, -10.5)"><text x="34.8671875" y="10.5" text-anchor="middle" dominant-baseline="central" font-family="-apple-system, BlinkMacSystemFont, &quot;Segoe UI&quot;, Arial, sans-serif" font-size="13" fill="#0c831f"><tspan x="34.8671875" dy="0em">add money</tspan></text></g></g><g class="edgeLabel" transform="translate(634.671875, 608.4330406188965)"><g class="label" data-id="L_Wallet_KYCNotice_0" transform="translate(-40.140625, -10.5)"><text x="40.140625" y="10.5" text-anchor="middle" dominant-baseline="central" font-family="-apple-system, BlinkMacSystemFont, &quot;Segoe UI&quot;, Arial, sans-serif" font-size="13" fill="#0c831f"><tspan x="40.140625" dy="0em">KYC required</tspan></text></g></g><g class="edgeLabel"><g class="label" data-id="L_Prefs_Profile_0" transform="translate(0, 0)"><text x="0" y="0" text-anchor="middle" dominant-baseline="central" font-family="-apple-system, BlinkMacSystemFont, &quot;Segoe UI&quot;, Arial, sans-serif" font-size="13" fill="#0c831f"><tspan x="0" dy="0em"/></text></g></g><g class="edgeLabel"><g class="label" data-id="L_Prefs_Addresses_0" transform="translate(0, 0)"><text x="0" y="0" text-anchor="middle" dominant-baseline="central" font-family="-apple-system, BlinkMacSystemFont, &quot;Segoe UI&quot;, Arial, sans-serif" font-size="13" fill="#0c831f"><tspan x="0" dy="0em"/></text></g></g><g class="edgeLabel"><g class="label" data-id="L_Prefs_Notifications_0" transform="translate(0, 0)"><text x="0" y="0" text-anchor="middle" dominant-baseline="central" font-family="-apple-system, BlinkMacSystemFont, &quot;Segoe UI&quot;, Arial, sans-serif" font-size="13" fill="#0c831f"><tspan x="0" dy="0em"/></text></g></g><g class="edgeLabel"><g class="label" data-id="L_Prefs_Security_0" transform="translate(0, 0)"><text x="0" y="0" text-anchor="middle" dominant-baseline="central" font-family="-apple-system, BlinkMacSystemFont, &quot;Segoe UI&quot;, Arial, sans-serif" font-size="13" fill="#0c831f"><tspan x="0" dy="0em"/></text></g></g><g class="edgeLabel" transform="translate(634.671875, 761.4330406188965)"><g class="label" data-id="L_Addresses_AddrForm_0" transform="translate(-26.390625, -10.5)"><text x="26.390625" y="10.5" text-anchor="middle" dominant-baseline="central" font-family="-apple-system, BlinkMacSystemFont, &quot;Segoe UI&quot;, Arial, sans-serif" font-size="13" fill="#0c831f"><tspan x="26.390625" dy="0em">add/edit</tspan></text></g></g><g class="edgeLabel"><g class="label" data-id="L_Help_Support_0" transform="translate(0, 0)"><text x="0" y="0" text-anchor="middle" dominant-baseline="central" font-family="-apple-system, BlinkMacSystemFont, &quot;Segoe UI&quot;, Arial, sans-serif" font-size="13" fill="#0c831f"><tspan x="0" dy="0em"/></text></g></g><g class="edgeLabel"><g class="label" data-id="L_Help_Settings_0" transform="translate(0, 0)"><text x="0" y="0" text-anchor="middle" dominant-baseline="central" font-family="-apple-system, BlinkMacSystemFont, &quot;Segoe UI&quot;, Arial, sans-serif" font-size="13" fill="#0c831f"><tspan x="0" dy="0em"/></text></g></g><g class="edgeLabel"><g class="label" data-id="L_Help_SignOut_0" transform="translate(0, 0)"><text x="0" y="0" text-anchor="middle" dominant-baseline="central" font-family="-apple-system, BlinkMacSystemFont, &quot;Segoe UI&quot;, Arial, sans-serif" font-size="13" fill="#0c831f"><tspan x="0" dy="0em"/></text></g></g></g><g class="nodes"><g class="node default screen" id="mermaid-1778921826915-flowchart-Account-0" data-look="classic" transform="translate(84.0859375, 612.3415203094482)"><rect class="basic label-container" style="fill:#ffffff !important;stroke:#11ab3a !important;stroke-width:1.5px !important" x="-76.0859375" y="-33" width="152.171875" height="66"/><g class="label" style="" transform="translate(-52.0859375, -21)"><rect/><text x="52.0859375" y="21" text-anchor="middle" dominant-baseline="central" font-family="-apple-system, BlinkMacSystemFont, &quot;Segoe UI&quot;, Arial, sans-serif" font-size="13" fill="#0c831f"><tspan x="52.0859375" dy="-0.6em">Account home</tspan><tspan x="52.0859375" dy="1.2em">avatar loyalty pill</tspan></text></g></g><g class="node default group" id="mermaid-1778921826915-flowchart-Activity-2" data-look="classic" transform="translate(269.9609375, 125.5)"><rect class="basic label-container" style="fill:#ecfdf3 !important;stroke:#0c831f !important" x="-46.625" y="-22.5" width="93.25" height="45"/><g class="label" style="" transform="translate(-22.625, -10.5)"><rect/><text x="22.625" y="10.5" text-anchor="middle" dominant-baseline="central" font-family="-apple-system, BlinkMacSystemFont, &quot;Segoe UI&quot;, Arial, sans-serif" font-size="13" fill="#0c831f"><tspan x="22.625" dy="0em">Activity</tspan></text></g></g><g class="node default group" id="mermaid-1778921826915-flowchart-Rewards-4" data-look="classic" transform="translate(269.9609375, 464.59152030944824)"><rect class="basic label-container" style="fill:#ecfdf3 !important;stroke:#0c831f !important" x="-49.7890625" y="-22.5" width="99.578125" height="45"/><g class="label" style="" transform="translate(-25.7890625, -10.5)"><rect/><text x="25.7890625" y="10.5" text-anchor="middle" dominant-baseline="central" font-family="-apple-system, BlinkMacSystemFont, &quot;Segoe UI&quot;, Arial, sans-serif" font-size="13" fill="#0c831f"><tspan x="25.7890625" dy="0em">Rewards</tspan></text></g></g><g class="node default group" id="mermaid-1778921826915-flowchart-Prefs-6" data-look="classic" transform="translate(269.9609375, 808.9330406188965)"><rect class="basic label-container" style="fill:#ecfdf3 !important;stroke:#0c831f !important" x="-59.7890625" y="-22.5" width="119.578125" height="45"/><g class="label" style="" transform="translate(-35.7890625, -10.5)"><rect/><text x="35.7890625" y="10.5" text-anchor="middle" dominant-baseline="central" font-family="-apple-system, BlinkMacSystemFont, &quot;Segoe UI&quot;, Arial, sans-serif" font-size="13" fill="#0c831f"><tspan x="35.7890625" dy="0em">Preferences</tspan></text></g></g><g class="node default group" id="mermaid-1778921826915-flowchart-Help-8" data-look="classic" transform="translate(269.9609375, 1162.4330406188965)"><rect class="basic label-container" style="fill:#ecfdf3 !important;stroke:#0c831f !important" x="-38.4453125" y="-22.5" width="76.890625" height="45"/><g class="label" style="" transform="translate(-14.4453125, -10.5)"><rect/><text x="14.4453125" y="10.5" text-anchor="middle" dominant-baseline="central" font-family="-apple-system, BlinkMacSystemFont, &quot;Segoe UI&quot;, Arial, sans-serif" font-size="13" fill="#0c831f"><tspan x="14.4453125" dy="0em">Help</tspan></text></g></g><g class="node default screen" id="mermaid-1778921826915-flowchart-Orders-10" data-look="classic" transform="translate(474.640625, 30.5)"><rect class="basic label-container" style="fill:#ffffff !important;stroke:#11ab3a !important;stroke-width:1.5px !important" x="-55.3125" y="-22.5" width="110.625" height="45"/><g class="label" style="" transform="translate(-31.3125, -10.5)"><rect/><text x="31.3125" y="10.5" text-anchor="middle" dominant-baseline="central" font-family="-apple-system, BlinkMacSystemFont, &quot;Segoe UI&quot;, Arial, sans-serif" font-size="13" fill="#0c831f"><tspan x="31.3125" dy="0em">My orders</tspan></text></g></g><g class="node default screen" id="mermaid-1778921826915-flowchart-Wishlist-12" data-look="classic" transform="translate(474.640625, 125.5)"><rect class="basic label-container" style="fill:#ffffff !important;stroke:#11ab3a !important;stroke-width:1.5px !important" x="-47.8984375" y="-22.5" width="95.796875" height="45"/><g class="label" style="" transform="translate(-23.8984375, -10.5)"><rect/><text x="23.8984375" y="10.5" text-anchor="middle" dominant-baseline="central" font-family="-apple-system, BlinkMacSystemFont, &quot;Segoe UI&quot;, Arial, sans-serif" font-size="13" fill="#0c831f"><tspan x="23.8984375" dy="0em">Wishlist</tspan></text></g></g><g class="node default screen" id="mermaid-1778921826915-flowchart-Returns-14" data-look="classic" transform="translate(474.640625, 220.5)"><rect class="basic label-container" style="fill:#ffffff !important;stroke:#11ab3a !important;stroke-width:1.5px !important" x="-57.9921875" y="-22.5" width="115.984375" height="45"/><g class="label" style="" transform="translate(-33.9921875, -10.5)"><rect/><text x="33.9921875" y="10.5" text-anchor="middle" dominant-baseline="central" font-family="-apple-system, BlinkMacSystemFont, &quot;Segoe UI&quot;, Arial, sans-serif" font-size="13" fill="#0c831f"><tspan x="33.9921875" dy="0em">Returns list</tspan></text></g></g><g class="node default screen" id="mermaid-1778921826915-flowchart-ReturnDetail-16" data-look="classic" transform="translate(778.78125, 220.5)"><rect class="basic label-container" style="fill:#ffffff !important;stroke:#11ab3a !important;stroke-width:1.5px !important" x="-63.3984375" y="-22.5" width="126.796875" height="45"/><g class="label" style="" transform="translate(-39.3984375, -10.5)"><rect/><text x="39.3984375" y="10.5" text-anchor="middle" dominant-baseline="central" font-family="-apple-system, BlinkMacSystemFont, &quot;Segoe UI&quot;, Arial, sans-serif" font-size="13" fill="#0c831f"><tspan x="39.3984375" dy="0em">Return detail</tspan></text></g></g><g class="node default screen" id="mermaid-1778921826915-flowchart-Loyalty-18" data-look="classic" transform="translate(474.640625, 365.25)"><rect class="basic label-container" style="fill:#ffffff !important;stroke:#11ab3a !important;stroke-width:1.5px !important" x="-94.890625" y="-33" width="189.78125" height="66"/><g class="label" style="" transform="translate(-70.890625, -21)"><rect/><text x="70.890625" y="21" text-anchor="middle" dominant-baseline="central" font-family="-apple-system, BlinkMacSystemFont, &quot;Segoe UI&quot;, Arial, sans-serif" font-size="13" fill="#0c831f"><tspan x="70.890625" dy="-0.6em">Loyalty</tspan><tspan x="70.890625" dy="1.2em">balance redeem ledger</tspan></text></g></g><g class="node default screen" id="mermaid-1778921826915-flowchart-Wallet-20" data-look="classic" transform="translate(474.640625, 557.2622804641724)"><rect class="basic label-container" style="fill:#ffffff !important;stroke:#11ab3a !important;stroke-width:1.5px !important" x="-85.609375" y="-33" width="171.21875" height="66"/><g class="label" style="" transform="translate(-61.609375, -21)"><rect/><text x="61.609375" y="21" text-anchor="middle" dominant-baseline="central" font-family="-apple-system, BlinkMacSystemFont, &quot;Segoe UI&quot;, Arial, sans-serif" font-size="13" fill="#0c831f"><tspan x="61.609375" dy="-0.6em">Wallet</tspan><tspan x="61.609375" dy="1.2em">balance txns top-up</tspan></text></g></g><g class="node default screen" id="mermaid-1778921826915-flowchart-RedeemModal-22" data-look="classic" transform="translate(778.78125, 320.75)"><rect class="basic label-container" style="fill:#ffffff !important;stroke:#11ab3a !important;stroke-width:1.5px !important" x="-70.546875" y="-22.5" width="141.09375" height="45"/><g class="label" style="" transform="translate(-46.546875, -10.5)"><rect/><text x="46.546875" y="10.5" text-anchor="middle" dominant-baseline="central" font-family="-apple-system, BlinkMacSystemFont, &quot;Segoe UI&quot;, Arial, sans-serif" font-size="13" fill="#0c831f"><tspan x="46.546875" dy="0em">Redeem modal</tspan></text></g></g><g class="node default" id="mermaid-1778921826915-flowchart-ShareSheet-24" data-look="classic" transform="translate(778.78125, 409.75)"><g class="basic label-container outer-path"><path d="M-29.5078125 -16.5 C-8.977446914333367 -16.5, 11.552918671333266 -16.5, 29.5078125 -16.5 C29.5078125 -16.5, 29.5078125 -16.5, 29.5078125 -16.5 C29.752421845075204 -16.492155854406644, 29.997031190150413 -16.48431170881329, 30.564971129681762 -16.46609898038055 C30.813381524804 -16.442135128320317, 31.061791919926236 -16.418171276260086, 31.617785667794347 -16.36453522808356 C32.03291381473319 -16.29742052865335, 32.44804196167203 -16.230305829223138, 32.66192987357264 -16.19572609035258 C32.907782213831 -16.139611898025063, 33.15363455408936 -16.083497705697543, 33.693113134506866 -15.960365240143986 C33.95323516716023 -15.88316238626088, 34.21335719981359 -15.805959532377774, 34.70709809738974 -15.659419825676032 C34.959484707127444 -15.56653922025631, 35.21187131686515 -15.473658614836589, 35.69971808050967 -15.294126496209358 C35.939045124619575 -15.188183513166427, 36.17837216872948 -15.082240530123494, 36.66689419543971 -14.865986320389917 C36.98712018374534 -14.698924627405402, 37.30734617205098 -14.531862934420888, 37.60465210806497 -14.376758618035927 C37.94564704316654 -14.170045484468687, 38.28664197826811 -13.96333235090145, 38.50913836997405 -13.828453730715372 C38.76704745380086 -13.648547518542083, 39.02495653762768 -13.468641306368793, 39.37663625310506 -13.223324760821285 C39.70489262378474 -12.961549040473127, 40.03314899446441 -12.699773320124969, 40.203581022578504 -12.56385831309072 C40.40672331266006 -12.37936986008911, 40.60986560274162 -12.1948814070875, 40.98657458495752 -11.852764276612506 C41.14937348006626 -11.684661051374876, 41.312172375174995 -11.516557826137245, 41.7223994517427 -11.092964689311732 C41.9061408431611 -10.87713159577033, 42.0898822345795 -10.661298502228925, 42.40803196072249 -10.287581730669105 C42.54211145506792 -10.107927423139449, 42.676190949413346 -9.928273115609795, 43.04065470084977 -9.439924892015803 C43.26953687517602 -9.088300408781178, 43.49841904950227 -8.736675925546553, 43.61766808958821 -8.553477377123665 C43.72994682864033 -8.354115106481428, 43.84222556769246 -8.15475283583919, 44.136701055154504 -7.631881788973782 C44.29108480142055 -7.311300636569344, 44.445468547686595 -6.990719484164906, 44.59562077976091 -6.678925161519502 C44.73798873194095 -6.327273567137675, 44.880356684121004 -5.975621972755849, 44.99254146382104 -5.6985233979515835 C45.06514977779818 -5.479838724816222, 45.137758091775325 -5.261154051680861, 45.3258320751049 -4.69470517941204 C45.388509922605884 -4.455687382139849, 45.45118777010686 -4.216669584867658, 45.59412305100009 -3.6715954102791892 C45.64101043928609 -3.430838581083593, 45.687897827572094 -3.190081751887997, 45.796311926338426 -2.6333982680507635 C45.83143045429579 -2.361025900151157, 45.866548982253164 -2.0886535322515503, 45.93156786366177 -1.584379927476752 C45.952997591566984 -1.2505946175879772, 45.974427319472206 -0.9168093076992023, 45.99933506731135 -0.5288510299323103 C45.99933506731135 -0.23113497243110886, 45.99933506731135 0.06658108507009253, 45.99933506731135 0.5288510299323063 C45.978827963556625 0.8482657239483333, 45.9583208598019 1.1676804179643603, 45.93156786366177 1.5843799274767407 C45.88563701158197 1.9406105461350458, 45.83970615950217 2.296841164793351, 45.79631192633843 2.633398268050752 C45.739325757730434 2.926010199821819, 45.682339589122435 3.2186221315928853, 45.59412305100009 3.6715954102791857 C45.516307275415556 3.968340688153494, 45.43849149983102 4.265085966027803, 45.3258320751049 4.694705179412029 C45.2310635588806 4.980132850967079, 45.13629504265631 5.26556052252213, 44.99254146382105 5.698523397951573 C44.8694921563386 6.0024575664297295, 44.74644284885616 6.306391734907885, 44.59562077976091 6.678925161519498 C44.45023884096327 6.980813868107957, 44.30485690216564 7.2827025746964145, 44.136701055154504 7.631881788973778 C43.970281184139964 7.927377121799388, 43.803861313125424 8.222872454624998, 43.617668089588214 8.553477377123661 C43.45268440476674 8.806936621332007, 43.28770071994527 9.060395865540352, 43.04065470084977 9.439924892015794 C42.81005282550085 9.748910396720335, 42.579450950151916 10.057895901424875, 42.4080319607225 10.2875817306691 C42.18571845501993 10.548723824464163, 41.96340494931737 10.809865918259227, 41.72239945174271 11.09296468931172 C41.45800621077546 11.365972417699188, 41.193612969808214 11.638980146086654, 40.98657458495753 11.852764276612502 C40.693368247824566 12.119046514182097, 40.400161910691594 12.385328751751691, 40.20358102257852 12.563858313090709 C40.004358224221015 12.722733193239502, 39.80513542586352 12.881608073388294, 39.37663625310507 13.223324760821283 C39.159305847016434 13.374925044027067, 38.94197544092779 13.526525327232854, 38.50913836997406 13.828453730715367 C38.15679675638187 14.042045287464104, 37.804455142789685 14.255636844212843, 37.604652108064975 14.376758618035925 C37.38083944079059 14.493521543194118, 37.1570267735162 14.610284468352312, 36.66689419543971 14.865986320389915 C36.31738155239916 15.020705199539782, 35.96786890935862 15.175424078689648, 35.69971808050968 15.294126496209357 C35.320103370880325 15.43382821847287, 34.94048866125096 15.573529940736382, 34.70709809738975 15.659419825676029 C34.468860426959246 15.730127515724753, 34.23062275652873 15.80083520577348, 33.69311313450689 15.960365240143982 C33.286790336313445 16.053105767327583, 32.88046753812 16.14584629451118, 32.661929873572646 16.19572609035258 C32.42243119235148 16.234446379792406, 32.18293251113032 16.273166669232232, 31.617785667794358 16.36453522808356 C31.218158419495253 16.403086788104893, 30.818531171196145 16.441638348126222, 30.564971129681762 16.46609898038055 C30.34286619600868 16.47322145330242, 30.1207612623356 16.480343926224286, 29.507812500000004 16.5 C29.507812500000004 16.5, 29.5078125 16.5, 29.5078125 16.5 C16.700765120614733 16.5, 3.8937177412294695 16.5, -29.507812499999996 16.5 C-29.86713778738851 16.488477137417693, -30.226463074777026 16.476954274835386, -30.564971129681755 16.46609898038055 C-30.978741229329888 16.426183076498845, -31.392511328978017 16.386267172617142, -31.61778566779435 16.36453522808356 C-32.00878279687248 16.30132184448223, -32.39977992595061 16.238108460880902, -32.66192987357264 16.19572609035258 C-32.903762160733955 16.140529448911163, -33.14559444789527 16.085332807469747, -33.693113134506866 15.960365240143986 C-34.02927551484583 15.860594010211726, -34.36543789518478 15.760822780279465, -34.70709809738973 15.659419825676036 C-34.95358797087112 15.568709273707473, -35.200077844352506 15.47799872173891, -35.699718080509676 15.294126496209358 C-35.91331270287539 15.19957449294741, -36.126907325241106 15.10502248968546, -36.66689419543971 14.865986320389919 C-36.91722074058422 14.735391122129833, -37.16754728572872 14.604795923869746, -37.60465210806497 14.376758618035929 C-37.859136340926106 14.222488780560155, -38.11362057378724 14.068218943084382, -38.50913836997404 13.828453730715378 C-38.76358347448728 13.650963840557994, -39.01802857900051 13.47347395040061, -39.37663625310506 13.223324760821287 C-39.635828130248626 13.016626136184817, -39.89502000739219 12.809927511548347, -40.203581022578504 12.563858313090721 C-40.423448960765114 12.364180069016506, -40.64331689895172 12.164501824942288, -40.986574584957516 11.852764276612513 C-41.18296457794042 11.64997548493938, -41.37935457092332 11.447186693266248, -41.72239945174271 11.092964689311726 C-41.99173020436574 10.77659346192674, -42.26106095698877 10.460222234541755, -42.40803196072249 10.287581730669107 C-42.56509684056925 10.077129100579366, -42.722161720416004 9.866676470489628, -43.04065470084977 9.439924892015805 C-43.241330823217304 9.13163247897523, -43.44200694558484 8.823340065934655, -43.61766808958821 8.553477377123672 C-43.74639733233411 8.324905571378999, -43.87512657508002 8.096333765634325, -44.136701055154504 7.631881788973784 C-44.23718122682026 7.42323256257858, -44.33766139848601 7.2145833361833756, -44.59562077976091 6.678925161519504 C-44.71929375561856 6.373450520096766, -44.84296673147622 6.067975878674028, -44.99254146382104 5.698523397951585 C-45.12000325201004 5.314628800204372, -45.247465040199025 4.930734202457159, -45.3258320751049 4.694705179412035 C-45.39251623173214 4.440409589096063, -45.459200388359385 4.186113998780091, -45.59412305100009 3.6715954102791915 C-45.674219401817616 3.260317577200943, -45.75431575263514 2.8490397441226945, -45.796311926338426 2.6333982680507653 C-45.828122029615955 2.3866853886456663, -45.859932132893476 2.1399725092405673, -45.93156786366177 1.5843799274767614 C-45.95262110334758 1.2564587255010622, -45.97367434303339 0.9285375235253629, -45.99933506731135 0.5288510299323123 C-45.99933506731135 0.21865734076985416, -45.99933506731135 -0.09153634839260394, -45.99933506731135 -0.5288510299323043 C-45.97924008989661 -0.8418465235407252, -45.95914511248186 -1.154842017149146, -45.93156786366177 -1.5843799274767387 C-45.88696141647971 -1.9303387232815539, -45.84235496929764 -2.276297519086369, -45.79631192633843 -2.6333982680507573 C-45.74556351475393 -2.8939806358565767, -45.69481510316943 -3.154563003662396, -45.59412305100009 -3.671595410279184 C-45.5250112392089 -3.9351487018876865, -45.45589942741772 -4.198701993496189, -45.325832075104906 -4.694705179412027 C-45.24489203888008 -4.938483672477744, -45.16395200265525 -5.182262165543462, -44.99254146382105 -5.698523397951565 C-44.903191547076155 -5.919219419774568, -44.81384163033127 -6.13991544159757, -44.59562077976091 -6.678925161519495 C-44.50365676800437 -6.869890399646572, -44.41169275624784 -7.060855637773648, -44.136701055154504 -7.631881788973776 C-43.99901542243946 -7.876356572041485, -43.861329789724415 -8.120831355109194, -43.61766808958821 -8.553477377123667 C-43.45359972402845 -8.80553044514838, -43.2895313584687 -9.05758351317309, -43.04065470084977 -9.4399248920158 C-42.81735815999184 -9.739121914032065, -42.59406161913391 -10.038318936048332, -42.4080319607225 -10.2875817306691 C-42.232883068858996 -10.493321585306244, -42.0577341769955 -10.699061439943387, -41.72239945174272 -11.09296468931172 C-41.5428726129066 -11.278340889837594, -41.36334577407049 -11.463717090363467, -40.98657458495754 -11.852764276612497 C-40.80975027745803 -12.013351434168747, -40.63292596995852 -12.173938591724998, -40.20358102257852 -12.563858313090707 C-39.95769945852923 -12.759942317236801, -39.71181789447994 -12.956026321382893, -39.37663625310507 -13.223324760821281 C-39.12466494597874 -13.399089037010521, -38.87269363885242 -13.57485331319976, -38.50913836997406 -13.828453730715365 C-38.30415457243713 -13.952716113400761, -38.09917077490019 -14.076978496086156, -37.604652108064975 -14.376758618035923 C-37.23506631358493 -14.569571290285161, -36.86548051910489 -14.7623839625344, -36.66689419543971 -14.865986320389915 C-36.37666814965707 -14.99446078160813, -36.086442103874425 -15.122935242826344, -35.69971808050968 -15.294126496209355 C-35.334230044302466 -15.428629472067982, -34.96874200809525 -15.563132447926609, -34.70709809738975 -15.659419825676029 C-34.496870888483436 -15.721814157774286, -34.28664367957712 -15.784208489872542, -33.69311313450689 -15.96036524014398 C-33.37984114219329 -16.03186752809876, -33.0665691498797 -16.10336981605354, -32.661929873572646 -16.195726090352576 C-32.4235008505521 -16.23427344574985, -32.18507182753155 -16.272820801147123, -31.61778566779436 -16.36453522808356 C-31.356880387871573 -16.389704446653205, -31.09597510794879 -16.41487366522285, -30.564971129681766 -16.46609898038055 C-30.148645719748497 -16.47944972594886, -29.732320309815233 -16.492800471517167, -29.507812500000004 -16.5 C-29.507812500000004 -16.5, -29.5078125 -16.5, -29.5078125 -16.5" stroke="none" stroke-width="0" fill="#ecfdf3" style=""/><path d="M-29.5078125 -16.5 C-9.480357734588981 -16.5, 10.547097030822037 -16.5, 29.5078125 -16.5 M-29.5078125 -16.5 C-13.215974422237263 -16.5, 3.075863655525474 -16.5, 29.5078125 -16.5 M29.5078125 -16.5 C29.5078125 -16.5, 29.5078125 -16.5, 29.5078125 -16.5 M29.5078125 -16.5 C29.5078125 -16.5, 29.5078125 -16.5, 29.5078125 -16.5 M29.5078125 -16.5 C29.796252041194435 -16.490750305327403, 30.08469158238887 -16.481500610654805, 30.564971129681762 -16.46609898038055 M29.5078125 -16.5 C29.842846068796202 -16.489256125551986, 30.1778796375924 -16.478512251103975, 30.564971129681762 -16.46609898038055 M30.564971129681762 -16.46609898038055 C30.956103442675833 -16.42836691655144, 31.347235755669907 -16.390634852722332, 31.617785667794347 -16.36453522808356 M30.564971129681762 -16.46609898038055 C30.871698869517648 -16.43650932421266, 31.178426609353533 -16.40691966804477, 31.617785667794347 -16.36453522808356 M31.617785667794347 -16.36453522808356 C31.883335865377575 -16.321603131510845, 32.1488860629608 -16.278671034938128, 32.66192987357264 -16.19572609035258 M31.617785667794347 -16.36453522808356 C32.012617817583575 -16.30070182807469, 32.407449967372806 -16.236868428065822, 32.66192987357264 -16.19572609035258 M32.66192987357264 -16.19572609035258 C33.06310032795848 -16.10416155202088, 33.46427078234433 -16.012597013689177, 33.693113134506866 -15.960365240143986 M32.66192987357264 -16.19572609035258 C33.016428117732495 -16.114814179440327, 33.370926361892344 -16.033902268528074, 33.693113134506866 -15.960365240143986 M33.693113134506866 -15.960365240143986 C33.969270083842765 -15.878403307158498, 34.245427033178665 -15.79644137417301, 34.70709809738974 -15.659419825676032 M33.693113134506866 -15.960365240143986 C33.95755954809329 -15.881878932699085, 34.22200596167973 -15.803392625254183, 34.70709809738974 -15.659419825676032 M34.70709809738974 -15.659419825676032 C35.054468117301305 -15.53158444729531, 35.40183813721288 -15.403749068914589, 35.69971808050967 -15.294126496209358 M34.70709809738974 -15.659419825676032 C35.08162868037007 -15.521589109016512, 35.45615926335041 -15.383758392356992, 35.69971808050967 -15.294126496209358 M35.69971808050967 -15.294126496209358 C35.897145130679455 -15.206731397564557, 36.09457218084925 -15.119336298919754, 36.66689419543971 -14.865986320389917 M35.69971808050967 -15.294126496209358 C36.08253274077341 -15.124665801904028, 36.46534740103714 -14.955205107598697, 36.66689419543971 -14.865986320389917 M36.66689419543971 -14.865986320389917 C36.888858593559284 -14.750187636065919, 37.11082299167885 -14.634388951741919, 37.60465210806497 -14.376758618035927 M36.66689419543971 -14.865986320389917 C36.89259899525494 -14.748236270897134, 37.11830379507017 -14.630486221404352, 37.60465210806497 -14.376758618035927 M37.60465210806497 -14.376758618035927 C37.935082509787755 -14.176449766686996, 38.265512911510534 -13.976140915338066, 38.50913836997405 -13.828453730715372 M37.60465210806497 -14.376758618035927 C37.93461187707752 -14.176735067001685, 38.26457164609007 -13.976711515967443, 38.50913836997405 -13.828453730715372 M38.50913836997405 -13.828453730715372 C38.83340247137158 -13.60226113074717, 39.157666572769095 -13.37606853077897, 39.37663625310506 -13.223324760821285 M38.50913836997405 -13.828453730715372 C38.68463505764694 -13.70603483852393, 38.860131745319826 -13.58361594633249, 39.37663625310506 -13.223324760821285 M39.37663625310506 -13.223324760821285 C39.6900604358844 -12.973377315622548, 40.00348461866374 -12.72342987042381, 40.203581022578504 -12.56385831309072 M39.37663625310506 -13.223324760821285 C39.63263651137841 -13.019171367301269, 39.888636769651754 -12.815017973781252, 40.203581022578504 -12.56385831309072 M40.203581022578504 -12.56385831309072 C40.48713155426351 -12.306345222550345, 40.77068208594853 -12.04883213200997, 40.98657458495752 -11.852764276612506 M40.203581022578504 -12.56385831309072 C40.37084373633107 -12.411954741989538, 40.538106450083625 -12.260051170888358, 40.98657458495752 -11.852764276612506 M40.98657458495752 -11.852764276612506 C41.1750420109575 -11.65815618580409, 41.36350943695747 -11.463548094995675, 41.7223994517427 -11.092964689311732 M40.98657458495752 -11.852764276612506 C41.239561983570326 -11.591534016893082, 41.49254938218313 -11.330303757173658, 41.7223994517427 -11.092964689311732 M41.7223994517427 -11.092964689311732 C41.992812416665394 -10.775322233779939, 42.26322538158809 -10.457679778248146, 42.40803196072249 -10.287581730669105 M41.7223994517427 -11.092964689311732 C41.99538200572936 -10.77230384825165, 42.26836455971601 -10.451643007191567, 42.40803196072249 -10.287581730669105 M42.40803196072249 -10.287581730669105 C42.592016969619664 -10.04105858012602, 42.77600197851684 -9.794535429582934, 43.04065470084977 -9.439924892015803 M42.40803196072249 -10.287581730669105 C42.56736693065208 -10.07408738667783, 42.72670190058167 -9.860593042686554, 43.04065470084977 -9.439924892015803 M43.04065470084977 -9.439924892015803 C43.17764249967833 -9.229474846640576, 43.314630298506884 -9.019024801265349, 43.61766808958821 -8.553477377123665 M43.04065470084977 -9.439924892015803 C43.26100146017168 -9.101413098307699, 43.48134821949358 -8.762901304599593, 43.61766808958821 -8.553477377123665 M43.61766808958821 -8.553477377123665 C43.806527087919555 -8.218139101539043, 43.995386086250896 -7.88280082595442, 44.136701055154504 -7.631881788973782 M43.61766808958821 -8.553477377123665 C43.7854570622297 -8.255551065722832, 43.95324603487119 -7.9576247543220004, 44.136701055154504 -7.631881788973782 M44.136701055154504 -7.631881788973782 C44.27210085728639 -7.3507212027552615, 44.407500659418275 -7.069560616536741, 44.59562077976091 -6.678925161519502 M44.136701055154504 -7.631881788973782 C44.266485480396675 -7.36238165301657, 44.396269905638846 -7.092881517059357, 44.59562077976091 -6.678925161519502 M44.59562077976091 -6.678925161519502 C44.71783571476177 -6.377051909202353, 44.840050649762624 -6.075178656885203, 44.99254146382104 -5.6985233979515835 M44.59562077976091 -6.678925161519502 C44.71138116644756 -6.392994768328645, 44.82714155313421 -6.107064375137787, 44.99254146382104 -5.6985233979515835 M44.99254146382104 -5.6985233979515835 C45.111999480920446 -5.338734883498459, 45.23145749801986 -4.978946369045334, 45.3258320751049 -4.69470517941204 M44.99254146382104 -5.6985233979515835 C45.106065139375985 -5.356608174721461, 45.21958881493093 -5.014692951491339, 45.3258320751049 -4.69470517941204 M45.3258320751049 -4.69470517941204 C45.39148440609874 -4.444344387432281, 45.45713673709258 -4.193983595452522, 45.59412305100009 -3.6715954102791892 M45.3258320751049 -4.69470517941204 C45.42207812563356 -4.32767727544409, 45.518324176162224 -3.9606493714761406, 45.59412305100009 -3.6715954102791892 M45.59412305100009 -3.6715954102791892 C45.637066165767436 -3.4510915919793974, 45.680009280534776 -3.230587773679606, 45.796311926338426 -2.6333982680507635 M45.59412305100009 -3.6715954102791892 C45.636017077805846 -3.456478436937316, 45.67791110461161 -3.2413614635954424, 45.796311926338426 -2.6333982680507635 M45.796311926338426 -2.6333982680507635 C45.827222519234624 -2.393661813534813, 45.85813311213082 -2.153925359018863, 45.93156786366177 -1.584379927476752 M45.796311926338426 -2.6333982680507635 C45.84327764230146 -2.2691414494710886, 45.89024335826449 -1.9048846308914138, 45.93156786366177 -1.584379927476752 M45.93156786366177 -1.584379927476752 C45.95690846250331 -1.1896796459565433, 45.98224906134485 -0.7949793644363344, 45.99933506731135 -0.5288510299323103 M45.93156786366177 -1.584379927476752 C45.95381345519605 -1.23788688301209, 45.97605904673033 -0.8913938385474277, 45.99933506731135 -0.5288510299323103 M45.99933506731135 -0.5288510299323103 C45.99933506731135 -0.11803001896959997, 45.99933506731135 0.2927909919931103, 45.99933506731135 0.5288510299323063 M45.99933506731135 -0.5288510299323103 C45.99933506731135 -0.13043871354060493, 45.99933506731135 0.2679736028511004, 45.99933506731135 0.5288510299323063 M45.99933506731135 0.5288510299323063 C45.9852854389672 0.7476853320483121, 45.97123581062305 0.9665196341643181, 45.93156786366177 1.5843799274767407 M45.99933506731135 0.5288510299323063 C45.97374176982015 0.9274872968956378, 45.94814847232895 1.3261235638589695, 45.93156786366177 1.5843799274767407 M45.93156786366177 1.5843799274767407 C45.89442191653547 1.8724765580913674, 45.85727596940918 2.160573188705994, 45.79631192633843 2.633398268050752 M45.93156786366177 1.5843799274767407 C45.88961224710583 1.9097794044110423, 45.847656630549885 2.235178881345344, 45.79631192633843 2.633398268050752 M45.79631192633843 2.633398268050752 C45.73319988935831 2.9574652392099225, 45.670087852378195 3.2815322103690927, 45.59412305100009 3.6715954102791857 M45.79631192633843 2.633398268050752 C45.721255667516125 3.018796293957375, 45.64619940869382 3.404194319863998, 45.59412305100009 3.6715954102791857 M45.59412305100009 3.6715954102791857 C45.53968483472116 3.879191922622944, 45.48524661844222 4.086788434966701, 45.3258320751049 4.694705179412029 M45.59412305100009 3.6715954102791857 C45.49096197248307 4.064993312958838, 45.387800893966045 4.458391215638491, 45.3258320751049 4.694705179412029 M45.3258320751049 4.694705179412029 C45.197762161926875 5.080431352734647, 45.06969224874886 5.466157526057264, 44.99254146382105 5.698523397951573 M45.3258320751049 4.694705179412029 C45.24478888686521 4.938794349911485, 45.16374569862552 5.182883520410942, 44.99254146382105 5.698523397951573 M44.99254146382105 5.698523397951573 C44.90100856510981 5.9246114274365285, 44.80947566639858 6.150699456921484, 44.59562077976091 6.678925161519498 M44.99254146382105 5.698523397951573 C44.893795141400034 5.94242872346175, 44.79504881897902 6.186334048971927, 44.59562077976091 6.678925161519498 M44.59562077976091 6.678925161519498 C44.464003973981995 6.952230274867912, 44.332387168203084 7.225535388216326, 44.136701055154504 7.631881788973778 M44.59562077976091 6.678925161519498 C44.47475969627705 6.929895787386642, 44.353898612793195 7.180866413253787, 44.136701055154504 7.631881788973778 M44.136701055154504 7.631881788973778 C43.946246009604806 7.970054008011895, 43.75579096405511 8.308226227050014, 43.617668089588214 8.553477377123661 M44.136701055154504 7.631881788973778 C43.990938448774585 7.890698056665746, 43.84517584239467 8.149514324357714, 43.617668089588214 8.553477377123661 M43.617668089588214 8.553477377123661 C43.45396943836167 8.804962464650362, 43.29027078713512 9.056447552177065, 43.04065470084977 9.439924892015794 M43.617668089588214 8.553477377123661 C43.44726763141406 8.815258239809033, 43.27686717323991 9.077039102494405, 43.04065470084977 9.439924892015794 M43.04065470084977 9.439924892015794 C42.80174403597881 9.760043417733572, 42.562833371107835 10.08016194345135, 42.4080319607225 10.2875817306691 M43.04065470084977 9.439924892015794 C42.82407215765739 9.730125768817992, 42.60748961446502 10.020326645620187, 42.4080319607225 10.2875817306691 M42.4080319607225 10.2875817306691 C42.17839789352944 10.55732297254264, 41.948763826336396 10.827064214416179, 41.72239945174271 11.09296468931172 M42.4080319607225 10.2875817306691 C42.17534726861368 10.560906410154178, 41.94266257650485 10.834231089639257, 41.72239945174271 11.09296468931172 M41.72239945174271 11.09296468931172 C41.5084290865812 11.313906658634666, 41.294458721419694 11.534848627957613, 40.98657458495753 11.852764276612502 M41.72239945174271 11.09296468931172 C41.468814540532705 11.354811929844457, 41.2152296293227 11.616659170377194, 40.98657458495753 11.852764276612502 M40.98657458495753 11.852764276612502 C40.74388944934491 12.073164495679057, 40.501204313732295 12.293564714745612, 40.20358102257852 12.563858313090709 M40.98657458495753 11.852764276612502 C40.737962887071745 12.078546842727304, 40.48935118918596 12.304329408842104, 40.20358102257852 12.563858313090709 M40.20358102257852 12.563858313090709 C39.88082347354809 12.821248869503384, 39.55806592451766 13.07863942591606, 39.37663625310507 13.223324760821283 M40.20358102257852 12.563858313090709 C39.979713737892496 12.742386515269176, 39.755846453206466 12.920914717447646, 39.37663625310507 13.223324760821283 M39.37663625310507 13.223324760821283 C39.1893779097605 13.35394807485542, 39.00211956641593 13.48457138888956, 38.50913836997406 13.828453730715367 M39.37663625310507 13.223324760821283 C39.15232639379584 13.379793608458094, 38.92801653448661 13.536262456094905, 38.50913836997406 13.828453730715367 M38.50913836997406 13.828453730715367 C38.194886424455134 14.018955106838359, 37.88063447893621 14.20945648296135, 37.604652108064975 14.376758618035925 M38.50913836997406 13.828453730715367 C38.18600703857343 14.024337842740913, 37.8628757071728 14.220221954766457, 37.604652108064975 14.376758618035925 M37.604652108064975 14.376758618035925 C37.27290714350256 14.549829753555347, 36.94116217894014 14.72290088907477, 36.66689419543971 14.865986320389915 M37.604652108064975 14.376758618035925 C37.308107823461256 14.531465581368005, 37.01156353885754 14.686172544700087, 36.66689419543971 14.865986320389915 M36.66689419543971 14.865986320389915 C36.292504990284584 15.031717315650912, 35.91811578512945 15.19744831091191, 35.69971808050968 15.294126496209357 M36.66689419543971 14.865986320389915 C36.422360285452946 14.974234228500345, 36.17782637546619 15.082482136610773, 35.69971808050968 15.294126496209357 M35.69971808050968 15.294126496209357 C35.440790750402485 15.389414147186807, 35.18186342029528 15.48470179816426, 34.70709809738975 15.659419825676029 M35.69971808050968 15.294126496209357 C35.47677942801903 15.37616998114823, 35.25384077552837 15.458213466087106, 34.70709809738975 15.659419825676029 M34.70709809738975 15.659419825676029 C34.42853294572855 15.742096500470755, 34.149967794067344 15.82477317526548, 33.69311313450689 15.960365240143982 M34.70709809738975 15.659419825676029 C34.35482016269988 15.763974067547371, 34.00254222801001 15.868528309418712, 33.69311313450689 15.960365240143982 M33.69311313450689 15.960365240143982 C33.35355983198422 16.037866065652405, 33.014006529461554 16.11536689116083, 32.661929873572646 16.19572609035258 M33.69311313450689 15.960365240143982 C33.323141203166756 16.04480891917989, 32.953169271826624 16.129252598215796, 32.661929873572646 16.19572609035258 M32.661929873572646 16.19572609035258 C32.301127023835754 16.25405789703015, 31.940324174098862 16.312389703707723, 31.617785667794358 16.36453522808356 M32.661929873572646 16.19572609035258 C32.31973615184461 16.251049317529624, 31.97754243011657 16.306372544706665, 31.617785667794358 16.36453522808356 M31.617785667794358 16.36453522808356 C31.3394536173552 16.391385586246162, 31.061121566916047 16.41823594440876, 30.564971129681762 16.46609898038055 M31.617785667794358 16.36453522808356 C31.311562620500816 16.39407619716887, 31.005339573207273 16.423617166254186, 30.564971129681762 16.46609898038055 M30.564971129681762 16.46609898038055 C30.223014531063203 16.477064862920106, 29.881057932444644 16.488030745459664, 29.507812500000004 16.5 M30.564971129681762 16.46609898038055 C30.353523371021325 16.472879698442696, 30.14207561236089 16.479660416504842, 29.507812500000004 16.5 M29.507812500000004 16.5 C29.507812500000004 16.5, 29.5078125 16.5, 29.5078125 16.5 M29.507812500000004 16.5 C29.507812500000004 16.5, 29.5078125 16.5, 29.5078125 16.5 M29.5078125 16.5 C16.576852660306045 16.5, 3.6458928206120866 16.5, -29.507812499999996 16.5 M29.5078125 16.5 C17.17025613701834 16.5, 4.8326997740366835 16.5, -29.507812499999996 16.5 M-29.507812499999996 16.5 C-29.766408315219326 16.491707335532137, -30.02500413043866 16.48341467106427, -30.564971129681755 16.46609898038055 M-29.507812499999996 16.5 C-29.760755418153256 16.491888612938347, -30.01369833630651 16.483777225876697, -30.564971129681755 16.46609898038055 M-30.564971129681755 16.46609898038055 C-30.895358597160566 16.434226898741933, -31.225746064639377 16.402354817103316, -31.61778566779435 16.36453522808356 M-30.564971129681755 16.46609898038055 C-30.895270097567746 16.434235436191216, -31.225569065453737 16.40237189200188, -31.61778566779435 16.36453522808356 M-31.61778566779435 16.36453522808356 C-31.864655279273695 16.32462326380201, -32.11152489075304 16.28471129952046, -32.66192987357264 16.19572609035258 M-31.61778566779435 16.36453522808356 C-31.97455740335509 16.30685514068423, -32.33132913891583 16.249175053284905, -32.66192987357264 16.19572609035258 M-32.66192987357264 16.19572609035258 C-33.05832080620632 16.105252446671514, -33.454711738840004 16.014778802990453, -33.693113134506866 15.960365240143986 M-32.66192987357264 16.19572609035258 C-33.01097531245453 16.11605874666214, -33.360020751336435 16.036391402971702, -33.693113134506866 15.960365240143986 M-33.693113134506866 15.960365240143986 C-34.015442837099634 15.864699476357588, -34.3377725396924 15.769033712571192, -34.70709809738973 15.659419825676036 M-33.693113134506866 15.960365240143986 C-34.03177302607592 15.85985276198834, -34.37043291764497 15.759340283832692, -34.70709809738973 15.659419825676036 M-34.70709809738973 15.659419825676036 C-34.933422436470885 15.576130376774916, -35.15974677555203 15.492840927873798, -35.699718080509676 15.294126496209358 M-34.70709809738973 15.659419825676036 C-34.98422610977064 15.5574341553766, -35.261354122151545 15.455448485077161, -35.699718080509676 15.294126496209358 M-35.699718080509676 15.294126496209358 C-35.9289940109996 15.192632843010298, -36.15826994148953 15.091139189811237, -36.66689419543971 14.865986320389919 M-35.699718080509676 15.294126496209358 C-35.90766697279316 15.202073690180182, -36.115615865076634 15.110020884151005, -36.66689419543971 14.865986320389919 M-36.66689419543971 14.865986320389919 C-36.999522580184944 14.692454305126976, -37.332150964930186 14.518922289864035, -37.60465210806497 14.376758618035929 M-36.66689419543971 14.865986320389919 C-36.96939553272865 14.708171566487634, -37.27189687001758 14.550356812585349, -37.60465210806497 14.376758618035929 M-37.60465210806497 14.376758618035929 C-37.801718024770146 14.257296101241378, -37.99878394147532 14.13783358444683, -38.50913836997404 13.828453730715378 M-37.60465210806497 14.376758618035929 C-37.80268086425984 14.256712422284453, -38.00070962045471 14.136666226532977, -38.50913836997404 13.828453730715378 M-38.50913836997404 13.828453730715378 C-38.826299499059765 13.607215856749171, -39.14346062814549 13.385977982782965, -39.37663625310506 13.223324760821287 M-38.50913836997404 13.828453730715378 C-38.82757473647893 13.6063263063297, -39.14601110298382 13.384198881944023, -39.37663625310506 13.223324760821287 M-39.37663625310506 13.223324760821287 C-39.64010718204696 13.013213706245994, -39.90357811098886 12.8031026516707, -40.203581022578504 12.563858313090721 M-39.37663625310506 13.223324760821287 C-39.65295513383526 13.00296780659318, -39.929274014565465 12.782610852365073, -40.203581022578504 12.563858313090721 M-40.203581022578504 12.563858313090721 C-40.47636580042169 12.316122395343255, -40.749150578264874 12.068386477595787, -40.986574584957516 11.852764276612513 M-40.203581022578504 12.563858313090721 C-40.5077083108356 12.28765795666272, -40.8118355990927 12.01145760023472, -40.986574584957516 11.852764276612513 M-40.986574584957516 11.852764276612513 C-41.22504158330402 11.606527522315078, -41.463508581650515 11.360290768017641, -41.72239945174271 11.092964689311726 M-40.986574584957516 11.852764276612513 C-41.18666362185422 11.64615591840122, -41.386752658750936 11.43954756018993, -41.72239945174271 11.092964689311726 M-41.72239945174271 11.092964689311726 C-41.90453914864155 10.879013037291996, -42.08667884554039 10.665061385272264, -42.40803196072249 10.287581730669107 M-41.72239945174271 11.092964689311726 C-41.88052529851482 10.907221072077636, -42.03865114528693 10.721477454843546, -42.40803196072249 10.287581730669107 M-42.40803196072249 10.287581730669107 C-42.55865549292569 10.085759919602898, -42.709279025128886 9.883938108536688, -43.04065470084977 9.439924892015805 M-42.40803196072249 10.287581730669107 C-42.58887282576172 10.045271446458269, -42.76971369080095 9.802961162247431, -43.04065470084977 9.439924892015805 M-43.04065470084977 9.439924892015805 C-43.17592486472495 9.232113595178532, -43.31119502860013 9.02430229834126, -43.61766808958821 8.553477377123672 M-43.04065470084977 9.439924892015805 C-43.17876927201244 9.22774382175465, -43.3168838431751 9.015562751493496, -43.61766808958821 8.553477377123672 M-43.61766808958821 8.553477377123672 C-43.78428819539098 8.257626507155594, -43.95090830119375 7.961775637187517, -44.136701055154504 7.631881788973784 M-43.61766808958821 8.553477377123672 C-43.72382126052131 8.364991672957787, -43.82997443145442 8.176505968791902, -44.136701055154504 7.631881788973784 M-44.136701055154504 7.631881788973784 C-44.28453296433738 7.324905666459397, -44.432364873520264 7.0179295439450105, -44.59562077976091 6.678925161519504 M-44.136701055154504 7.631881788973784 C-44.30289546014632 7.286775551017669, -44.46908986513814 6.941669313061554, -44.59562077976091 6.678925161519504 M-44.59562077976091 6.678925161519504 C-44.7157389613191 6.38223093074372, -44.83585714287728 6.085536699967937, -44.99254146382104 5.698523397951585 M-44.59562077976091 6.678925161519504 C-44.72372095049397 6.36251526316051, -44.85182112122704 6.046105364801517, -44.99254146382104 5.698523397951585 M-44.99254146382104 5.698523397951585 C-45.10325224923135 5.365080151663913, -45.21396303464166 5.031636905376242, -45.3258320751049 4.694705179412035 M-44.99254146382104 5.698523397951585 C-45.063928484715156 5.483517064995676, -45.13531550560927 5.2685107320397675, -45.3258320751049 4.694705179412035 M-45.3258320751049 4.694705179412035 C-45.38669662181189 4.462602283956854, -45.44756116851889 4.230499388501673, -45.59412305100009 3.6715954102791915 M-45.3258320751049 4.694705179412035 C-45.41837377808361 4.341803558126427, -45.51091548106233 3.9889019368408203, -45.59412305100009 3.6715954102791915 M-45.59412305100009 3.6715954102791915 C-45.635140518831975 3.460979382007369, -45.67615798666385 3.250363353735546, -45.796311926338426 2.6333982680507653 M-45.59412305100009 3.6715954102791915 C-45.65847635055809 3.3411548181235475, -45.72282965011608 3.010714225967903, -45.796311926338426 2.6333982680507653 M-45.796311926338426 2.6333982680507653 C-45.82685602217784 2.3965042923341713, -45.85740011801727 2.159610316617577, -45.93156786366177 1.5843799274767614 M-45.796311926338426 2.6333982680507653 C-45.83962555836793 2.2974662912740413, -45.88293919039743 1.9615343144973174, -45.93156786366177 1.5843799274767614 M-45.93156786366177 1.5843799274767614 C-45.953426023702164 1.2439214412584383, -45.97528418374255 0.9034629550401153, -45.99933506731135 0.5288510299323123 M-45.93156786366177 1.5843799274767614 C-45.946499725226325 1.351804130827133, -45.96143158679087 1.1192283341775042, -45.99933506731135 0.5288510299323123 M-45.99933506731135 0.5288510299323123 C-45.99933506731135 0.3165007461518339, -45.99933506731135 0.10415046237135545, -45.99933506731135 -0.5288510299323043 M-45.99933506731135 0.5288510299323123 C-45.99933506731135 0.20511271386885704, -45.99933506731135 -0.11862560219459817, -45.99933506731135 -0.5288510299323043 M-45.99933506731135 -0.5288510299323043 C-45.97426968242918 -0.9192646318866289, -45.949204297547006 -1.3096782338409536, -45.93156786366177 -1.5843799274767387 M-45.99933506731135 -0.5288510299323043 C-45.97416644138643 -0.9208726944621333, -45.94899781546151 -1.3128943589919624, -45.93156786366177 -1.5843799274767387 M-45.93156786366177 -1.5843799274767387 C-45.87815287997142 -1.9986559929975467, -45.824737896281064 -2.4129320585183547, -45.79631192633843 -2.6333982680507573 M-45.93156786366177 -1.5843799274767387 C-45.8930997039157 -1.8827313780698889, -45.85463154416964 -2.1810828286630386, -45.79631192633843 -2.6333982680507573 M-45.79631192633843 -2.6333982680507573 C-45.73226290536312 -2.962276453993599, -45.66821388438781 -3.2911546399364404, -45.59412305100009 -3.671595410279184 M-45.79631192633843 -2.6333982680507573 C-45.735097291298786 -2.947722481261621, -45.673882656259146 -3.2620466944724846, -45.59412305100009 -3.671595410279184 M-45.59412305100009 -3.671595410279184 C-45.51884943344689 -3.9586463378017633, -45.44357581589369 -4.245697265324343, -45.325832075104906 -4.694705179412027 M-45.59412305100009 -3.671595410279184 C-45.503734045815435 -4.016287861890945, -45.41334504063077 -4.360980313502706, -45.325832075104906 -4.694705179412027 M-45.325832075104906 -4.694705179412027 C-45.210729883908705 -5.041374640251299, -45.095627692712505 -5.388044101090571, -44.99254146382105 -5.698523397951565 M-45.325832075104906 -4.694705179412027 C-45.245251156138394 -4.9374020685132685, -45.16467023717188 -5.18009895761451, -44.99254146382105 -5.698523397951565 M-44.99254146382105 -5.698523397951565 C-44.895064903260106 -5.939292387118183, -44.797588342699164 -6.180061376284801, -44.59562077976091 -6.678925161519495 M-44.99254146382105 -5.698523397951565 C-44.83413240911029 -6.089796825717863, -44.67572335439953 -6.4810702534841615, -44.59562077976091 -6.678925161519495 M-44.59562077976091 -6.678925161519495 C-44.49763448153319 -6.882395806360272, -44.399648183305466 -7.085866451201048, -44.136701055154504 -7.631881788973776 M-44.59562077976091 -6.678925161519495 C-44.47272184381213 -6.934127431633104, -44.349822907863356 -7.189329701746711, -44.136701055154504 -7.631881788973776 M-44.136701055154504 -7.631881788973776 C-43.963171458227166 -7.940001160095368, -43.78964186129983 -8.24812053121696, -43.61766808958821 -8.553477377123667 M-44.136701055154504 -7.631881788973776 C-43.948169669583116 -7.966638354928708, -43.75963828401173 -8.30139492088364, -43.61766808958821 -8.553477377123667 M-43.61766808958821 -8.553477377123667 C-43.41757321136757 -8.8608768430687, -43.21747833314693 -9.168276309013734, -43.04065470084977 -9.4399248920158 M-43.61766808958821 -8.553477377123667 C-43.487131635858645 -8.754016423998118, -43.35659518212908 -8.95455547087257, -43.04065470084977 -9.4399248920158 M-43.04065470084977 -9.4399248920158 C-42.82705914490099 -9.726123478031708, -42.613463588952214 -10.012322064047616, -42.4080319607225 -10.2875817306691 M-43.04065470084977 -9.4399248920158 C-42.89261784943527 -9.638280786476631, -42.74458099802076 -9.836636680937463, -42.4080319607225 -10.2875817306691 M-42.4080319607225 -10.2875817306691 C-42.23852015115637 -10.486699947680679, -42.06900834159025 -10.68581816469226, -41.72239945174272 -11.09296468931172 M-42.4080319607225 -10.2875817306691 C-42.17161491915023 -10.565290640210643, -41.93519787757796 -10.842999549752186, -41.72239945174272 -11.09296468931172 M-41.72239945174272 -11.09296468931172 C-41.5103418560827 -11.311931567083079, -41.29828426042268 -11.530898444854436, -40.98657458495754 -11.852764276612497 M-41.72239945174272 -11.09296468931172 C-41.44327718290102 -11.38118134825523, -41.164154914059324 -11.66939800719874, -40.98657458495754 -11.852764276612497 M-40.98657458495754 -11.852764276612497 C-40.75094679074244 -12.066755204948846, -40.51531899652734 -12.280746133285197, -40.20358102257852 -12.563858313090707 M-40.98657458495754 -11.852764276612497 C-40.80086108132174 -12.021424366904482, -40.615147577685946 -12.190084457196466, -40.20358102257852 -12.563858313090707 M-40.20358102257852 -12.563858313090707 C-39.9110243559204 -12.797164469490703, -39.61846768926227 -13.030470625890699, -39.37663625310507 -13.223324760821281 M-40.20358102257852 -12.563858313090707 C-40.01363567909984 -12.715334669857079, -39.82369033562117 -12.86681102662345, -39.37663625310507 -13.223324760821281 M-39.37663625310507 -13.223324760821281 C-39.09246453736868 -13.421550648123679, -38.80829282163229 -13.619776535426075, -38.50913836997406 -13.828453730715365 M-39.37663625310507 -13.223324760821281 C-39.05824756632974 -13.445418925891637, -38.73985887955442 -13.667513090961995, -38.50913836997406 -13.828453730715365 M-38.50913836997406 -13.828453730715365 C-38.29288952324977 -13.959545052418914, -38.07664067652548 -14.090636374122461, -37.604652108064975 -14.376758618035923 M-38.50913836997406 -13.828453730715365 C-38.23247279094789 -13.996170030588441, -37.95580721192172 -14.163886330461516, -37.604652108064975 -14.376758618035923 M-37.604652108064975 -14.376758618035923 C-37.36780420223312 -14.500322018800079, -37.130956296401266 -14.623885419564234, -36.66689419543971 -14.865986320389915 M-37.604652108064975 -14.376758618035923 C-37.346943352709445 -14.511205110634567, -37.08923459735392 -14.64565160323321, -36.66689419543971 -14.865986320389915 M-36.66689419543971 -14.865986320389915 C-36.46097433451839 -14.957140934424139, -36.25505447359708 -15.048295548458364, -35.69971808050968 -15.294126496209355 M-36.66689419543971 -14.865986320389915 C-36.4659995453705 -14.954916422647493, -36.2651048953013 -15.043846524905073, -35.69971808050968 -15.294126496209355 M-35.69971808050968 -15.294126496209355 C-35.40904372996369 -15.401097344174522, -35.1183693794177 -15.508068192139687, -34.70709809738975 -15.659419825676029 M-35.69971808050968 -15.294126496209355 C-35.388361873785726 -15.408708458428995, -35.077005667061776 -15.523290420648634, -34.70709809738975 -15.659419825676029 M-34.70709809738975 -15.659419825676029 C-34.39034445482193 -15.753430644116362, -34.073590812254096 -15.847441462556695, -33.69311313450689 -15.96036524014398 M-34.70709809738975 -15.659419825676029 C-34.323800415631325 -15.773180565651343, -33.9405027338729 -15.886941305626657, -33.69311313450689 -15.96036524014398 M-33.69311313450689 -15.96036524014398 C-33.44385929724146 -16.01725580196652, -33.19460545997603 -16.07414636378906, -32.661929873572646 -16.195726090352576 M-33.69311313450689 -15.96036524014398 C-33.45500976582882 -16.01471078027506, -33.21690639715076 -16.06905632040614, -32.661929873572646 -16.195726090352576 M-32.661929873572646 -16.195726090352576 C-32.42039587261094 -16.234775434503913, -32.17886187164923 -16.27382477865525, -31.61778566779436 -16.36453522808356 M-32.661929873572646 -16.195726090352576 C-32.41970653493094 -16.23488688127412, -32.17748319628923 -16.274047672195668, -31.61778566779436 -16.36453522808356 M-31.61778566779436 -16.36453522808356 C-31.329268995031505 -16.392368084512928, -31.040752322268652 -16.420200940942294, -30.564971129681766 -16.46609898038055 M-31.61778566779436 -16.36453522808356 C-31.2433244946471 -16.400659047101627, -30.86886332149984 -16.436782866119692, -30.564971129681766 -16.46609898038055 M-30.564971129681766 -16.46609898038055 C-30.239786653489556 -16.47652701359885, -29.914602177297347 -16.486955046817148, -29.507812500000004 -16.5 M-30.564971129681766 -16.46609898038055 C-30.18039746094322 -16.47843150940976, -29.795823792204672 -16.490764038438968, -29.507812500000004 -16.5 M-29.507812500000004 -16.5 C-29.507812500000004 -16.5, -29.507812500000004 -16.5, -29.5078125 -16.5 M-29.507812500000004 -16.5 C-29.507812500000004 -16.5, -29.5078125 -16.5, -29.5078125 -16.5" stroke="#11ab3a" stroke-width="1.3" fill="none" stroke-dasharray="0 0" style=""/></g><g class="label" style="" transform="translate(-35.8828125, -10.5)"><rect/><text x="35.8828125" y="10.5" text-anchor="middle" dominant-baseline="central" font-family="-apple-system, BlinkMacSystemFont, &quot;Segoe UI&quot;, Arial, sans-serif" font-size="13" fill="#0c831f"><tspan x="35.8828125" dy="0em">Share sheet</tspan></text></g></g><g class="node default payment" id="mermaid-1778921826915-flowchart-RazorpayWV-26" data-look="classic" transform="translate(778.78125, 506.09152030944824)"><path d="M0,8.894346915767434 a34.515625,8.894346915767434 0,0,0 69.03125,0 a34.515625,8.894346915767434 0,0,0 -69.03125,0 l0,41.894346915767436 a34.515625,8.894346915767434 0,0,0 69.03125,0 l0,-41.894346915767436" class="basic label-container outer-path" style="fill:#fef2f2 !important;stroke:#dc2626 !important" transform="translate(-34.515625, -29.84152037365115)"/><g class="label" style="" transform="translate(-28.515625, -2.5)"><rect/><text x="28.515625" y="10.5" text-anchor="middle" dominant-baseline="central" font-family="-apple-system, BlinkMacSystemFont, &quot;Segoe UI&quot;, Arial, sans-serif" font-size="13" fill="#0c831f"><tspan x="28.515625" dy="0em">Razorpay</tspan></text></g></g><g class="node default screen" id="mermaid-1778921826915-flowchart-KYCNotice-28" data-look="classic" transform="translate(778.78125, 608.4330406188965)"><rect class="basic label-container" style="fill:#ffffff !important;stroke:#11ab3a !important;stroke-width:1.5px !important" x="-51.765625" y="-22.5" width="103.53125" height="45"/><g class="label" style="" transform="translate(-27.765625, -10.5)"><rect/><text x="27.765625" y="10.5" text-anchor="middle" dominant-baseline="central" font-family="-apple-system, BlinkMacSystemFont, &quot;Segoe UI&quot;, Arial, sans-serif" font-size="13" fill="#0c831f"><tspan x="27.765625" dy="0em">KYC gate</tspan></text></g></g><g class="node default screen" id="mermaid-1778921826915-flowchart-Profile-30" data-look="classic" transform="translate(474.640625, 666.4330406188965)"><rect class="basic label-container" style="fill:#ffffff !important;stroke:#11ab3a !important;stroke-width:1.5px !important" x="-65.6953125" y="-22.5" width="131.390625" height="45"/><g class="label" style="" transform="translate(-41.6953125, -10.5)"><rect/><text x="41.6953125" y="10.5" text-anchor="middle" dominant-baseline="central" font-family="-apple-system, BlinkMacSystemFont, &quot;Segoe UI&quot;, Arial, sans-serif" font-size="13" fill="#0c831f"><tspan x="41.6953125" dy="0em">Profile details</tspan></text></g></g><g class="node default screen" id="mermaid-1778921826915-flowchart-Addresses-32" data-look="classic" transform="translate(474.640625, 761.4330406188965)"><rect class="basic label-container" style="fill:#ffffff !important;stroke:#11ab3a !important;stroke-width:1.5px !important" x="-74.8046875" y="-22.5" width="149.609375" height="45"/><g class="label" style="" transform="translate(-50.8046875, -10.5)"><rect/><text x="50.8046875" y="10.5" text-anchor="middle" dominant-baseline="central" font-family="-apple-system, BlinkMacSystemFont, &quot;Segoe UI&quot;, Arial, sans-serif" font-size="13" fill="#0c831f"><tspan x="50.8046875" dy="0em">Saved addresses</tspan></text></g></g><g class="node default screen" id="mermaid-1778921826915-flowchart-Notifications-34" data-look="classic" transform="translate(474.640625, 856.4330406188965)"><rect class="basic label-container" style="fill:#ffffff !important;stroke:#11ab3a !important;stroke-width:1.5px !important" x="-82.1953125" y="-22.5" width="164.390625" height="45"/><g class="label" style="" transform="translate(-58.1953125, -10.5)"><rect/><text x="58.1953125" y="10.5" text-anchor="middle" dominant-baseline="central" font-family="-apple-system, BlinkMacSystemFont, &quot;Segoe UI&quot;, Arial, sans-serif" font-size="13" fill="#0c831f"><tspan x="58.1953125" dy="0em">Notifications inbox</tspan></text></g></g><g class="node default screen" id="mermaid-1778921826915-flowchart-Security-36" data-look="classic" transform="translate(474.640625, 961.9330406188965)"><rect class="basic label-container" style="fill:#ffffff !important;stroke:#11ab3a !important;stroke-width:1.5px !important" x="-77.7578125" y="-33" width="155.515625" height="66"/><g class="label" style="" transform="translate(-53.7578125, -21)"><rect/><text x="53.7578125" y="21" text-anchor="middle" dominant-baseline="central" font-family="-apple-system, BlinkMacSystemFont, &quot;Segoe UI&quot;, Arial, sans-serif" font-size="13" fill="#0c831f"><tspan x="53.7578125" dy="-0.6em">Account security</tspan><tspan x="53.7578125" dy="1.2em">change password</tspan></text></g></g><g class="node default screen" id="mermaid-1778921826915-flowchart-AddrForm-38" data-look="classic" transform="translate(778.78125, 761.4330406188965)"><rect class="basic label-container" style="fill:#ffffff !important;stroke:#11ab3a !important;stroke-width:1.5px !important" x="-78.96875" y="-33" width="157.9375" height="66"/><g class="label" style="" transform="translate(-54.96875, -21)"><rect/><text x="54.96875" y="21" text-anchor="middle" dominant-baseline="central" font-family="-apple-system, BlinkMacSystemFont, &quot;Segoe UI&quot;, Arial, sans-serif" font-size="13" fill="#0c831f"><tspan x="54.96875" dy="-0.6em">Address form</tspan><tspan x="54.96875" dy="1.2em">+ pincode lookup</tspan></text></g></g><g class="node default screen" id="mermaid-1778921826915-flowchart-Support-40" data-look="classic" transform="translate(474.640625, 1067.4330406188965)"><rect class="basic label-container" style="fill:#ffffff !important;stroke:#11ab3a !important;stroke-width:1.5px !important" x="-62.7734375" y="-22.5" width="125.546875" height="45"/><g class="label" style="" transform="translate(-38.7734375, -10.5)"><rect/><text x="38.7734375" y="10.5" text-anchor="middle" dominant-baseline="central" font-family="-apple-system, BlinkMacSystemFont, &quot;Segoe UI&quot;, Arial, sans-serif" font-size="13" fill="#0c831f"><tspan x="38.7734375" dy="0em">Support hub</tspan></text></g></g><g class="node default screen" id="mermaid-1778921826915-flowchart-Settings-42" data-look="classic" transform="translate(474.640625, 1162.4330406188965)"><rect class="basic label-container" style="fill:#ffffff !important;stroke:#11ab3a !important;stroke-width:1.5px !important" x="-62.7890625" y="-22.5" width="125.578125" height="45"/><g class="label" style="" transform="translate(-38.7890625, -10.5)"><rect/><text x="38.7890625" y="10.5" text-anchor="middle" dominant-baseline="central" font-family="-apple-system, BlinkMacSystemFont, &quot;Segoe UI&quot;, Arial, sans-serif" font-size="13" fill="#0c831f"><tspan x="38.7890625" dy="0em">App settings</tspan></text></g></g><g class="node default" id="mermaid-1778921826915-flowchart-SignOut-44" data-look="classic" transform="translate(474.640625, 1264.0895175933838)"><path d="M0,8.439595926140598 a31.8515625,8.439595926140598 0,0,0 63.703125,0 a31.8515625,8.439595926140598 0,0,0 -63.703125,0 l0,41.4395959261406 a31.8515625,8.439595926140598 0,0,0 63.703125,0 l0,-41.4395959261406" class="basic label-container outer-path" style="" transform="translate(-31.8515625, -29.159393889210897)"/><g class="label" style="" transform="translate(-25.8515625, -2.5)"><rect/><text x="25.8515625" y="10.5" text-anchor="middle" dominant-baseline="central" font-family="-apple-system, BlinkMacSystemFont, &quot;Segoe UI&quot;, Arial, sans-serif" font-size="13" fill="#0c831f"><tspan x="25.8515625" dy="0em">Sign out</tspan></text></g></g></g></g></g><defs><filter id="mermaid-1778921826915-drop-shadow" height="130%" width="130%"><feDropShadow dx="4" dy="4" stdDeviation="0" flood-opacity="0.06" flood-color="#000000"/></filter></defs><defs><filter id="mermaid-1778921826915-drop-shadow-small" height="150%" width="150%"><feDropShadow dx="2" dy="2" stdDeviation="0" flood-opacity="0.06" flood-color="#000000"/></filter></defs><linearGradient id="mermaid-1778921826915-gradient" gradientUnits="objectBoundingBox" x1="0%" y1="0%" x2="100%" y2="0%"><stop offset="0%" stop-color="#11ab3a" stop-opacity="1"/><stop offset="100%" stop-color="hsl(24.7058823529, 40.9523809524%, 85.8823529412%)" stop-opacity="1"/></linearGradient></svg>